<svg xmlns="http://www.w3.org/2000/svg" viewBox="0 0 111.387 74.11" height="280.101" width="420.99"><defs><filter id="b" color-interpolation-filters="sRGB"><feFlood result="flood" flood-color="#000" flood-opacity="1"/><feComposite result="composite1" operator="in" in2="SourceGraphic" in="flood"/><feGaussianBlur result="blur" stdDeviation=".6" in="composite1"/><feOffset result="offset"/><feComposite result="composite2" in2="offset" in="SourceGraphic"/></filter><filter id="a" color-interpolation-filters="sRGB"><feFlood result="flood" flood-color="#000" flood-opacity="1"/><feComposite result="composite1" operator="in" in2="SourceGraphic" in="flood"/><feGaussianBlur result="blur" stdDeviation=".6" in="composite1"/><feOffset result="offset"/><feComposite result="composite2" in2="offset" in="SourceGraphic"/></filter></defs><g paint-order="markers stroke fill"><path fill="#fff" d="M0 0h111.387v74.11H0z"/><g filter="url(#a)" transform="translate(-11.077 -4.8)"><path fill="#fff" stroke="#3c3c3c" stroke-width=".265" d="M15.374 9.097h56.35V48.94h-56.35z"/><g transform="translate(-7.229)" fill="#202020"><path d="M36.759 10.403c-.61 0-1.1.49-1.1 1.1v35.031c0 .61.49 1.1 1.1 1.1h28.038c.61 0 1.1-.49 1.1-1.1v-35.03c0-.61-.49-1.1-1.1-1.1zm14.008 14.433a.897.897 0 01.58.204l1.672 1.376v-1.357a.224.224 0 01.224-.223h1.046a.224.224 0 01.224.223v2.587l1.562 1.288a.224.224 0 01.032.316l-.477.579a.224.224 0 01-.316.03l-4.393-3.619a.228.228 0 00-.286 0l-4.393 3.619a.224.224 0 01-.316-.03l-.476-.58a.224.224 0 01.03-.315l4.728-3.894a.897.897 0 01.559-.204zm.006 2.12a.228.228 0 01.148.05l3.443 2.834v3.063a.299.299 0 01-.3.3l-2.091-.007a.299.299 0 01-.3-.3V31.11a.299.299 0 00-.298-.299H50.18a.299.299 0 00-.299.3v1.787a.299.299 0 01-.297.298l-2.093.006a.299.299 0 01-.3-.3v-3.06l3.444-2.836a.228.228 0 01.138-.05z"/><rect ry="1.1" y="10.403" x="25.672" height="4.63" width="9.458" rx="1.1"/><rect rx="1.1" width="9.458" height="5.96" x="66.426" y="10.403" ry="1.1"/><rect rx="1.1" width="9.458" height="12.284" x="25.672" y="15.563" ry="1.1"/><rect rx="1.1" width="9.458" height="9.369" x="25.672" y="28.376" ry="1.1"/><rect ry="1.1" y="38.274" x="25.672" height="9.36" width="9.458" rx="1.1"/><rect ry="1.1" y="16.893" x="66.426" height="16.354" width="9.458" rx="1.1"/><rect rx="1.1" width="9.458" height="13.858" x="66.426" y="33.776" ry="1.1"/></g></g><g filter="url(#b)" transform="translate(-11.077 -4.8)"><g stroke-width=".265"><path fill="#fff" stroke="#3c3c3c" d="M47.359 34.768h70.807v39.843H47.359z"/><g transform="translate(-43.682 25.672)" fill="#202020"><rect ry="1.1" y="10.403" x="98.15" height="4.63" width="9.458" rx="1.1"/><rect rx="1.1" width="11.253" height="37.231" x="108.137" y="10.403" ry="1.1"/><rect rx="1.1" width="9.458" height="12.284" x="98.15" y="15.563" ry="1.1"/><rect rx="1.1" width="9.458" height="9.369" x="98.15" y="28.376" ry="1.1"/><rect ry="1.1" y="38.274" x="98.15" height="9.36" width="9.458" rx="1.1"/><rect ry="1.1" y="10.403" x="119.92" height="37.231" width="11.253" rx="1.1"/><rect rx="1.1" width="11.253" height="37.231" x="131.702" y="10.403" ry="1.1"/><rect ry="1.1" y="29.284" x="143.485" height="18.35" width="11.253" rx="1.1"/><rect rx="1.1" width="11.253" height="18.35" x="143.485" y="10.403" ry="1.1"/></g></g><path d="M90.15 50.491v8.305h1.677v-3.004l2.065 3.004h1.941l-2.254-3.18 2.207-2.92h-1.922l-2.037 2.743V50.49h-1.676zm-20.459.205v8.1h2.766c1.288 0 2.318-.375 3.088-1.125.77-.756 1.156-1.773 1.156-3.05 0-1.123-.395-2.055-1.184-2.8-.79-.75-1.803-1.125-3.04-1.125H69.69zm1.81 1.442h.918c.783 0 1.393.229 1.829.688.435.458.653 1.088.653 1.887 0 .794-.215 1.436-.644 1.925-.423.484-1.033.726-1.828.726H71.5v-5.226zm15.912.464c-1.016 0-1.822.304-2.415.912-.587.601-.881 1.355-.881 2.26 0 .905.3 1.652.9 2.241.6.583 1.367.874 2.301.874.67 0 1.235-.127 1.696-.382v-1.385a2.632 2.632 0 01-1.45.419c-.523 0-.94-.159-1.25-.475-.302-.316-.47-.75-.502-1.301.007-.565.17-1.005.493-1.321.328-.317.755-.474 1.279-.474.524 0 1 .133 1.43.4v-1.423c-.43-.23-.963-.345-1.6-.345zm-6.942.038c-.815 0-1.494.276-2.037.827-.543.546-.814 1.29-.814 2.232 0 .943.283 1.705.852 2.288.568.577 1.357.865 2.368.865.865 0 1.503-.134 1.913-.4v-1.404c-.455.34-1.004.511-1.648.511-.486 0-.887-.111-1.203-.335a1.61 1.61 0 01-.625-.93h3.779a5.44 5.44 0 00.076-.91c0-.881-.24-1.557-.72-2.028-.48-.477-1.127-.716-1.941-.716zm.056 1.265c.632 0 .976.38 1.032 1.143v.065h-2.282c.082-.378.234-.672.455-.883.227-.217.492-.325.795-.325z" style="line-height:1.25;-inkscape-font-specification:'GenEi Nu Gothic EB';text-align:center" font-weight="400" font-size="9.61" font-family="GenEi Nu Gothic EB" letter-spacing="0" word-spacing="0" text-anchor="middle" fill="#202020" stroke="#fff" stroke-width="3.06489472"/></g></g></svg>