<?xml version="1.0" encoding="UTF-8" standalone="no"?>
<svg
   xmlns:dc="http://purl.org/dc/elements/1.1/"
   xmlns:cc="http://creativecommons.org/ns#"
   xmlns:rdf="http://www.w3.org/1999/02/22-rdf-syntax-ns#"
   xmlns:svg="http://www.w3.org/2000/svg"
   xmlns="http://www.w3.org/2000/svg"
   id="svg8"
   version="1.1"
   viewBox="0 0 111.38685 74.109932"
   height="74.109932mm"
   width="111.38685mm">
  <defs
     id="defs2">
    <filter
       id="filter925"
       style="color-interpolation-filters:sRGB;">
      <feFlood
         id="feFlood915"
         result="flood"
         flood-color="rgb(0,0,0)"
         flood-opacity="1" />
      <feComposite
         id="feComposite917"
         result="composite1"
         operator="in"
         in2="SourceGraphic"
         in="flood" />
      <feGaussianBlur
         id="feGaussianBlur919"
         result="blur"
         stdDeviation="0.6"
         in="composite1" />
      <feOffset
         id="feOffset921"
         result="offset"
         dy="0"
         dx="0" />
      <feComposite
         id="feComposite923"
         result="composite2"
         operator="over"
         in2="offset"
         in="SourceGraphic" />
    </filter>
    <filter
       id="filter937"
       style="color-interpolation-filters:sRGB;">
      <feFlood
         id="feFlood927"
         result="flood"
         flood-color="rgb(0,0,0)"
         flood-opacity="1" />
      <feComposite
         id="feComposite929"
         result="composite1"
         operator="in"
         in2="SourceGraphic"
         in="flood" />
      <feGaussianBlur
         id="feGaussianBlur931"
         result="blur"
         stdDeviation="0.6"
         in="composite1" />
      <feOffset
         id="feOffset933"
         result="offset"
         dy="0"
         dx="0" />
      <feComposite
         id="feComposite935"
         result="composite2"
         operator="over"
         in2="offset"
         in="SourceGraphic" />
    </filter>
  </defs>
  <metadata
     id="metadata5">
    <rdf:RDF>
      <cc:Work
         rdf:about="">
        <dc:format>image/svg+xml</dc:format>
        <dc:type
           rdf:resource="http://purl.org/dc/dcmitype/StillImage" />
        <dc:title></dc:title>
      </cc:Work>
    </rdf:RDF>
  </metadata>
  <g
     transform="translate(-12.900108,-5.869898)"
     id="layer1">
    <rect
       y="5.8698964"
       x="12.900108"
       height="74.109932"
       width="111.38685"
       id="rect917"
       style="fill:#ffffff;fill-opacity:1;stroke:none;stroke-width:3.06500006;stroke-linecap:round;stroke-linejoin:miter;stroke-miterlimit:4;stroke-dasharray:none;stroke-opacity:1;paint-order:markers stroke fill" />
    <g
       transform="translate(1.8232531,1.0702386)"
       id="g915">
      <g
         style="filter:url(#filter937)"
         id="g852">
        <rect
           y="9.0971594"
           x="15.374355"
           height="39.843483"
           width="56.349777"
           id="rect817"
           style="fill:#ffffff;fill-opacity:1;stroke:#3c3c3c;stroke-width:0.26458333;stroke-linejoin:miter;stroke-miterlimit:4;stroke-dasharray:none;stroke-opacity:1;paint-order:markers stroke fill" />
        <g
           transform="translate(-7.2287259,5.3400462e-5)"
           id="g840">
          <path
             style="fill:#202020;fill-opacity:1;stroke:none;stroke-width:2.24881887;stroke-linejoin:miter;stroke-miterlimit:4;stroke-dasharray:none;stroke-opacity:1;paint-order:markers stroke fill"
             d="m 138.93164,39.320312 c -2.30324,0 -4.1582,1.853006 -4.1582,4.15625 V 175.87695 c 0,2.30325 1.85496,4.15821 4.1582,4.15821 h 105.9707 c 2.30325,0 4.15821,-1.85496 4.15821,-4.15821 V 43.476562 c 0,-2.303244 -1.85496,-4.15625 -4.15821,-4.15625 z M 191.875,93.867188 a 3.3883672,3.3883672 0 0 1 2.19141,0.771484 l 6.32031,5.201172 v -5.126953 a 0.84709179,0.84709179 0 0 1 0.84766,-0.845703 h 3.95312 a 0.84709179,0.84709179 0 0 1 0.84766,0.845703 v 9.777339 l 5.90039,4.86524 a 0.84709179,0.84709179 0 0 1 0.12109,1.19531 l -1.80078,2.1875 a 0.84709179,0.84709179 0 0 1 -1.19336,0.11328 L 192.45703,99.175781 a 0.86050409,0.86050409 0 0 0 -1.08008,0 l -16.60351,13.675779 a 0.84709179,0.84709179 0 0 1 -1.19336,-0.11523 l -1.80078,-2.1875 a 0.84709179,0.84709179 0 0 1 0.11328,-1.19336 l 17.86914,-14.716798 a 3.3883672,3.3883672 0 0 1 2.11328,-0.771484 z m 0.0234,8.011722 a 0.86050409,0.86050409 0 0 1 0.55859,0.1914 l 13.01172,10.71094 v 11.57617 a 1.1294557,1.1294557 0 0 1 -1.12891,1.13086 l -7.9082,-0.0234 a 1.1294557,1.1294557 0 0 1 -1.12891,-1.13281 v -6.75 a 1.1294557,1.1294557 0 0 0 -1.1289,-1.13086 h -4.51758 a 1.1294557,1.1294557 0 0 0 -1.12891,1.13086 v 6.75586 a 1.1294557,1.1294557 0 0 1 -1.125,1.12891 l -7.91015,0.0215 a 1.1294557,1.1294557 0 0 1 -1.12891,-1.13086 v -11.56836 l 13.01367,-10.71875 a 0.86050409,0.86050409 0 0 1 0.52149,-0.1914 z"
             transform="scale(0.26458333)"
             id="rect830" />
          <rect
             ry="1.1"
             y="10.403394"
             x="25.671869"
             height="4.6302056"
             width="9.4578886"
             id="rect832"
             style="fill:#202020;fill-opacity:1;stroke:none;stroke-width:0.59499997;stroke-linejoin:miter;stroke-miterlimit:4;stroke-dasharray:none;stroke-opacity:1;paint-order:markers stroke fill"
             rx="1.1" />
          <rect
             rx="1.1"
             style="fill:#202020;fill-opacity:1;stroke:none;stroke-width:0.59499997;stroke-linejoin:miter;stroke-miterlimit:4;stroke-dasharray:none;stroke-opacity:1;paint-order:markers stroke fill"
             id="rect834"
             width="9.4578886"
             height="5.9601169"
             x="66.426186"
             y="10.403394"
             ry="1.1" />
          <rect
             rx="1.1"
             style="fill:#202020;fill-opacity:1;stroke:none;stroke-width:0.59499997;stroke-linejoin:miter;stroke-miterlimit:4;stroke-dasharray:none;stroke-opacity:1;paint-order:markers stroke fill"
             id="rect836"
             width="9.4578886"
             height="12.284224"
             x="25.671869"
             y="15.562766"
             ry="1.1" />
          <rect
             rx="1.1"
             style="fill:#202020;fill-opacity:1;stroke:none;stroke-width:0.59499997;stroke-linejoin:miter;stroke-miterlimit:4;stroke-dasharray:none;stroke-opacity:1;paint-order:markers stroke fill"
             id="rect840"
             width="9.4578886"
             height="9.3689165"
             x="25.671869"
             y="28.376156"
             ry="1.1" />
          <rect
             ry="1.1"
             y="38.274239"
             x="25.671869"
             height="9.359807"
             width="9.4578886"
             id="rect842"
             style="fill:#202020;fill-opacity:1;stroke:none;stroke-width:0.59499997;stroke-linejoin:miter;stroke-miterlimit:4;stroke-dasharray:none;stroke-opacity:1;paint-order:markers stroke fill"
             rx="1.1" />
          <rect
             ry="1.1"
             y="16.892677"
             x="66.426186"
             height="16.354462"
             width="9.4578886"
             id="rect844"
             style="fill:#202020;fill-opacity:1;stroke:none;stroke-width:0.59499997;stroke-linejoin:miter;stroke-miterlimit:4;stroke-dasharray:none;stroke-opacity:1;paint-order:markers stroke fill"
             rx="1.1" />
          <rect
             rx="1.1"
             style="fill:#202020;fill-opacity:1;stroke:none;stroke-width:0.59499997;stroke-linejoin:miter;stroke-miterlimit:4;stroke-dasharray:none;stroke-opacity:1;paint-order:markers stroke fill"
             id="rect846"
             width="9.4578886"
             height="13.857738"
             x="66.426186"
             y="33.776306"
             ry="1.0999999" />
        </g>
      </g>
      <g
         style="filter:url(#filter925)"
         id="g887">
        <g
           style="stroke-width:0.26458333;stroke-miterlimit:4;stroke-dasharray:none"
           transform="translate(-45.256414,25.671447)"
           id="g865">
          <rect
             y="9.0971594"
             x="92.61525"
             height="39.843483"
             width="70.807365"
             id="rect850"
             style="fill:#ffffff;fill-opacity:1;stroke:#3c3c3c;stroke-width:0.26458333;stroke-linejoin:miter;stroke-miterlimit:4;stroke-dasharray:none;stroke-opacity:1;paint-order:markers stroke fill" />
          <g
             style="stroke-width:0.26458333;stroke-miterlimit:4;stroke-dasharray:none"
             id="g885"
             transform="translate(1.574656,1.8167496e-4)">
            <rect
               ry="1.1"
               y="10.403394"
               x="98.150276"
               height="4.6302056"
               width="9.4578886"
               id="rect854"
               style="fill:#202020;fill-opacity:1;stroke:none;stroke-width:0.26458333;stroke-linejoin:miter;stroke-miterlimit:4;stroke-dasharray:none;stroke-opacity:1;paint-order:markers stroke fill"
               rx="1.1" />
            <rect
               rx="1.1"
               style="fill:#202020;fill-opacity:1;stroke:none;stroke-width:0.26458333;stroke-linejoin:miter;stroke-miterlimit:4;stroke-dasharray:none;stroke-opacity:1;paint-order:markers stroke fill"
               id="rect856"
               width="11.253276"
               height="37.230652"
               x="108.13733"
               y="10.403393"
               ry="1.1" />
            <rect
               rx="1.1"
               style="fill:#202020;fill-opacity:1;stroke:none;stroke-width:0.26458333;stroke-linejoin:miter;stroke-miterlimit:4;stroke-dasharray:none;stroke-opacity:1;paint-order:markers stroke fill"
               id="rect858"
               width="9.4578886"
               height="12.284224"
               x="98.150276"
               y="15.562766"
               ry="1.1" />
            <rect
               rx="1.1"
               style="fill:#202020;fill-opacity:1;stroke:none;stroke-width:0.26458333;stroke-linejoin:miter;stroke-miterlimit:4;stroke-dasharray:none;stroke-opacity:1;paint-order:markers stroke fill"
               id="rect860"
               width="9.4578886"
               height="9.3689165"
               x="98.150276"
               y="28.376156"
               ry="1.1" />
            <rect
               ry="1.1"
               y="38.274239"
               x="98.150276"
               height="9.359807"
               width="9.4578886"
               id="rect862"
               style="fill:#202020;fill-opacity:1;stroke:none;stroke-width:0.26458333;stroke-linejoin:miter;stroke-miterlimit:4;stroke-dasharray:none;stroke-opacity:1;paint-order:markers stroke fill"
               rx="1.1" />
            <rect
               ry="1.1"
               y="10.403393"
               x="119.91977"
               height="37.230652"
               width="11.253276"
               id="rect868"
               style="fill:#202020;fill-opacity:1;stroke:none;stroke-width:0.26458333;stroke-linejoin:miter;stroke-miterlimit:4;stroke-dasharray:none;stroke-opacity:1;paint-order:markers stroke fill"
               rx="1.1" />
            <rect
               rx="1.1"
               style="fill:#202020;fill-opacity:1;stroke:none;stroke-width:0.26458333;stroke-linejoin:miter;stroke-miterlimit:4;stroke-dasharray:none;stroke-opacity:1;paint-order:markers stroke fill"
               id="rect870"
               width="11.253276"
               height="37.230652"
               x="131.70221"
               y="10.403393"
               ry="1.1" />
            <rect
               ry="1.1"
               y="29.284044"
               x="143.485"
               height="18.35"
               width="11.253276"
               id="rect872"
               style="fill:#202020;fill-opacity:1;stroke:none;stroke-width:0.26458333;stroke-linejoin:miter;stroke-miterlimit:4;stroke-dasharray:none;stroke-opacity:1;paint-order:markers stroke fill"
               rx="1.1" />
            <rect
               rx="1.1"
               style="fill:#202020;fill-opacity:1;stroke:none;stroke-width:0.26458333;stroke-linejoin:miter;stroke-miterlimit:4;stroke-dasharray:none;stroke-opacity:1;paint-order:markers stroke fill"
               id="rect874"
               width="11.253276"
               height="18.35"
               x="143.48465"
               y="10.403393"
               ry="1.1" />
          </g>
        </g>
        <path
           id="path852"
           transform="matrix(0.26458333,0,0,0.26458333,11.076855,4.7996594)"
           d="M 298.86133 172.69336 L 298.86133 204.08008 L 305.19727 204.08008 L 305.19727 192.72852 L 313.00195 204.08008 L 320.33984 204.08008 L 311.82031 192.06055 L 320.16016 181.02344 L 312.89453 181.02344 L 305.19727 191.39258 L 305.19727 172.69336 L 298.86133 172.69336 z M 221.53516 173.4668 L 221.53516 204.08008 L 231.98828 204.08008 C 236.85687 204.08008 240.74855 202.66333 243.66016 199.82812 C 246.57176 196.96949 248.02734 193.12571 248.02734 188.29883 C 248.02734 184.05774 246.53594 180.53248 243.55273 177.7207 C 240.56953 174.8855 236.73821 173.4668 232.06055 173.4668 L 221.53516 173.4668 z M 228.37305 178.91602 L 231.8457 178.91602 C 234.80504 178.91602 237.10913 179.7817 238.75586 181.51562 C 240.40259 183.24955 241.22461 185.62773 241.22461 188.65039 C 241.22461 191.64962 240.41388 194.0747 238.79102 195.92578 C 237.19202 197.75343 234.88793 198.66797 231.88086 198.66797 L 228.37305 198.66797 L 228.37305 178.91602 z M 288.51562 180.67188 C 284.67326 180.67187 281.63009 181.82091 279.38672 184.11719 C 277.16722 186.39004 276.05664 189.23721 276.05664 192.6582 C 276.05664 196.0792 277.1898 198.90292 279.45703 201.12891 C 281.72427 203.33146 284.62414 204.43164 288.15625 204.43164 C 290.68601 204.43164 292.82226 203.95092 294.56445 202.99023 L 294.56445 197.75391 C 292.91772 198.80832 291.0926 199.33594 289.08789 199.33594 C 287.10705 199.33594 285.5327 198.73797 284.36328 197.54297 C 283.21773 196.34796 282.58418 194.70845 282.46484 192.62305 C 282.48871 190.49078 283.10902 188.82586 284.32617 187.63086 C 285.56718 186.43586 287.17931 185.83984 289.16016 185.83984 C 291.141 185.83984 292.94159 186.34401 294.56445 187.35156 L 294.56445 181.97266 C 292.94159 181.10569 290.92605 180.67187 288.51562 180.67188 z M 262.27539 180.8125 C 259.19672 180.8125 256.63057 181.85601 254.57812 183.94141 C 252.52568 186.00337 251.5 188.81537 251.5 192.37695 C 251.5 195.93854 252.5728 198.82088 254.7207 201.02344 C 256.86861 203.20256 259.85142 204.29102 263.66992 204.29102 C 266.93952 204.29102 269.35108 203.78685 270.90234 202.7793 L 270.90234 197.47266 C 269.18402 198.76138 267.10812 199.40625 264.67383 199.40625 C 262.83617 199.40625 261.32024 198.98416 260.12695 198.14062 C 258.93367 197.27366 258.14552 196.10313 257.76367 194.62695 L 272.04688 194.62695 C 272.23779 193.50224 272.33398 192.35321 272.33398 191.18164 C 272.33398 187.85437 271.42707 185.30032 269.61328 183.51953 C 267.79949 181.71531 265.35406 180.8125 262.27539 180.8125 z M 262.49023 185.59375 C 264.87678 185.59375 266.17582 187.03394 266.39062 189.91602 L 266.39062 190.16211 L 257.76367 190.16211 C 258.07392 188.73279 258.64713 187.62089 259.48242 186.82422 C 260.34159 186.00412 261.34468 185.59375 262.49023 185.59375 z "
           style="font-style:normal;font-variant:normal;font-weight:normal;font-stretch:normal;font-size:9.61036205px;line-height:1.25;font-family:'GenEi Nu Gothic EB';-inkscape-font-specification:'GenEi Nu Gothic EB';text-align:center;letter-spacing:0px;word-spacing:0px;text-anchor:middle;fill:#202020;fill-opacity:1;stroke:#ffffff;stroke-width:11.58425236;stroke-miterlimit:4;stroke-dasharray:none;stroke-opacity:1;paint-order:markers stroke fill" />
      </g>
    </g>
  </g>
</svg>
