<svg xmlns="http://www.w3.org/2000/svg" width="600" height="600" viewBox="0 0 158.75 158.75"><g stroke-width="1.428"><path d="M0 0h158.75v158.75H0z" fill="#fff" paint-order="fill markers stroke"/><g style="line-height:476.69509888px;-inkscape-font-specification:'OTADESIGN Rounded'"><path style="-inkscape-font-specification:'OTADESIGN Rounded'" d="M67.169 98.496c-4.107.014-7.633-2.46-9.296-5.34-.888-1.258-2.646-1.706-2.67 0v7.877c0 3.164-1.154 5.9-3.462 8.208-2.241 2.241-4.978 3.362-8.209 3.362-3.164 0-5.9-1.12-8.207-3.362-2.242-2.308-3.362-5.044-3.362-8.208V57.717c0-2.44.692-4.648 2.077-6.625 1.45-2.044 3.295-3.462 5.537-4.253a11.35 11.35 0 013.956-.692c3.56 0 6.528 1.385 8.9 4.153 1.253 1.385 1.978 2.11 2.176 2.176 0 0 9.402 11.369 9.665 11.566.264.199 1.039 1.71 2.895 1.71s2.728-1.512 2.993-1.71c.264-.197 9.665-11.566 9.665-11.566.066.066.758-.66 2.077-2.176 2.439-2.768 5.44-4.153 9-4.153 1.317 0 2.636.231 3.955.692 2.241.791 4.054 2.209 5.44 4.253 1.449 1.977 2.174 4.186 2.174 6.625v43.316c0 3.164-1.153 5.9-3.46 8.208-2.242 2.241-4.978 3.362-8.21 3.362-3.164 0-5.9-1.12-8.208-3.362-2.24-2.308-3.361-5.044-3.361-8.208v-7.878c-.195-2.15-2.095-.795-2.77 0-1.78 3.297-5.19 5.326-9.295 5.34zM116.7 66.123q-4.153 0-7.12-2.868-2.868-2.967-2.868-7.12 0-4.153 2.868-7.021 2.967-2.967 7.12-2.967 4.154 0 7.121 2.967 2.967 2.868 2.967 7.021 0 4.153-2.967 7.12-2.967 2.868-7.12 2.868zm.099 1.978q4.153 0 7.022 2.967 2.967 2.967 2.967 7.12v24.427q0 4.153-2.967 7.12-2.868 2.868-7.022 2.868-4.153 0-7.12-2.868-2.967-2.967-2.967-7.12V78.189q0-4.154 2.967-7.121 2.967-2.967 7.12-2.967z" aria-label="Mi" font-weight="400" font-size="141.034" letter-spacing="0" word-spacing="0" font-family="OTADESIGN Rounded" fill="#2fa1bb" stroke-width=".414"/></g><path d="M95.987 90.487a.052.052 0 00-.024.007c-.223.128-.377 4.051-.464 9.45h-3.894v23.371h3.894c.088 5.399.242 9.322.465 9.45.732.424 36.609-20.292 36.609-21.137 0-.838-35.32-21.235-36.587-21.14z" fill="#f66e4f" paint-order="fill markers stroke"/></g></svg>