<?xml version="1.0" encoding="UTF-8" standalone="no"?>
<svg
   xmlns:dc="http://purl.org/dc/elements/1.1/"
   xmlns:cc="http://creativecommons.org/ns#"
   xmlns:rdf="http://www.w3.org/1999/02/22-rdf-syntax-ns#"
   xmlns:svg="http://www.w3.org/2000/svg"
   xmlns="http://www.w3.org/2000/svg"
   xmlns:sodipodi="http://sodipodi.sourceforge.net/DTD/sodipodi-0.dtd"
   xmlns:inkscape="http://www.inkscape.org/namespaces/inkscape"
   width="600"
   height="600"
   viewBox="0 0 158.75 158.75"
   version="1.1"
   id="svg10"
   sodipodi:docname="icon.svg"
   inkscape:version="0.92.4 (5da689c313, 2019-01-14)"
   inkscape:export-filename="C:\Users\tamai\OneDrive\デスクトップ\icon.png"
   inkscape:export-xdpi="192"
   inkscape:export-ydpi="192">
  <metadata
     id="metadata16">
    <rdf:RDF>
      <cc:Work
         rdf:about="">
        <dc:format>image/svg+xml</dc:format>
        <dc:type
           rdf:resource="http://purl.org/dc/dcmitype/StillImage" />
        <dc:title></dc:title>
      </cc:Work>
    </rdf:RDF>
  </metadata>
  <defs
     id="defs14" />
  <sodipodi:namedview
     pagecolor="#ffffff"
     bordercolor="#666666"
     borderopacity="1"
     objecttolerance="10"
     gridtolerance="10"
     guidetolerance="10"
     inkscape:pageopacity="0"
     inkscape:pageshadow="2"
     inkscape:window-width="1920"
     inkscape:window-height="965"
     id="namedview12"
     showgrid="false"
     inkscape:snap-page="true"
     inkscape:zoom="0.55625733"
     inkscape:cx="51.159715"
     inkscape:cy="469.17162"
     inkscape:window-x="-8"
     inkscape:window-y="-8"
     inkscape:window-maximized="1"
     inkscape:current-layer="svg10" />
  <g
     id="g833"
     transform="matrix(0.70037848,0,0,0.70037848,23.782458,23.782458)"
     style="stroke-width:1.42779946">
    <path
       id="path2"
       d="M -33.95658,-33.95658 H 192.70657 V 192.70657 H -33.95658 Z"
       inkscape:connector-curvature="0"
       style="fill:#ffffff;stroke-width:1.57921267;paint-order:fill markers stroke" />
    <g
       id="g826"
       style="stroke-width:1.42779946">
      <g
         style="font-weight:400;font-size:141.03399658px;line-height:476.69509888px;font-family:'OTADESIGN Rounded';-inkscape-font-specification:'OTADESIGN Rounded';letter-spacing:0;word-spacing:0;fill:#2fa1bb;stroke-width:0.41406181"
         aria-label="Mi"
         font-weight="400"
         font-size="141.034"
         letter-spacing="0"
         word-spacing="0"
         id="g6">
        <path
           style="-inkscape-font-specification:'OTADESIGN Rounded';stroke-width:0.41406181"
           d="m 61.947,106.676 c -5.863,0.02 -10.898,-3.512 -13.273,-7.625 -1.268,-1.796 -3.777,-2.435 -3.813,0 v 11.247 c 0,4.518 -1.647,8.425 -4.942,11.72 -3.2,3.2 -7.107,4.8 -11.72,4.8 -4.518,0 -8.424,-1.6 -11.719,-4.8 -3.2,-3.295 -4.8,-7.202 -4.8,-11.72 V 48.452 c 0,-3.483 0.988,-6.636 2.965,-9.46 2.07,-2.918 4.706,-4.942 7.907,-6.072 A 16.206,16.206 0 0 1 28.2,31.932 c 5.083,0 9.32,1.977 12.708,5.93 1.788,1.977 2.824,3.012 3.106,3.107 0,0 13.424,16.232 13.8,16.514 0.377,0.283 1.483,2.442 4.133,2.442 2.65,0 3.896,-2.16 4.273,-2.442 0.377,-0.282 13.8,-16.514 13.8,-16.514 0.094,0.094 1.083,-0.942 2.966,-3.107 3.482,-3.953 7.766,-5.93 12.849,-5.93 1.882,0 3.765,0.33 5.648,0.988 3.2,1.13 5.789,3.154 7.766,6.072 2.07,2.824 3.106,5.977 3.106,9.46 v 61.846 c 0,4.518 -1.647,8.425 -4.942,11.72 -3.2,3.2 -7.107,4.8 -11.72,4.8 -4.518,0 -8.424,-1.6 -11.72,-4.8 -3.2,-3.295 -4.8,-7.202 -4.8,-11.72 V 99.05 c -0.278,-3.069 -2.991,-1.135 -3.953,0 -2.542,4.707 -7.411,7.605 -13.273,7.625 z m 70.721,-46.222 q -5.93,0 -10.166,-4.095 -4.095,-4.236 -4.095,-10.166 0,-5.93 4.095,-10.025 4.236,-4.236 10.166,-4.236 5.93,0 10.167,4.236 4.236,4.095 4.236,10.025 0,5.93 -4.236,10.166 -4.236,4.095 -10.167,4.095 z m 0.141,2.824 q 5.93,0 10.026,4.236 4.236,4.236 4.236,10.167 v 34.876 q 0,5.93 -4.236,10.166 -4.095,4.095 -10.026,4.095 -5.93,0 -10.166,-4.095 -4.236,-4.236 -4.236,-10.166 V 77.681 q 0,-5.93 4.236,-10.167 4.236,-4.236 10.166,-4.236 z"
           id="path4"
           inkscape:connector-curvature="0" />
      </g>
      <path
         d="m 103.093,95.241 a 0.074,0.074 0 0 0 -0.034,0.009 c -0.318,0.183 -0.538,5.785 -0.662,13.493 h -5.56 v 33.37 h 5.56 c 0.126,7.708 0.346,13.31 0.664,13.493 1.045,0.604 52.27,-28.973 52.27,-30.18 -10e-4,-1.197 -50.43,-30.32 -52.239,-30.185 z"
         id="path8"
         inkscape:connector-curvature="0"
         style="fill:#f66e4f;stroke-width:1.42779946;paint-order:fill markers stroke" />
    </g>
  </g>
</svg>
