<svg xmlns="http://www.w3.org/2000/svg" width="210mm" height="297mm" viewBox="0 0 210 297"><path d="M65.787 9.797s.668 13.899.534 18.442c-.053 1.805-.124 3.88-.144 5.907-1.262.367-2.706.856-4 1.483-3.118 1.512-5.575 3.024-6.615 3.875-1.039.85-1.417 1.417-1.417 1.417s.189 6.898 1.323 8.694c.758 1.2 2.97 2.626 4.37 3.452-1.352 2.095-2.995 4.626-3.709 5.619-1.086 1.512-5.15 9.26-5.386 10.11-.111.402-.84 2.71-1.585 5.088l-2.005 1.669s.189-.047.897-.047c.214 0 .41.015.593.033-.109.35-.21.673-.31 1-.304.139-.566.242-.566.242s.215.039.471.062c-.44 1.426-.804 2.627-.85 2.868-.14.756-.377 2.22-.377 2.22s0-.33.992-1.18c.992-.85 1.7-1.23 1.7-1.23s.284 2.269.615 3.166c.33.898 1.228 2.41 1.512 2.6.283.188.455.202.455.202s-.435-2.505-.134-4.41c.3-1.903.368-2.17 1.103-5.044.193-.754.514-1.807.905-2.988 1.318-.985 2.508-1.88 2.821-2.124.85-.662 2.74-2.74 3.354-3.496.292-.359 1.27-1.89 2.212-3.387.032 2.6.293 7.12.293 7.12s.303-2.943.504-3.945c.2-1.002 1.002-2.539 1.002-2.539s.468 2.806.869 4.343c.128.493.335 1.161.564 1.871-.335 3.558-1.371 11.854-2.598 16.064-1.424 4.886-2.305 13.972-2.664 17.016-.239 2.02-.196 4.914-.141 6.65-2.255 3.678-4.13 6.765-4.529 7.43-1.122 1.87-4.153 7.136-4.153 7.136s-.364-.099-.893.397c-.53.496-1.422 2.613-1.753 2.811-.33.199-8.83 10.054-10.286 11.84-1.455 1.786-5.225 5.557-5.688 6.681-.463 1.125-.132 6.482-.33 7.21-.2.728 0 4.564.33 5.622.33 1.059.926 3.837.595 5.689-.33 1.852-.992 8.136-.595 9.194.308.82 1.974 2.874 2.722 3.773-.008 1.522.028 2.802.08 3.163.093.655 1.169 1.544 3.133 2.853a75.916 75.916 0 004.21 2.573l-.158-.31c1.165.592 2.581 1.1 4.168.913.75-.089 1.593-.16 2.427-.303.85.075 1.908.274 2.071.137.198-.165.711-.525.799-.706a1.47 1.47 0 00.069-.169c.108.02.212.04.321.058-.405 1.199-.78 2.505-.664 2.69.053.086.28.143.599.238-.643 2.98-2.127 9.715-3.24 13.665-1.456 5.16-5.954 21.167-5.821 21.564.132.397 3.44 4.498 4.63 5.424.381.297.971.633 1.59.955-.222 3.834-.36 6.602-.337 7.2.093 2.432 1.03 5.8 1.403 5.893.198.05 1.304.174 2.951.173.122 1.065.243 1.968.346 2.447.397 1.852 7.54 32.544 8.731 36.645 1.19 4.101 4.366 14.95 4.366 14.95l21.034-.398s-.661-20.24-.926-24.341c-.198-3.077.05-20.298.186-28.71 3.454-.379 6.714-.809 6.904-1.047.137-.17.097-1.264-.012-2.631.871-.166 1.711-.352 2.315-.553l.044-.016c.764 2.256 3.901 11.48 4.718 13.113.926 1.852 20.902 44.053 20.902 44.053l25.268.794c-3.648-18.288-7.97-40.59-13.361-58.473-.839-2.575-1.999-7.426-2.875-11.27.278-.157.579-.326.793-.451 2.712-1.59 2.666-2.573 2.666-2.573s-.256-.305-.643-.815c1.7-1.405 4.152-3.475 5.086-4.536 1.455-1.654 6.35-9.46 7.673-12.237 1.323-2.779.926-2.779.264-3.837-.661-1.058-17.462-10.716-19.05-11.906-.513-.385-1.647-1.167-2.893-2.017.028-.055.056-.11.082-.166.661-1.422 1.995-.439 1.895-1.365-.099-.926-2.226-10.343-2.226-10.674 0-.33.563-1.852.364-2.282-.198-.43-.53-.463-.827-.727-.297-.265 0-.199.265-1.753.264-1.554-.066-6.317.033-7.97.1-1.654.992-4.995 1.224-6.549.231-1.554.231-3.605.363-3.77.133-.166 1.191-.43 1.125-.761-.066-.33-.199-1.224.033-1.885.231-.662 1.587-1.852 1.852-1.885.146-.019.26-.263.324-.62 1.196 1.127 2.681 2.556 3.465 3.445 1.404 1.59 7.718 9.214 7.858 9.775.14.562-.046 1.778.187 1.965.234.187 1.45 1.263 1.45 1.544 0 .28 3.368 3.788 4.678 4.817 1.31 1.029 6.735 5.706 7.25 5.706.514 0 1.168-1.31 1.823-1.403.655-.093 3.228.047 3.976-.655.748-.701 3.087-5.285 3.741-5.893.655-.608 3.368-3.414 3.976-4.443.608-1.03 2.292-5.66 2.48-8.185.186-2.526-.843-7.577-1.591-9.682-.749-2.105-2.572-6.642-2.526-9.402.047-2.76-.234-2.666-.234-2.666s.45-1.336.45-2.527c0-1.19-.563-4.299-.761-4.696-.199-.397-.364-.298-.364-.298s0-.165.066-1.455-.066-1.72-.397-2.116c-.33-.397-1.488-1.687-1.654-1.753a.198.198 0 00-.248.066s.133-.347.199-.629c.066-.28.016-.694-.116-.777-.132-.082-.43-.413-.43-.413l-.38-.128a.48.48 0 00.058-.162c0-.187-1.666-4.804-2.65-7.666a91.313 91.313 0 01-.485-1.44c-.182-.565-.324-1.036-.444-1.438-.374-1.242-.529-1.775-.935-2.023-.409-.248-1.847-.868-2.655-1.214l-.016-.018s-.662-.33-1.588-.596a.575.575 0 00-.278.01c-.056-.133-.15-.388-.277-.74.218-.184.407-.344.417-.358.05-.067.05-.134-.016-.368-.005-.017-.096-.26-.124-.34l-.015-.041c-.392-1.09-2.386-6.42-2.473-6.443-.024-.005-.14.068-.328.197l-.015-.043a.4.4 0 00-.047-.086c-.06-.16-.233-.622-.29-1.045-.066-.5.435-3.608.468-5.111.024-1.037-.127-1.511-.224-1.71.109-.486.17-1.024.19-1.297.034-.434-.466-2.472-.767-2.74-.3-.267-1.37-.2-1.971-.133-.147.016-.285.039-.411.063-.115-.485-.132-.5-.29-.765-.201-.334-.636-1.002-1.037-1.035-.276-.023-1.618.405-2.444.68l-.229-.346s.134-2.473.134-2.773c0-.301 1.292-4.42 1.564-5.125.264-.684 3.581-7.738 3.615-7.972.033-.234-.234-1.47-.468-1.57-.234-.1-1.296.254-1.897.655-.602.401-1.29 1.55-1.624 2.219-.334.668-2.299 4.777-2.666 5.712-.368.936-2.299 7.116-2.299 7.116s-1.37-.735-1.737-.668c-.368.067-.41-.282-.41-.282s.042-7.335.11-9.24c.066-1.904.183-6.798.133-7.099-.05-.3-.218-.468-.418-.601a.433.433 0 00-.232-.06c.047-4.069-.07-10.886-.974-18.853-.827-7.296-5.118-13.2-6.838-15.312.026-.553.051-1.055.076-1.406.134-1.87.268-6.28.535-8.418.267-2.138-.267-10.157-.267-10.157s-8.436 3.826-11.176 6.283c-1.769 1.586-3.966 3.013-5.585 4.258-8.49-4.121-20.555-2.42-27.205 1.034-1.846.959-4.048 2.434-5.148 3.19-1.916-2.093-5.175-6.395-7.248-8.539-2.74-2.834-8.28-6.782-8.28-6.782zm.423 27.77c.064 1.736.214 3.26.512 4.303.05.172.094.312.141.469-.412.263-.864.606-1.142.992-.481.665-2.482 4.178-3.552 6.025-.558.465-1.064.887-1.165.988-.125.125-.513.477-.87.798a8.346 8.346 0 01-.98-2.992c-.142-1.134-.237-4.96-.237-4.96s2.646-2.174 3.827-3.261c.757-.697 2.365-1.7 3.466-2.362zm-2.274 15.06a142.383 142.383 0 00-1.045 6.96c-.76 1.243-1.802 2.883-2.557 3.777-1.275 1.511-2.079 2.834-2.74 3.448-.153.143-.825.712-1.72 1.464.77-1.993 1.563-3.858 2.19-5.003 1.537-2.807 4.538-8.815 5.27-9.808.119-.16.377-.523.602-.838zM68.708 72.9c.167.89.324 1.631.461 2.133 1.04 3.78.757 8.126.568 9.449-.19 1.323-2.552 9.922-3.591 12.567-.76 1.934-1.571 4.17-2.505 6.377.038-3.343.167-6.874.35-8.624.245-2.347 1.89-14.122 2.925-20.585.13.36.263.73.37 1.015.6 1.604 1.937 4.143 1.937 4.143s-.423-2.715-.515-6.475zm-7.748 33.746s.119.882.309 2.036c-.101.236-.201.475-.302.717.042-1.272-.007-2.753-.007-2.753zm78.513 1.958c.214.497.402.962.511 1.32.016.01.078.014.172.014a304.7 304.7 0 011.92 4.58c-.459.393-.91.786-1.346 1.177-.348-1.943-.788-4.426-1.257-7.091zM56.577 145.51c-.07 1.919-.142 3.48-.22 3.952-.265 1.587-.511 6.38-.464 7.97.017.581.207 1.87.425 3.273-.623-2.267-1.875-5.132-1.875-6.547 0-1.684-.022-2.365-.022-2.365s.282.166.695-.512 1.057-4.092 1.057-4.934c0-.088.161-.404.404-.837zm.205 18.179c.223 1.46.401 2.747.401 3.334 0 .222-.072.75-.188 1.454a3.425 3.425 0 00-.12-.428s.053-2.255-.093-4.36zm-.31 7.647l-.036.18-.044-.006c0-.02.002-.046.001-.066l.004.01s.032-.048.074-.118z" fill="#702b00" fill-rule="evenodd"/></svg>