<svg xmlns="http://www.w3.org/2000/svg" width="621.878" height="196.771" clip-rule="evenodd" fill-rule="evenodd" stroke-linejoin="round" stroke-miterlimit="2"><path d="M75.776 54.716c-1.032 2.065-2.684 4.749-4.542 8.259-1.858 3.51-3.923 7.227-6.194 11.563-2.478 4.129-4.956 8.671-7.846 13.627-2.685 4.955-5.575 9.704-8.672 14.66-2.891 4.955-5.988 9.704-9.085 14.453-3.304 4.749-6.195 9.085-9.292 13.214 7.433-.826 14.247-2.684 21.06-5.575 6.815-2.89 13.009-6.607 18.997-11.15 5.78-4.335 11.15-9.29 16.105-14.659 4.749-5.575 8.878-11.15 12.388-17.137 3.51-5.782 6.194-11.77 8.053-17.757a49.199 49.199 0 002.89-16.725c0-4.336-.413-8.465-1.652-12.182-1.032-3.716-2.684-7.02-4.955-9.91-2.271-2.685-5.162-4.75-8.672-6.401-3.51-1.446-7.64-2.272-12.388-2.272-4.336 0-8.672.413-13.008 1.24-4.543.825-8.672 2.064-12.802 3.303-3.923 1.445-7.64 3.097-11.15 5.162-3.303 1.858-6.194 3.923-8.671 6.194a69.655 69.655 0 00-7.02 8.879c-2.065 2.89-4.13 5.574-6.195 7.846-1.858 2.477-3.923 4.336-6.4 5.78-2.272 1.446-4.956 2.272-8.053 2.272C2.891 57.4 0 54.716 0 49.76c0-3.303 1.032-6.813 3.304-10.53 2.064-3.716 4.955-7.433 8.672-11.15 3.716-3.51 8.052-7.02 13.214-10.53 5.162-3.303 10.943-6.4 17.137-8.878 5.988-2.684 12.595-4.749 19.616-6.194C68.963.826 76.189 0 83.623 0c8.465 0 16.104 1.445 22.505 3.923 6.401 2.478 11.563 5.988 15.899 10.53 4.13 4.543 7.226 9.705 9.291 15.692 2.065 6.195 3.097 12.595 3.097 19.616 0 7.02-1.239 14.246-3.716 22.092-2.271 7.64-5.782 15.073-10.324 22.506-4.749 7.433-10.324 14.453-17.137 21.06-6.814 6.608-14.454 12.596-23.332 17.551-8.672 4.955-18.376 9.085-29.113 11.976-10.53 2.89-22.093 4.542-34.481 4.542-2.685 0-4.75-1.032-6.401-2.684-1.446-1.652-2.271-3.717-2.271-6.194 0-2.065.413-3.923 1.032-5.782.62-1.858 1.445-3.51 2.684-4.955l41.295-82.384c2.065-3.097 3.923-5.368 5.781-7.226 2.065-1.859 3.717-3.304 5.369-4.336 1.652-1.033 3.097-1.652 4.542-1.859 1.24-.413 2.065-.413 2.89-.413 2.892 0 5.163.826 6.402 2.478 1.239 1.858 1.858 3.923 1.858 6.194 0 2.065-.207 4.13-1.032 6.195-.62 2.27-1.446 4.336-2.685 6.194zM172.228 90.023c-3.097 0-6.194.826-9.085 2.271-2.89 1.652-5.575 3.717-7.846 6.401a36.22 36.22 0 00-5.368 8.672c-1.24 3.304-1.859 6.607-1.859 10.117 0 1.24 0 2.685.207 4.13a17.14 17.14 0 001.239 4.336c.62 1.239 1.652 2.271 2.89 3.097 1.033 1.032 2.685 1.445 4.75 1.445 3.096 0 6.194-.826 9.084-2.477 2.89-1.652 5.575-3.923 7.846-6.401 2.271-2.684 3.923-5.781 5.369-9.085 1.238-3.304 2.064-6.814 2.064-10.117 0-1.446-.206-2.891-.413-4.336 0-1.446-.413-2.684-1.032-3.923a6.523 6.523 0 00-2.89-2.891c-1.24-.826-2.891-1.239-4.956-1.239zm5.368-17.757c2.478 0 5.162.413 8.053 1.033 3.097.62 5.781 1.858 8.259 3.51 2.478 1.445 4.542 3.716 6.194 6.4 1.652 2.478 2.478 5.782 2.478 9.705 0 2.065-.413 4.336-.826 7.02-.62 2.478-1.445 5.162-2.478 8.053.62.825 1.446 1.445 2.271 1.651 1.033.413 1.859.62 2.891.62 1.445 0 2.89-.413 4.749-1.24 1.652-.825 3.51-1.857 5.162-3.096l5.575-4.336c1.858-1.652 3.51-3.304 5.162-4.956 1.445-1.651 3.097-3.097 4.336-4.542 1.238-1.445 2.477-2.684 3.303-3.717.413-.413 1.033-.62 1.652-.62 1.032 0 1.858.414 2.478 1.446.826 1.033 1.239 2.271 1.239 4.13 0 1.652-.62 3.716-1.652 5.988-1.033 2.27-2.89 4.748-5.782 7.226-1.651 1.652-3.51 3.717-5.574 5.988-2.065 2.271-4.336 4.336-6.608 6.4-2.27 2.065-4.749 3.717-7.433 5.163-2.477 1.445-4.955 2.064-7.64 2.064-1.651 0-3.51-.206-4.955-.826-1.651-.413-3.51-1.238-5.162-2.477-2.27 3.716-5.161 7.02-8.259 10.117-3.097 3.097-6.4 5.781-10.323 8.053-3.717 2.27-7.846 3.923-12.182 5.161-4.543 1.24-9.085 1.859-14.04 1.859-2.065 0-4.13-.413-6.608-1.033a26.703 26.703 0 01-7.226-3.716c-2.272-1.652-4.13-3.923-5.575-6.607-1.652-2.891-2.272-6.195-2.272-10.118 0-2.684.413-5.988 1.24-9.704.825-3.717 2.27-7.64 3.922-11.77 1.859-3.922 4.13-7.845 6.814-11.768 2.684-3.923 5.988-7.433 9.704-10.53 3.717-3.304 8.053-5.782 13.008-7.64 4.75-1.858 10.118-2.89 16.105-2.89z" fill="#26374a" fill-rule="nonzero"/><path d="M236.04 116.452c-.619 1.445-1.445 3.304-2.064 5.368-.826 2.065-1.033 3.923-1.033 5.575 0 1.033.207 1.652.62 2.271.413.62 1.032 1.033 2.27 1.033 1.446 0 3.098-.413 5.163-1.24 2.271-.825 4.542-2.064 7.02-3.303 2.478-1.445 4.955-3.097 7.64-4.749 2.684-1.858 5.161-3.716 7.846-5.574 2.684-2.065 5.161-3.923 7.433-5.782 2.477-1.858 4.542-3.716 6.4-5.368.62-.413 1.24-.826 2.065-1.032.62-.207 1.239-.207 1.858-.207 1.446 0 2.478.413 3.304 1.445.826.826 1.445 2.065 1.445 3.717 0 1.445-.619 2.89-1.445 4.749-1.032 1.652-2.684 3.51-4.955 5.162a312.071 312.071 0 01-13.008 11.15 103.785 103.785 0 01-13.008 9.497c-4.336 2.684-8.672 4.956-13.008 6.401-4.336 1.652-8.466 2.478-12.389 2.478-2.89 0-5.162-.413-7.02-1.033-1.858-.826-3.303-1.858-4.336-3.097-1.239-1.239-1.858-2.684-2.477-4.542-.413-1.652-.62-3.51-.62-5.575 0-3.304.413-6.607 1.445-10.117 1.033-3.304 2.065-6.608 3.51-9.498 2.272-5.162 4.75-10.324 7.02-15.692 2.478-5.162 4.75-9.911 6.814-14.04l30.559-65.04c1.238-2.685 2.684-4.543 4.749-5.575 2.064-1.033 4.13-1.652 6.194-1.652 2.065 0 4.13.62 5.781 1.652 1.652 1.239 2.478 3.097 2.478 5.575 0 1.239-.207 2.477-.826 3.923-.413 1.239-1.239 2.684-2.065 4.336a489.185 489.185 0 00-5.988 11.562c-2.477 4.543-4.955 9.498-7.433 14.866-2.684 5.369-5.368 10.944-8.259 16.725-2.684 5.988-5.575 11.563-8.259 17.137-2.477 5.369-4.955 10.737-7.433 15.693-2.271 4.955-4.336 9.084-5.988 12.801z" fill="#26374a" fill-rule="nonzero"/><path d="M378.883 98.282c1.033-.62 1.859-1.032 2.685-1.445.826-.207 1.651-.413 2.27-.413 1.446 0 2.685.413 3.304 1.652.826 1.032 1.24 2.477 1.24 4.13 0 1.651-.414 3.51-1.446 5.161-.826 1.858-2.271 3.51-4.13 4.543a1862.343 1862.343 0 00-19.202 14.866c-5.575 4.336-10.943 8.259-15.898 11.356-4.956 3.303-9.911 5.781-14.66 7.433-4.749 1.652-9.91 2.684-15.28 2.684-5.161 0-9.084-1.032-11.975-2.89-2.684-1.859-4.13-4.543-4.13-7.847v-1.445c.414-2.065 1.446-4.336 3.098-7.02 1.858-2.684 4.13-5.368 6.607-8.259 2.684-2.684 5.368-5.575 8.26-8.466 2.89-2.89 5.574-5.574 8.052-8.259a139.157 139.157 0 005.987-7.02c1.652-2.27 2.478-3.923 2.478-5.368 0-.826-.413-1.445-1.032-1.858-.62-.413-1.859-.62-3.304-.62-2.684 0-5.575.413-8.259 1.652-2.89 1.239-5.781 2.684-8.465 4.749-2.891 2.065-5.575 4.336-8.26 6.814a68.711 68.711 0 00-7.433 8.052c-2.27 2.684-4.542 5.369-6.4 8.26-1.859 2.683-3.51 5.368-4.956 7.639-.413.826-.826 1.858-1.651 3.097l-5.162 9.704c-1.033 1.859-1.859 3.51-2.684 5.162l-2.065 4.13c-.826 1.238-1.24 2.27-1.446 2.684-.413.62-.825 1.652-1.651 3.303-.826 1.859-1.652 3.717-2.685 5.988-1.032 2.271-2.064 4.543-3.097 7.02-1.239 2.478-2.27 4.956-3.303 7.227-.826 2.065-1.652 4.13-2.478 5.781-.826 1.652-1.239 2.89-1.445 3.51-.62 1.652-1.446 3.304-2.272 4.75-1.032 1.651-2.064 3.096-3.097 4.129-1.239 1.239-2.684 2.271-4.13 2.89-1.444.62-3.303 1.033-5.161 1.033-2.271 0-4.336-.413-5.988-1.446-1.445-1.032-2.271-2.89-2.271-5.574 0-1.446.206-2.685.62-4.13.412-1.445.825-2.89 1.445-4.13l3.716-7.845c3.51-6.814 7.227-13.421 10.943-20.235 3.923-6.814 7.434-13.42 10.944-20.028 3.51-6.607 6.607-13.214 9.704-19.615 2.89-6.4 5.368-12.389 7.227-18.376.619-1.24 1.238-2.891 2.27-5.162.827-2.065 2.066-4.336 3.304-6.401 1.033-2.271 2.478-4.13 3.923-5.575 1.652-1.652 3.304-2.478 4.956-2.478 2.684 0 4.542.62 5.781 1.652 1.239 1.033 1.858 2.478 1.858 4.543 0 .413 0 1.032-.206 1.858-.207.826-.207 1.858-.413 2.89-.206.826-.413 1.859-.826 2.685-.206.826-.413 1.445-.62 1.858a139.028 139.028 0 018.053-6.814c2.89-2.27 5.988-4.13 9.085-5.987 3.097-1.859 6.194-3.304 9.498-4.543 3.097-1.032 6.4-1.652 9.704-1.652 2.065 0 4.336.207 6.608.826 2.064.62 4.129 1.24 5.78 2.271 1.653 1.033 3.098 2.478 4.13 3.923 1.033 1.652 1.652 3.51 1.652 5.575 0 2.684-.826 5.782-2.478 8.879-1.651 3.097-3.716 6.194-6.194 9.291a86.614 86.614 0 01-8.052 9.291c-2.891 3.098-5.575 5.782-8.053 8.26-2.684 2.477-4.749 4.542-6.4 6.194-1.652 1.652-2.685 2.89-2.685 3.51 0 .826.207 1.445.826 1.858.62.62 1.652.826 3.097.826 1.033 0 2.89-.62 4.956-1.652 2.27-1.032 5.368-2.89 9.497-5.575 3.924-2.684 8.879-6.194 15.073-10.736 6.194-4.336 13.834-10.118 22.712-16.725z" fill="#26374a" fill-rule="nonzero"/><path d="M361.337 129.666c1.652-3.51 3.51-7.226 5.575-11.562 2.065-4.13 4.336-8.26 6.4-12.389 2.066-4.13 4.13-8.052 5.989-11.769l4.749-9.498 33.242-65.452c.413-1.033 1.033-1.859 1.858-2.478a15.592 15.592 0 012.891-2.271c1.032-.62 2.271-1.24 3.304-1.446a11.692 11.692 0 013.716-.619c2.89 0 4.956.62 6.194 1.652 1.033 1.032 1.652 2.478 1.652 4.13 0 1.445-.413 3.096-1.032 4.748-.826 1.652-1.652 3.097-2.478 4.543-3.097 4.955-5.988 10.117-8.672 15.279l-8.052 15.486c-2.684 5.161-5.575 10.323-8.26 15.485-2.683 5.162-5.574 10.324-8.671 15.28 1.858-1.859 3.923-3.717 5.988-5.576 2.064-2.064 4.336-3.716 6.813-5.368 2.478-1.652 5.369-2.89 8.26-3.923 2.89-1.032 6.193-1.652 9.91-1.652 2.065 0 4.13.207 6.194.62 1.859.413 3.51 1.032 5.162 1.858 1.445 1.032 2.478 2.271 3.51 3.923.826 1.445 1.24 3.51 1.24 5.781 0 2.891-.414 5.782-1.446 8.26-.826 2.477-2.065 4.955-3.304 7.226-1.445 2.065-3.097 4.336-4.749 6.4-1.652 2.065-3.303 4.13-4.749 6.195-1.445 2.065-2.89 4.336-3.923 6.607-1.239 2.271-1.858 4.75-2.064 7.433v.413c-.207.207-.207.207-.207.413 0 1.445.62 2.271 1.445 2.478.826.413 2.065.62 3.51.62 1.859 0 3.717-.414 5.782-1.033 2.065-.826 4.13-1.652 6.4-2.89 2.065-1.24 4.13-2.478 6.195-3.924 2.271-1.445 4.13-3.097 6.194-4.542 1.858-1.652 3.51-3.097 5.162-4.543 1.652-1.445 3.097-2.684 4.13-3.716.619-.62 1.238-1.033 2.064-1.24.62-.412 1.239-.412 1.858-.412 1.24 0 2.272.413 3.098 1.239.825 1.032 1.238 2.271 1.238 3.716 0 1.446-.413 3.098-1.445 4.956-1.032 1.652-2.684 3.51-4.955 5.368-3.717 3.304-7.64 6.4-11.356 9.292-3.924 2.89-7.64 5.574-11.563 7.846-3.923 2.27-7.846 4.13-11.77 5.368-3.716 1.445-7.639 2.065-11.355 2.065-4.75 0-8.466-1.033-11.356-3.304-2.891-2.065-4.336-5.575-4.336-10.324 0-3.303.619-6.607 1.651-9.704 1.24-3.097 2.685-5.988 4.336-8.878 1.859-2.891 3.717-5.575 5.575-8.26 1.858-2.684 3.717-5.161 5.162-7.846.826-1.032 1.445-2.064 1.858-3.097a8.285 8.285 0 00.62-3.097c0-1.032-.207-1.858-.826-2.477-.413-.62-1.445-1.033-2.478-1.033-3.923 0-7.64 1.033-10.943 2.89-3.51 2.066-6.607 4.543-9.291 7.434-2.891 3.097-5.575 6.4-7.846 9.91-2.478 3.717-4.75 7.02-6.814 10.324-1.033 1.652-1.858 3.304-2.89 5.162-1.033 1.859-2.066 3.923-3.098 5.988-1.032 1.858-2.065 3.923-3.097 5.988-1.239 1.858-2.478 3.716-3.717 5.162-1.238 1.652-2.477 2.89-3.923 3.716-1.238 1.033-2.684 1.446-4.336 1.446-2.27 0-4.13-.62-5.368-2.065-1.239-1.239-1.858-3.097-1.858-5.162 0-1.445.206-3.097.826-4.955.413-1.652 1.445-3.717 2.477-6.195z" fill="#26374a" fill-rule="nonzero"/><path d="M485.942 58.432c0-1.651.206-3.303.825-4.955.62-1.652 1.446-3.097 2.685-4.336 1.032-1.445 2.477-2.478 4.13-3.304 1.857-1.032 3.716-1.445 6.193-1.445 3.923 0 6.608.826 8.053 2.271 1.652 1.652 2.478 3.51 2.478 5.782 0 1.239-.413 2.684-.826 4.13-.413 1.651-1.24 3.096-2.272 4.335-1.032 1.239-2.27 2.478-3.923 3.304-1.651.826-3.51 1.239-5.78 1.239-4.13 0-7.021-.62-8.673-1.859-1.858-1.445-2.684-3.097-2.89-5.162zm-11.15 22.506c1.239-1.858 2.478-3.097 3.923-3.923 1.445-.826 3.097-1.239 4.542-1.239 2.685 0 4.75.826 6.608 2.478 1.858 1.652 2.89 3.717 2.89 6.4-.206.62-.206 1.033-.413 1.653 0 .619-.206 1.238-.62 1.858-.825 1.858-1.651 3.303-2.27 4.542-.62 1.24-1.24 2.272-1.652 3.304l-3.097 6.607c-.826 1.858-1.859 3.51-2.891 5.575-.826 2.065-1.858 4.13-2.89 6.194-.827 2.065-1.652 4.13-2.272 5.988a19.191 19.191 0 00-.826 5.575c0 1.858.413 3.097 1.24 3.716 1.031.413 2.27.826 3.922.826 1.858 0 3.923-.413 5.988-1.239a43.336 43.336 0 006.194-3.097c2.065-1.239 4.13-2.89 5.988-4.336 2.065-1.651 3.923-3.51 5.781-5.162 1.859-1.651 3.51-3.303 4.956-4.748 1.445-1.652 2.684-2.891 3.716-4.13 1.446-1.239 2.684-1.858 4.13-1.858 1.239 0 2.064.413 2.89 1.445.826 1.239 1.24 2.478 1.24 4.13 0 1.651-.414 3.303-1.24 4.955-.826 1.858-2.064 3.51-3.716 4.955-3.51 3.51-7.02 6.814-10.53 10.118-3.51 3.097-7.227 5.987-10.944 8.465a57.496 57.496 0 01-11.15 5.781c-3.922 1.652-7.639 2.272-11.562 2.272-5.368 0-9.704-1.446-12.801-4.13-3.097-2.89-4.543-7.226-4.543-13.008 0-3.097.413-6.194 1.24-9.085.825-3.097 1.857-5.781 3.096-8.672 1.239-2.684 2.478-5.574 3.923-8.052 1.24-2.684 2.478-5.162 3.304-7.433.413-.826 1.032-2.271 1.858-3.923.826-1.859 1.652-3.717 2.684-5.575 1.033-2.271 2.065-4.543 3.304-7.227z" fill="#26374a" fill-rule="nonzero"/><path d="M526.074 84.448c1.445-2.89 3.097-5.162 5.162-6.607 2.065-1.239 3.923-2.065 5.988-2.065 1.445 0 2.89.62 4.336 1.859 1.238 1.032 1.858 2.89 1.858 5.162 0 .825-.207 1.858-.413 2.684-.207 1.032-.413 2.27-1.032 3.303 1.445-1.858 3.51-3.716 6.4-5.781 2.684-2.065 5.782-3.717 9.085-5.368 3.304-1.652 6.814-2.891 10.324-3.923a34.88 34.88 0 019.91-1.446c3.717 0 6.608.826 9.086 2.478 2.27 1.858 3.51 4.749 3.51 8.878 0 2.272-.413 4.956-1.033 7.434-.826 2.684-1.858 5.368-2.89 7.846-1.24 2.684-2.478 5.368-3.923 7.846-1.446 2.477-2.891 4.749-4.336 7.02-1.446 2.271-2.684 4.336-3.923 6.194-1.24 1.858-2.065 3.304-2.684 4.543-1.033 1.032-1.446 2.27-1.446 3.716 0 .62.207 1.032.62 1.445.206.413.826.62 1.651.62.413 0 .826 0 1.446-.207.62 0 1.445-.413 2.271-1.032a131.56 131.56 0 0011.15-4.955c3.716-2.065 7.433-4.336 10.943-6.401 3.51-2.271 6.607-4.543 9.704-6.814 2.89-2.271 5.368-4.336 7.227-6.194.62-.413 1.032-.826 1.652-1.032.413-.207 1.032-.207 1.445-.207 1.239 0 2.065.413 2.684 1.239.62.826 1.032 2.065 1.032 3.304 0 2.064-.619 4.542-2.064 7.02-1.24 2.477-3.304 4.955-6.195 7.226a557.504 557.504 0 01-10.53 7.433c-3.097 2.272-6.4 4.543-9.704 6.401-3.304 2.065-7.02 3.923-10.737 5.575-3.716 1.858-8.259 3.304-13.42 4.749-1.653.62-3.304 1.032-4.75 1.239-1.445.413-2.684.413-3.923.413-3.51 0-6.194-1.033-7.846-2.891-1.652-2.065-2.477-4.749-2.477-8.259v-1.445c.206-.413.206-1.033.206-1.446.207-2.064.62-4.336 1.652-6.813a125.608 125.608 0 013.51-7.64c1.445-2.684 2.89-5.368 4.336-7.846a165.709 165.709 0 004.336-7.433 46.477 46.477 0 003.303-6.194c.826-1.859 1.24-3.304 1.24-4.336 0-1.033-.207-1.859-.827-2.684-.413-.62-1.445-1.033-2.477-1.033-4.336 0-8.466 1.239-12.389 3.923-3.716 2.478-7.433 5.575-10.736 9.292-3.304 3.716-6.401 7.64-9.292 11.975-2.89 4.13-5.368 7.846-7.433 11.15-1.445 2.065-2.478 4.542-3.717 7.02-1.032 2.478-2.27 4.955-3.51 7.02-1.238 2.271-2.477 4.13-3.923 5.575-1.651 1.445-3.51 2.065-5.78 2.065-2.272 0-4.13-.62-5.576-2.272-1.239-1.445-2.065-3.097-2.065-5.368 0-1.032.62-2.89 1.446-5.575 1.032-2.477 2.271-5.368 3.716-8.878 1.446-3.304 3.097-6.814 4.956-10.737 1.858-3.923 3.716-7.64 5.575-11.562 1.858-3.717 3.51-7.434 5.161-10.737 1.859-3.304 3.098-6.194 4.13-8.466z" fill="#26374a" fill-rule="nonzero"/></svg>