<?xml version="1.0" encoding="UTF-8" standalone="no"?>
<svg
   xmlns:dc="http://purl.org/dc/elements/1.1/"
   xmlns:cc="http://creativecommons.org/ns#"
   xmlns:rdf="http://www.w3.org/1999/02/22-rdf-syntax-ns#"
   xmlns:svg="http://www.w3.org/2000/svg"
   xmlns="http://www.w3.org/2000/svg"
   xmlns:sodipodi="http://sodipodi.sourceforge.net/DTD/sodipodi-0.dtd"
   xmlns:inkscape="http://www.inkscape.org/namespaces/inkscape"
   width="621.87848"
   height="196.77081"
   viewBox="0 0 621.87848 196.77081"
   version="1.1"
   xml:space="preserve"
   style="clip-rule:evenodd;fill-rule:evenodd;stroke-linejoin:round;stroke-miterlimit:2"
   id="svg32"
   sodipodi:docname="dolphin-w.svg"
   inkscape:version="0.92.4 (5da689c313, 2019-01-14)"><metadata
   id="metadata38"><rdf:RDF><cc:Work
       rdf:about=""><dc:format>image/svg+xml</dc:format><dc:type
         rdf:resource="http://purl.org/dc/dcmitype/StillImage" /><dc:title></dc:title></cc:Work></rdf:RDF></metadata><defs
   id="defs36" /><sodipodi:namedview
   pagecolor="#ffffff"
   bordercolor="#666666"
   borderopacity="1"
   objecttolerance="10"
   gridtolerance="10"
   guidetolerance="10"
   inkscape:pageopacity="0"
   inkscape:pageshadow="2"
   inkscape:window-width="1920"
   inkscape:window-height="965"
   id="namedview34"
   showgrid="false"
   fit-margin-top="0"
   fit-margin-left="0"
   fit-margin-right="0"
   fit-margin-bottom="0"
   inkscape:zoom="0.921875"
   inkscape:cx="184.86291"
   inkscape:cy="206.93061"
   inkscape:window-x="-8"
   inkscape:window-y="-8"
   inkscape:window-maximized="1"
   inkscape:current-layer="svg32" />
    <g
   transform="matrix(2.22081,0,0,2.22081,-780.44076,-307.06275)"
   id="g30"
   style="fill:#ffffff;fill-opacity:1">
        <g
   transform="matrix(92.9729,0,0,92.9729,343.426,203.812)"
   id="g4"
   style="fill:#ffffff;fill-opacity:1">
            <path
   d="M 0.453,-0.44 C 0.448,-0.43 0.44,-0.417 0.431,-0.4 0.422,-0.383 0.412,-0.365 0.401,-0.344 0.389,-0.324 0.377,-0.302 0.363,-0.278 0.35,-0.254 0.336,-0.231 0.321,-0.207 0.307,-0.183 0.292,-0.16 0.277,-0.137 0.261,-0.114 0.247,-0.093 0.232,-0.073 0.268,-0.077 0.301,-0.086 0.334,-0.1 0.367,-0.114 0.397,-0.132 0.426,-0.154 0.454,-0.175 0.48,-0.199 0.504,-0.225 c 0.023,-0.027 0.043,-0.054 0.06,-0.083 0.017,-0.028 0.03,-0.057 0.039,-0.086 0.01,-0.028 0.014,-0.055 0.014,-0.081 0,-0.021 -0.002,-0.041 -0.008,-0.059 C 0.604,-0.552 0.596,-0.568 0.585,-0.582 0.574,-0.595 0.56,-0.605 0.543,-0.613 0.526,-0.62 0.506,-0.624 0.483,-0.624 c -0.021,0 -0.042,0.002 -0.063,0.006 -0.022,0.004 -0.042,0.01 -0.062,0.016 -0.019,0.007 -0.037,0.015 -0.054,0.025 -0.016,0.009 -0.03,0.019 -0.042,0.03 -0.013,0.014 -0.024,0.028 -0.034,0.043 -0.01,0.014 -0.02,0.027 -0.03,0.038 -0.009,0.012 -0.019,0.021 -0.031,0.028 -0.011,0.007 -0.024,0.011 -0.039,0.011 -0.028,0 -0.042,-0.013 -0.042,-0.037 0,-0.016 0.005,-0.033 0.016,-0.051 0.01,-0.018 0.024,-0.036 0.042,-0.054 0.018,-0.017 0.039,-0.034 0.064,-0.051 0.025,-0.016 0.053,-0.031 0.083,-0.043 0.029,-0.013 0.061,-0.023 0.095,-0.03 0.034,-0.008 0.069,-0.012 0.105,-0.012 0.041,0 0.078,0.007 0.109,0.019 0.031,0.012 0.056,0.029 0.077,0.051 0.02,0.022 0.035,0.047 0.045,0.076 0.01,0.03 0.015,0.061 0.015,0.095 0,0.034 -0.006,0.069 -0.018,0.107 -0.011,0.037 -0.028,0.073 -0.05,0.109 -0.023,0.036 -0.05,0.07 -0.083,0.102 -0.033,0.032 -0.07,0.061 -0.113,0.085 C 0.431,-0.037 0.384,-0.017 0.332,-0.003 0.281,0.011 0.225,0.019 0.165,0.019 0.152,0.019 0.142,0.014 0.134,0.006 0.127,-0.002 0.123,-0.012 0.123,-0.024 c 0,-0.01 0.002,-0.019 0.005,-0.028 0.003,-0.009 0.007,-0.017 0.013,-0.024 l 0.2,-0.399 C 0.351,-0.49 0.36,-0.501 0.369,-0.51 0.379,-0.519 0.387,-0.526 0.395,-0.531 0.403,-0.536 0.41,-0.539 0.417,-0.54 c 0.006,-0.002 0.01,-0.002 0.014,-0.002 0.014,0 0.025,0.004 0.031,0.012 0.006,0.009 0.009,0.019 0.009,0.03 0,0.01 -0.001,0.02 -0.005,0.03 -0.003,0.011 -0.007,0.021 -0.013,0.03 z"
   style="fill:#ffffff;fill-rule:nonzero;fill-opacity:1"
   id="path2"
   inkscape:connector-curvature="0" />
        </g>
        <g
   transform="matrix(92.9729,0,0,92.9729,406.846,203.812)"
   id="g8"
   style="fill:#ffffff;fill-opacity:1">
            <path
   d="m 0.238,-0.269 c -0.015,0 -0.03,0.004 -0.044,0.011 -0.014,0.008 -0.027,0.018 -0.038,0.031 -0.01,0.012 -0.019,0.026 -0.026,0.042 -0.006,0.016 -0.009,0.032 -0.009,0.049 0,0.006 0,0.013 0.001,0.02 0.001,0.007 0.003,0.014 0.006,0.021 0.003,0.006 0.008,0.011 0.014,0.015 0.005,0.005 0.013,0.007 0.023,0.007 0.015,0 0.03,-0.004 0.044,-0.012 0.014,-0.008 0.027,-0.019 0.038,-0.031 0.011,-0.013 0.019,-0.028 0.026,-0.044 0.006,-0.016 0.01,-0.033 0.01,-0.049 0,-0.007 -0.001,-0.014 -0.002,-0.021 0,-0.007 -0.002,-0.013 -0.005,-0.019 C 0.273,-0.255 0.268,-0.26 0.262,-0.263 0.256,-0.267 0.248,-0.269 0.238,-0.269 Z m 0.026,-0.086 c 0.012,0 0.025,0.002 0.039,0.005 0.015,0.003 0.028,0.009 0.04,0.017 0.012,0.007 0.022,0.018 0.03,0.031 0.008,0.012 0.012,0.028 0.012,0.047 0,0.01 -0.002,0.021 -0.004,0.034 -0.003,0.012 -0.007,0.025 -0.012,0.039 0.003,0.004 0.007,0.007 0.011,0.008 0.005,0.002 0.009,0.003 0.014,0.003 0.007,0 0.014,-0.002 0.023,-0.006 0.008,-0.004 0.017,-0.009 0.025,-0.015 0.009,-0.007 0.018,-0.014 0.027,-0.021 0.009,-0.008 0.017,-0.016 0.025,-0.024 0.007,-0.008 0.015,-0.015 0.021,-0.022 0.006,-0.007 0.012,-0.013 0.016,-0.018 0.002,-0.002 0.005,-0.003 0.008,-0.003 0.005,0 0.009,0.002 0.012,0.007 0.004,0.005 0.006,0.011 0.006,0.02 0,0.008 -0.003,0.018 -0.008,0.029 -0.005,0.011 -0.014,0.023 -0.028,0.035 -0.008,0.008 -0.017,0.018 -0.027,0.029 -0.01,0.011 -0.021,0.021 -0.032,0.031 -0.011,0.01 -0.023,0.018 -0.036,0.025 -0.012,0.007 -0.024,0.01 -0.037,0.01 -0.008,0 -0.017,-0.001 -0.024,-0.004 C 0.357,-0.1 0.348,-0.104 0.34,-0.11 0.329,-0.092 0.315,-0.076 0.3,-0.061 0.285,-0.046 0.269,-0.033 0.25,-0.022 0.232,-0.011 0.212,-0.003 0.191,0.003 0.169,0.009 0.147,0.012 0.123,0.012 0.113,0.012 0.103,0.01 0.091,0.007 0.079,0.003 0.067,-0.003 0.056,-0.011 0.045,-0.019 0.036,-0.03 0.029,-0.043 0.021,-0.057 0.018,-0.073 0.018,-0.092 c 0,-0.013 0.002,-0.029 0.006,-0.047 0.004,-0.018 0.011,-0.037 0.019,-0.057 0.009,-0.019 0.02,-0.038 0.033,-0.057 0.013,-0.019 0.029,-0.036 0.047,-0.051 0.018,-0.016 0.039,-0.028 0.063,-0.037 0.023,-0.009 0.049,-0.014 0.078,-0.014 z"
   style="fill:#ffffff;fill-rule:nonzero;fill-opacity:1"
   id="path6"
   inkscape:connector-curvature="0" />
        </g>
        <g
   transform="matrix(92.9729,0,0,92.9729,445.342,203.812)"
   id="g12"
   style="fill:#ffffff;fill-opacity:1">
            <path
   d="m 0.133,-0.141 c -0.003,0.007 -0.007,0.016 -0.01,0.026 -0.004,0.01 -0.005,0.019 -0.005,0.027 0,0.005 0.001,0.008 0.003,0.011 0.002,0.003 0.005,0.005 0.011,0.005 0.007,0 0.015,-0.002 0.025,-0.006 0.011,-0.004 0.022,-0.01 0.034,-0.016 0.012,-0.007 0.024,-0.015 0.037,-0.023 0.013,-0.009 0.025,-0.018 0.038,-0.027 0.013,-0.01 0.025,-0.019 0.036,-0.028 0.012,-0.009 0.022,-0.018 0.031,-0.026 0.003,-0.002 0.006,-0.004 0.01,-0.005 0.003,-10e-4 0.006,-10e-4 0.009,-10e-4 0.007,0 0.012,0.002 0.016,0.007 0.004,0.004 0.007,0.01 0.007,0.018 0,0.007 -0.003,0.014 -0.007,0.023 C 0.363,-0.148 0.355,-0.139 0.344,-0.131 0.323,-0.112 0.302,-0.094 0.281,-0.077 0.26,-0.059 0.239,-0.044 0.218,-0.031 0.197,-0.018 0.176,-0.007 0.155,0 0.134,0.008 0.114,0.012 0.095,0.012 0.081,0.012 0.07,0.01 0.061,0.007 0.052,0.003 0.045,-0.002 0.04,-0.008 0.034,-0.014 0.031,-0.021 0.028,-0.03 0.026,-0.038 0.025,-0.047 0.025,-0.057 c 0,-0.016 0.002,-0.032 0.007,-0.049 0.005,-0.016 0.01,-0.032 0.017,-0.046 0.011,-0.025 0.023,-0.05 0.034,-0.076 0.012,-0.025 0.023,-0.048 0.033,-0.068 l 0.148,-0.315 c 0.006,-0.013 0.013,-0.022 0.023,-0.027 0.01,-0.005 0.02,-0.008 0.03,-0.008 0.01,0 0.02,0.003 0.028,0.008 0.008,0.006 0.012,0.015 0.012,0.027 0,0.006 -0.001,0.012 -0.004,0.019 -0.002,0.006 -0.006,0.013 -0.01,0.021 -0.008,0.015 -0.018,0.034 -0.029,0.056 -0.012,0.022 -0.024,0.046 -0.036,0.072 -0.013,0.026 -0.026,0.053 -0.04,0.081 -0.013,0.029 -0.027,0.056 -0.04,0.083 -0.012,0.026 -0.024,0.052 -0.036,0.076 -0.011,0.024 -0.021,0.044 -0.029,0.062 z"
   style="fill:#ffffff;fill-rule:nonzero;fill-opacity:1"
   id="path10"
   inkscape:connector-curvature="0" />
        </g>
        <g
   transform="matrix(92.9729,0,0,92.9729,469.312,203.812)"
   id="g16"
   style="fill:#ffffff;fill-opacity:1">
            <path
   d="m 0.567,-0.229 c 0.005,-0.003 0.009,-0.005 0.013,-0.007 0.004,-0.001 0.008,-0.002 0.011,-0.002 0.007,0 0.013,0.002 0.016,0.008 0.004,0.005 0.006,0.012 0.006,0.02 0,0.008 -0.002,0.017 -0.007,0.025 -0.004,0.009 -0.011,0.017 -0.02,0.022 -0.034,0.026 -0.065,0.05 -0.093,0.072 C 0.466,-0.07 0.44,-0.051 0.416,-0.036 0.392,-0.02 0.368,-0.008 0.345,0 0.322,0.008 0.297,0.013 0.271,0.013 0.246,0.013 0.227,0.008 0.213,-0.001 0.2,-0.01 0.193,-0.023 0.193,-0.039 V -0.046 C 0.195,-0.056 0.2,-0.067 0.208,-0.08 0.217,-0.093 0.228,-0.106 0.24,-0.12 0.253,-0.133 0.266,-0.147 0.28,-0.161 0.294,-0.175 0.307,-0.188 0.319,-0.201 0.33,-0.213 0.34,-0.225 0.348,-0.235 0.356,-0.246 0.36,-0.254 0.36,-0.261 0.36,-0.265 0.358,-0.268 0.355,-0.27 0.352,-0.272 0.346,-0.273 0.339,-0.273 c -0.013,0 -0.027,0.002 -0.04,0.008 -0.014,0.006 -0.028,0.013 -0.041,0.023 -0.014,0.01 -0.027,0.021 -0.04,0.033 C 0.205,-0.197 0.193,-0.184 0.182,-0.17 0.171,-0.157 0.16,-0.144 0.151,-0.13 0.142,-0.117 0.134,-0.104 0.127,-0.093 0.125,-0.089 0.123,-0.084 0.119,-0.078 L 0.094,-0.031 C 0.089,-0.022 0.085,-0.014 0.081,-0.006 0.077,0.002 0.074,0.008 0.071,0.014 0.067,0.02 0.065,0.025 0.064,0.027 0.062,0.03 0.06,0.035 0.056,0.043 0.052,0.052 0.048,0.061 0.043,0.072 0.038,0.083 0.033,0.094 0.028,0.106 0.022,0.118 0.017,0.13 0.012,0.141 0.008,0.151 0.004,0.161 0,0.169 -0.004,0.177 -0.006,0.183 -0.007,0.186 -0.01,0.194 -0.014,0.202 -0.018,0.209 c -0.005,0.008 -0.01,0.015 -0.015,0.02 -0.006,0.006 -0.013,0.011 -0.02,0.014 -0.007,0.003 -0.016,0.005 -0.025,0.005 -0.011,0 -0.021,-0.002 -0.029,-0.007 -0.007,-0.005 -0.011,-0.014 -0.011,-0.027 0,-0.007 10e-4,-0.013 0.003,-0.02 0.002,-0.007 0.004,-0.014 0.007,-0.02 L -0.09,0.136 c 0.017,-0.033 0.035,-0.065 0.053,-0.098 0.019,-0.033 0.036,-0.065 0.053,-0.097 0.017,-0.032 0.032,-0.064 0.047,-0.095 0.014,-0.031 0.026,-0.06 0.035,-0.089 0.003,-0.006 0.006,-0.014 0.011,-0.025 0.004,-0.01 0.01,-0.021 0.016,-0.031 0.005,-0.011 0.012,-0.02 0.019,-0.027 0.008,-0.008 0.016,-0.012 0.024,-0.012 0.013,0 0.022,0.003 0.028,0.008 0.006,0.005 0.009,0.012 0.009,0.022 0,0.002 0,0.005 -0.001,0.009 -10e-4,0.004 -10e-4,0.009 -0.002,0.014 -0.001,0.004 -0.002,0.009 -0.004,0.013 -0.001,0.004 -0.002,0.007 -0.003,0.009 0.012,-0.011 0.025,-0.022 0.039,-0.033 0.014,-0.011 0.029,-0.02 0.044,-0.029 0.015,-0.009 0.03,-0.016 0.046,-0.022 0.015,-0.005 0.031,-0.008 0.047,-0.008 0.01,0 0.021,0.001 0.032,0.004 0.01,0.003 0.02,0.006 0.028,0.011 0.008,0.005 0.015,0.012 0.02,0.019 0.005,0.008 0.008,0.017 0.008,0.027 0,0.013 -0.004,0.028 -0.012,0.043 -0.008,0.015 -0.018,0.03 -0.03,0.045 -0.012,0.016 -0.025,0.031 -0.039,0.045 -0.014,0.015 -0.027,0.028 -0.039,0.04 -0.013,0.012 -0.023,0.022 -0.031,0.03 -0.008,0.008 -0.013,0.014 -0.013,0.017 0,0.004 0.001,0.007 0.004,0.009 0.003,0.003 0.008,0.004 0.015,0.004 0.005,0 0.014,-0.003 0.024,-0.008 0.011,-0.005 0.026,-0.014 0.046,-0.027 0.019,-0.013 0.043,-0.03 0.073,-0.052 0.03,-0.021 0.067,-0.049 0.11,-0.081 z"
   style="fill:#ffffff;fill-rule:nonzero;fill-opacity:1"
   id="path14"
   inkscape:connector-curvature="0" />
        </g>
        <g
   transform="matrix(92.9729,0,0,92.9729,513.755,203.812)"
   id="g20"
   style="fill:#ffffff;fill-opacity:1">
            <path
   d="m 0.004,-0.077 c 0.008,-0.017 0.017,-0.035 0.027,-0.056 0.01,-0.02 0.021,-0.04 0.031,-0.06 0.01,-0.02 0.02,-0.039 0.029,-0.057 0.009,-0.018 0.017,-0.034 0.023,-0.046 l 0.161,-0.317 c 0.002,-0.005 0.005,-0.009 0.009,-0.012 0.004,-0.004 0.009,-0.008 0.014,-0.011 0.005,-0.003 0.011,-0.006 0.016,-0.007 0.006,-0.002 0.012,-0.003 0.018,-0.003 0.014,0 0.024,0.003 0.03,0.008 0.005,0.005 0.008,0.012 0.008,0.02 0,0.007 -0.002,0.015 -0.005,0.023 -0.004,0.008 -0.008,0.015 -0.012,0.022 -0.015,0.024 -0.029,0.049 -0.042,0.074 -0.013,0.025 -0.026,0.05 -0.039,0.075 -0.013,0.025 -0.027,0.05 -0.04,0.075 -0.013,0.025 -0.027,0.05 -0.042,0.074 0.009,-0.009 0.019,-0.018 0.029,-0.027 0.01,-0.01 0.021,-0.018 0.033,-0.026 0.012,-0.008 0.026,-0.014 0.04,-0.019 0.014,-0.005 0.03,-0.008 0.048,-0.008 0.01,0 0.02,0.001 0.03,0.003 0.009,0.002 0.017,0.005 0.025,0.009 0.007,0.005 0.012,0.011 0.017,0.019 0.004,0.007 0.006,0.017 0.006,0.028 0,0.014 -0.002,0.028 -0.007,0.04 -0.004,0.012 -0.01,0.024 -0.016,0.035 C 0.388,-0.211 0.38,-0.2 0.372,-0.19 0.364,-0.18 0.356,-0.17 0.349,-0.16 0.342,-0.15 0.335,-0.139 0.33,-0.128 0.324,-0.117 0.321,-0.105 0.32,-0.092 v 0.002 c -0.001,0.001 -0.001,0.001 -0.001,0.002 0,0.007 0.003,0.011 0.007,0.012 0.004,0.002 0.01,0.003 0.017,0.003 0.009,0 0.018,-0.002 0.028,-0.005 0.01,-0.004 0.02,-0.008 0.031,-0.014 0.01,-0.006 0.02,-0.012 0.03,-0.019 0.011,-0.007 0.02,-0.015 0.03,-0.022 0.009,-0.008 0.017,-0.015 0.025,-0.022 0.008,-0.007 0.015,-0.013 0.02,-0.018 0.003,-0.003 0.006,-0.005 0.01,-0.006 0.003,-0.002 0.006,-0.002 0.009,-0.002 0.006,0 0.011,0.002 0.015,0.006 0.004,0.005 0.006,0.011 0.006,0.018 0,0.007 -0.002,0.015 -0.007,0.024 -0.005,0.008 -0.013,0.017 -0.024,0.026 -0.018,0.016 -0.037,0.031 -0.055,0.045 -0.019,0.014 -0.037,0.027 -0.056,0.038 -0.019,0.011 -0.038,0.02 -0.057,0.026 -0.018,0.007 -0.037,0.01 -0.055,0.01 -0.023,0 -0.041,-0.005 -0.055,-0.016 -0.014,-0.01 -0.021,-0.027 -0.021,-0.05 0,-0.016 0.003,-0.032 0.008,-0.047 0.006,-0.015 0.013,-0.029 0.021,-0.043 0.009,-0.014 0.018,-0.027 0.027,-0.04 0.009,-0.013 0.018,-0.025 0.025,-0.038 0.004,-0.005 0.007,-0.01 0.009,-0.015 0.002,-0.005 0.003,-0.01 0.003,-0.015 0,-0.005 -0.001,-0.009 -0.004,-0.012 -0.002,-0.003 -0.007,-0.005 -0.012,-0.005 -0.019,0 -0.037,0.005 -0.053,0.014 -0.017,0.01 -0.032,0.022 -0.045,0.036 -0.014,0.015 -0.027,0.031 -0.038,0.048 -0.012,0.018 -0.023,0.034 -0.033,0.05 -0.005,0.008 -0.009,0.016 -0.014,0.025 -0.005,0.009 -0.01,0.019 -0.015,0.029 -0.005,0.009 -0.01,0.019 -0.015,0.029 C 0.075,-0.029 0.069,-0.02 0.063,-0.013 0.057,-0.005 0.051,0.001 0.044,0.005 0.038,0.01 0.031,0.012 0.023,0.012 c -0.011,0 -0.02,-0.003 -0.026,-0.01 -0.006,-0.006 -0.009,-0.015 -0.009,-0.025 0,-0.007 0.001,-0.015 0.004,-0.024 0.002,-0.008 0.007,-0.018 0.012,-0.03 z"
   style="fill:#ffffff;fill-rule:nonzero;fill-opacity:1"
   id="path18"
   inkscape:connector-curvature="0" />
        </g>
        <g
   transform="matrix(92.9729,0,0,92.9729,554.522,203.812)"
   id="g24"
   style="fill:#ffffff;fill-opacity:1">
            <path
   d="m 0.169,-0.422 c 0,-0.008 0.001,-0.016 0.004,-0.024 0.003,-0.008 0.007,-0.015 0.013,-0.021 0.005,-0.007 0.012,-0.012 0.02,-0.016 0.009,-0.005 0.018,-0.007 0.03,-0.007 0.019,0 0.032,0.004 0.039,0.011 0.008,0.008 0.012,0.017 0.012,0.028 0,0.006 -0.002,0.013 -0.004,0.02 -0.002,0.008 -0.006,0.015 -0.011,0.021 -0.005,0.006 -0.011,0.012 -0.019,0.016 -0.008,0.004 -0.017,0.006 -0.028,0.006 -0.02,0 -0.034,-0.003 -0.042,-0.009 C 0.174,-0.404 0.17,-0.412 0.169,-0.422 Z m -0.054,0.109 c 0.006,-0.009 0.012,-0.015 0.019,-0.019 0.007,-0.004 0.015,-0.006 0.022,-0.006 0.013,0 0.023,0.004 0.032,0.012 0.009,0.008 0.014,0.018 0.014,0.031 C 0.201,-0.292 0.201,-0.29 0.2,-0.287 0.2,-0.284 0.199,-0.281 0.197,-0.278 0.193,-0.269 0.189,-0.262 0.186,-0.256 0.183,-0.25 0.18,-0.245 0.178,-0.24 l -0.015,0.032 c -0.004,0.009 -0.009,0.017 -0.014,0.027 -0.004,0.01 -0.009,0.02 -0.014,0.03 -0.004,0.01 -0.008,0.02 -0.011,0.029 -0.003,0.01 -0.004,0.019 -0.004,0.027 0,0.009 0.002,0.015 0.006,0.018 0.005,0.002 0.011,0.004 0.019,0.004 0.009,0 0.019,-0.002 0.029,-0.006 0.01,-0.004 0.02,-0.009 0.03,-0.015 0.01,-0.006 0.02,-0.014 0.029,-0.021 0.01,-0.008 0.019,-0.017 0.028,-0.025 0.009,-0.008 0.017,-0.016 0.024,-0.023 0.007,-0.008 0.013,-0.014 0.018,-0.02 0.007,-0.006 0.013,-0.009 0.02,-0.009 0.006,0 0.01,0.002 0.014,0.007 0.004,0.006 0.006,0.012 0.006,0.02 0,0.008 -0.002,0.016 -0.006,0.024 -0.004,0.009 -0.01,0.017 -0.018,0.024 C 0.302,-0.1 0.285,-0.084 0.268,-0.068 0.251,-0.053 0.233,-0.039 0.215,-0.027 0.197,-0.015 0.179,-0.006 0.161,0.001 0.142,0.009 0.124,0.012 0.105,0.012 0.079,0.012 0.058,0.005 0.043,-0.008 0.028,-0.022 0.021,-0.043 0.021,-0.071 c 0,-0.015 0.002,-0.03 0.006,-0.044 C 0.031,-0.13 0.036,-0.143 0.042,-0.157 0.048,-0.17 0.054,-0.184 0.061,-0.196 0.067,-0.209 0.073,-0.221 0.077,-0.232 0.079,-0.236 0.082,-0.243 0.086,-0.251 0.09,-0.26 0.094,-0.269 0.099,-0.278 0.104,-0.289 0.109,-0.3 0.115,-0.313 Z"
   style="fill:#ffffff;fill-rule:nonzero;fill-opacity:1"
   id="path22"
   inkscape:connector-curvature="0" />
        </g>
        <g
   transform="matrix(92.9729,0,0,92.9729,576.312,203.812)"
   id="g28"
   style="fill:#ffffff;fill-opacity:1">
            <path
   d="m 0.129,-0.296 c 0.007,-0.014 0.015,-0.025 0.025,-0.032 0.01,-0.006 0.019,-0.01 0.029,-0.01 0.007,0 0.014,0.003 0.021,0.009 0.006,0.005 0.009,0.014 0.009,0.025 0,0.004 -0.001,0.009 -0.002,0.013 -0.001,0.005 -0.002,0.011 -0.005,0.016 0.007,-0.009 0.017,-0.018 0.031,-0.028 0.013,-0.01 0.028,-0.018 0.044,-0.026 0.016,-0.008 0.033,-0.014 0.05,-0.019 0.017,-0.005 0.033,-0.007 0.048,-0.007 0.018,0 0.032,0.004 0.044,0.012 0.011,0.009 0.017,0.023 0.017,0.043 0,0.011 -0.002,0.024 -0.005,0.036 -0.004,0.013 -0.009,0.026 -0.014,0.038 -0.006,0.013 -0.012,0.026 -0.019,0.038 -0.007,0.012 -0.014,0.023 -0.021,0.034 -0.007,0.011 -0.013,0.021 -0.019,0.03 -0.006,0.009 -0.01,0.016 -0.013,0.022 -0.005,0.005 -0.007,0.011 -0.007,0.018 0,0.003 0.001,0.005 0.003,0.007 0.001,0.002 0.004,0.003 0.008,0.003 0.002,0 0.004,0 0.007,-0.001 0.003,0 0.007,-0.002 0.011,-0.005 0.018,-0.007 0.036,-0.015 0.054,-0.024 0.018,-0.01 0.036,-0.021 0.053,-0.031 0.017,-0.011 0.032,-0.022 0.047,-0.033 0.014,-0.011 0.026,-0.021 0.035,-0.03 0.003,-0.002 0.005,-0.004 0.008,-0.005 0.002,-10e-4 0.005,-10e-4 0.007,-10e-4 0.006,0 0.01,0.002 0.013,0.006 0.003,0.004 0.005,0.01 0.005,0.016 0,0.01 -0.003,0.022 -0.01,0.034 -0.006,0.012 -0.016,0.024 -0.03,0.035 C 0.535,-0.1 0.518,-0.088 0.502,-0.077 0.487,-0.066 0.471,-0.055 0.455,-0.046 0.439,-0.036 0.421,-0.027 0.403,-0.019 0.385,-0.01 0.363,-0.003 0.338,0.004 0.33,0.007 0.322,0.009 0.315,0.01 0.308,0.012 0.302,0.012 0.296,0.012 0.279,0.012 0.266,0.007 0.258,-0.002 0.25,-0.012 0.246,-0.025 0.246,-0.042 V -0.049 C 0.247,-0.051 0.247,-0.054 0.247,-0.056 0.248,-0.066 0.25,-0.077 0.255,-0.089 0.26,-0.101 0.266,-0.114 0.272,-0.126 0.279,-0.139 0.286,-0.152 0.293,-0.164 0.301,-0.177 0.308,-0.189 0.314,-0.2 0.321,-0.211 0.326,-0.221 0.33,-0.23 0.334,-0.239 0.336,-0.246 0.336,-0.251 0.336,-0.256 0.335,-0.26 0.332,-0.264 0.33,-0.267 0.325,-0.269 0.32,-0.269 c -0.021,0 -0.041,0.006 -0.06,0.019 -0.018,0.012 -0.036,0.027 -0.052,0.045 -0.016,0.018 -0.031,0.037 -0.045,0.058 -0.014,0.02 -0.026,0.038 -0.036,0.054 -0.007,0.01 -0.012,0.022 -0.018,0.034 -0.005,0.012 -0.011,0.024 -0.017,0.034 -0.006,0.011 -0.012,0.02 -0.019,0.027 -0.008,0.007 -0.017,0.01 -0.028,0.01 -0.011,0 -0.02,-0.003 -0.027,-0.011 -0.006,-0.007 -0.01,-0.015 -0.01,-0.026 0,-0.005 0.003,-0.014 0.007,-0.027 0.005,-0.012 0.011,-0.026 0.018,-0.043 0.007,-0.016 0.015,-0.033 0.024,-0.052 0.009,-0.019 0.018,-0.037 0.027,-0.056 0.009,-0.018 0.017,-0.036 0.025,-0.052 0.009,-0.016 0.015,-0.03 0.02,-0.041 z"
   style="fill:#ffffff;fill-rule:nonzero;fill-opacity:1"
   id="path26"
   inkscape:connector-curvature="0" />
        </g>
    </g>
</svg>