<svg xmlns="http://www.w3.org/2000/svg" width="600" height="60" viewBox="0 0 158.75 15.875"><path fill="#fff" paint-order="fill markers stroke" d="M0 0h158.75v15.875H0z"/><text y="292.568" x="38.168" style="line-height:1.25;-inkscape-font-specification:'OTADESIGN Rounded Bold';text-align:start" font-weight="700" font-size="15.323" font-family="OTADESIGN Rounded" letter-spacing="0" word-spacing="0" fill="#105779" stroke-width=".265" transform="translate(-3.302 -281.25)"><tspan style="-inkscape-font-specification:'OTADESIGN Rounded Bold';text-align:start" y="292.568" x="38.168">join.misskey.page</tspan></text><g stroke-width="8.236"><g aria-label="Mi" style="line-height:476.69509888px;-inkscape-font-specification:'OTADESIGN Rounded'" font-weight="400" font-size="141.034" font-family="OTADESIGN Rounded" letter-spacing="0" word-spacing="0" stroke-width="2.386" fill="#2fa1bb"><path d="M15.636 9.504a1.9 1.9 0 01-1.611-.926c-.154-.218-.459-.295-.463 0v1.366c0 .548-.2 1.023-.6 1.423a1.936 1.936 0 01-1.423.583 1.973 1.973 0 01-1.423-.583 1.973 1.973 0 01-.583-1.423v-7.51c0-.422.12-.805.36-1.148.252-.354.572-.6.96-.737.217-.08.446-.12.686-.12.617 0 1.131.24 1.543.72.217.24.343.366.377.377 0 0 1.63 1.971 1.675 2.005.046.035.18.297.502.297s.473-.262.519-.297c.046-.034 1.676-2.005 1.676-2.005.011.012.131-.114.36-.377.422-.48.942-.72 1.56-.72.228 0 .457.04.685.12.389.137.703.383.943.737.252.343.377.726.377 1.149v7.509c0 .548-.2 1.023-.6 1.423a1.936 1.936 0 01-1.423.583 1.973 1.973 0 01-1.422-.583 1.973 1.973 0 01-.583-1.423V8.578c-.034-.372-.363-.138-.48 0-.309.572-.9.924-1.612.926zM24.223 3.892q-.72 0-1.235-.497-.497-.514-.497-1.234t.497-1.218Q23.503.43 24.223.43q.72 0 1.234.514.514.498.514 1.218t-.514 1.234q-.514.497-1.234.497zm.017.343q.72 0 1.217.514.514.515.514 1.235v4.234q0 .72-.514 1.234-.497.498-1.217.498-.72 0-1.235-.498-.514-.514-.514-1.234V5.984q0-.72.514-1.235.515-.514 1.235-.514z" style="-inkscape-font-specification:'OTADESIGN Rounded'"/></g><path d="M20.632 8.116h-.004c-.039.023-.066.703-.08 1.639h-.676v4.052h.675c.016.935.042 1.616.081 1.638.127.073 6.346-3.518 6.346-3.664 0-.146-6.123-3.682-6.342-3.665z" fill="#f66e4f" paint-order="fill markers stroke"/></g></svg>