<svg xmlns="http://www.w3.org/2000/svg" viewBox="0 0 158.75 15.875" height="60" width="600"><path d="M0 0h158.75v15.875H0z" fill="#fff" paint-order="fill markers stroke"/><g style="line-height:1.25;-inkscape-font-specification:'OTADESIGN Rounded Bold';text-align:start" aria-label="join.misskey.page" font-weight="700" font-size="15.323" font-family="OTADESIGN Rounded" letter-spacing="0" word-spacing="0" fill="#105779" stroke-width=".265"><path style="-inkscape-font-specification:'OTADESIGN Rounded Bold';text-align:start" d="M38.666 4.208q-.644 0-1.103-.444-.445-.46-.445-1.103 0-.644.445-1.088.46-.46 1.103-.46.644 0 1.103.46.46.444.46 1.088 0 .643-.46 1.103-.46.444-1.103.444zm0 .291q.644 0 1.103.46.46.46.46 1.103v4.827q0 1.578-1.119 2.681-1.118 1.119-2.696 1.119-.644 0-1.104-.46-.444-.444-.444-1.088 0-.643.444-1.103.46-.444 1.104-.444.29 0 .49-.215.214-.199.214-.49V6.062q0-.643.445-1.103.46-.46 1.103-.46zM44.682 11.517q-1.563 0-2.682-1.118-1.119-1.119-1.119-2.697 0-1.563 1.119-2.682 1.119-1.118 2.682-1.118 1.578 0 2.696 1.118 1.119 1.119 1.119 2.682 0 1.578-1.119 2.697-1.118 1.118-2.696 1.118zm0-4.505q-.292 0-.49.2-.2.199-.2.49 0 .29.2.505.198.2.49.2.29 0 .49-.2.214-.214.214-.505 0-.291-.214-.49-.2-.2-.49-.2zM50.51 4.208q-.644 0-1.104-.444-.444-.46-.444-1.103 0-.644.444-1.088.46-.46 1.104-.46.643 0 1.103.46.46.444.46 1.088 0 .643-.46 1.103-.46.444-1.103.444zm.015.307q.643 0 1.088.46.46.459.46 1.103v3.784q0 .644-.46 1.104-.445.444-1.088.444-.644 0-1.103-.444-.46-.46-.46-1.104V6.078q0-.644.46-1.104.46-.46 1.103-.46zM58.725 11.425q-.643 0-1.103-.444-.444-.46-.444-1.119v-2.19q0-.292-.215-.491-.199-.2-.475-.2-.29 0-.505.2-.2.199-.2.49v2.207q0 .643-.46 1.103-.459.444-1.102.444-.644 0-1.104-.444-.444-.46-.444-1.119v-2.19q0-1.564 1.118-2.682 1.12-1.119 2.697-1.119 1.563 0 2.682 1.119 1.118 1.103 1.118 2.681v2.207q0 .643-.46 1.103-.459.444-1.103.444zM63.372 10.23q0 .536-.383.904-.368.368-.904.368-.52 0-.904-.368-.368-.368-.368-.904 0-.52.368-.889.383-.383.904-.383.536 0 .904.383.383.368.383.89zM73.38 6.95V10q0 .582-.414.996-.414.414-1.012.414-.582 0-.996-.414-.413-.414-.413-.996l.015-3.05q0-.229-.245-.229-.23 0-.23.23L70.07 10q0 .581-.414.995-.414.414-.996.414-.582 0-.996-.414-.414-.414-.414-.996V6.95q0-.229-.23-.229-.245 0-.245.23V10q0 .581-.414.995-.413.414-.996.414-.582 0-.996-.414-.413-.414-.413-.996V6.95q0-1.256.888-2.144.904-.904 2.176-.904.583 0 1.195.245.43.168 1.027-.046.521-.2 1.073-.2 1.271 0 2.16.905.904.888.904 2.145zM75.47 4.208q-.644 0-1.104-.444-.444-.46-.444-1.103 0-.644.444-1.088.46-.46 1.103-.46.644 0 1.103.46.46.444.46 1.088 0 .643-.46 1.103-.46.444-1.103.444zm.015.307q.643 0 1.087.46.46.459.46 1.103v3.784q0 .644-.46 1.104-.444.444-1.087.444-.644 0-1.104-.444-.46-.46-.46-1.104V6.078q0-.644.46-1.104.46-.46 1.104-.46zM80.452 6.445q.368.092.92.2.919.153 1.44.49.98.643.98 1.93 0 1.042-.69 1.701-.796.767-2.22.767-1.043 0-2.33-.292-.414-.092-.674-.413-.245-.322-.245-.72 0-.49.337-.828.352-.352.827-.352.138 0 .26.03.445.092 1.701.23.169 0 .368-.015.077 0 .077-.092.015-.077-.092-.107-.521-.092-.965-.2-.506-.107-.72-.183-.43-.123-.72-.322-.981-.644-.997-1.931 0-1.027.705-1.7.858-.828 2.436-.752 1.058.046 2.115.276.398.092.659.414.26.322.26.735 0 .475-.352.828-.337.337-.828.337-.122 0-.245-.03-.444-.093-1.716-.215-.153-.015-.291 0-.123.015-.123.092.016.092.123.122zM87.216 6.445q.367.092.919.2.92.153 1.44.49.981.643.981 1.93 0 1.042-.69 1.701-.796.767-2.221.767-1.042 0-2.33-.292-.413-.092-.674-.413-.245-.322-.245-.72 0-.49.337-.828.353-.352.828-.352.138 0 .26.03.445.092 1.701.23.169 0 .368-.015.076 0 .076-.092.016-.077-.091-.107-.521-.092-.966-.2-.505-.107-.72-.183-.429-.123-.72-.322-.98-.644-.996-1.931 0-1.027.705-1.7.858-.828 2.436-.752 1.057.046 2.115.276.398.092.659.414.26.322.26.735 0 .475-.352.828-.338.337-.828.337-.122 0-.245-.03-.444-.093-1.716-.215-.153-.015-.291 0-.123.015-.123.092.015.092.123.122zM97.12 7.702q.047.03 1.088 1.057.475.46.475 1.119 0 .613-.444 1.088-.444.46-1.103.46-.628 0-1.088-.445l-1.532-1.486q-.062-.046-.123-.046-.123 0-.123.46 0 .643-.46 1.102-.459.445-1.102.445-.644 0-1.104-.445-.444-.46-.444-1.103v-7.14q0-.644.444-1.088.46-.46 1.104-.46.643 0 1.103.46.46.444.46 1.088v2.39q0 .153.107.2.092.045.199-.031.061-.031 1.839-1.21.398-.246.858-.246.843 0 1.302.69.245.398.245.858 0 .842-.69 1.302l-.965.613v.015l-.03.016q-.215.138-.015.337zM103.086 11.533q-1.593 0-2.727-1.12Q99.24 9.28 99.24 7.687q0-1.578 1.119-2.696 1.134-1.134 2.727-1.134 1.579 0 2.651 1.057.353.352.353.858t-.353.858l-1.777 1.762q-.383.383-.766.383-.552 0-.858-.306-.307-.307-.307-.812 0-.49.353-.843l.306-.322q.061-.046.03-.092-.045-.03-.122-.015-.306.077-.52.307-.43.413-.43.995 0 .598.414 1.027.429.414 1.026.414.583 0 .996-.43.353-.352.858-.352.506 0 .859.353.352.352.352.858t-.352.858q-1.134 1.119-2.713 1.119zM114.2 5.526v2.13q0 .214-.03.46v2.804q0 1.716-1.042 2.742-1.027 1.027-2.773 1.027-1.012 0-1.824-.383-.812-.368-.812-1.272 0-.306.138-.582.368-.828 1.272-.828.214 0 .597.123t.629.123q.643 0 .842-.276.077-.107.031-.169-.061-.092-.215-.061-.26.046-.567.046-1.547 0-2.65-1.103-1.104-1.104-1.104-2.651v-2.13q0-.644.445-1.088.46-.46 1.103-.46.644 0 1.103.46.46.444.46 1.088v2.13q0 .26.184.46.199.183.46.183.275 0 .46-.183.183-.2.183-.46v-2.13q0-.644.46-1.088.46-.46 1.103-.46.644 0 1.088.46.46.444.46 1.088zM117.362 10.23q0 .536-.383.904-.368.368-.904.368-.521 0-.904-.368-.368-.368-.368-.904 0-.52.368-.889.383-.383.904-.383.536 0 .904.383.383.368.383.89zM125.56 7.702q0 1.563-1.118 2.681-1.118 1.119-2.697 1.119-.276 0-.49-.03-.2-.031-.2.152v1.41q0 .644-.459 1.088-.46.46-1.103.46-.644 0-1.103-.46-.445-.444-.445-1.088V5.541q0-.643.445-1.088.46-.46 1.103-.46.122 0 .536.093.322.06.536-.016.567-.184 1.18-.184 1.579 0 2.697 1.119 1.119 1.119 1.119 2.697zm-3.11 0q0-.291-.214-.49-.2-.215-.49-.215-.292 0-.491.214-.2.2-.2.49 0 .292.2.491.2.2.49.2.291 0 .49-.2.215-.2.215-.49zM132.048 4.086q.644 0 1.104.46.46.444.46 1.087V9.77q0 .644-.46 1.104-.46.46-1.104.46-.276 0-.49-.093-.184-.06-.368 0-.674.26-1.394.26-1.563 0-2.682-1.102-1.118-1.119-1.118-2.697t1.118-2.682q1.119-1.118 2.682-1.118.766 0 1.455.29.108.047.276-.014.26-.092.521-.092zm-2.252 4.32q.29 0 .49-.199.215-.214.215-.505 0-.291-.215-.49-.2-.2-.49-.2-.291 0-.49.2-.2.199-.2.49 0 .29.2.505.199.2.49.2zM140.294 3.994q.583 0 .996.413.414.414.414.996v5.517q0 1.716-1.042 2.742-1.026 1.027-2.773 1.027-1.012 0-1.824-.383-.812-.368-.812-1.272 0-.306.123-.582.383-.828 1.287-.828.214 0 .597.123.384.123.629.123.643 0 .827-.246.077-.107.03-.199-.045-.092-.183-.061-.276.046-.613.046-1.548 0-2.65-1.103-1.104-1.104-1.104-2.651 0-1.548 1.103-2.651 1.103-1.103 2.651-1.103.521 0 1.165.184.352.107.72-.016.245-.076.46-.076zm-2.344 4.305q.276 0 .46-.184.184-.199.184-.46 0-.275-.184-.459t-.46-.184q-.26 0-.46.184-.184.184-.184.46 0 .26.184.46.2.183.46.183zM146.152 11.533q-1.593 0-2.727-1.12-1.119-1.133-1.119-2.727 0-1.578 1.119-2.696 1.134-1.134 2.727-1.134 1.579 0 2.651 1.057.353.352.353.858t-.353.858l-1.777 1.762q-.383.383-.766.383-.552 0-.858-.306-.307-.307-.307-.812 0-.49.352-.843l.307-.322q.061-.046.03-.092-.045-.03-.122-.015-.306.077-.521.307-.43.413-.43.995 0 .598.415 1.027.429.414 1.026.414.583 0 .996-.43.353-.352.858-.352.506 0 .858.353.353.352.353.858t-.353.858q-1.133 1.119-2.712 1.119z"/></g><g stroke-width="8.236"><g style="line-height:476.69509888px;-inkscape-font-specification:'OTADESIGN Rounded'" aria-label="Mi" font-weight="400" font-size="141.034" font-family="OTADESIGN Rounded" letter-spacing="0" word-spacing="0" stroke-width="2.386" fill="#2fa1bb"><path style="-inkscape-font-specification:'OTADESIGN Rounded'" d="M15.636 9.504a1.9 1.9 0 01-1.611-.926c-.154-.218-.459-.295-.463 0v1.366c0 .548-.2 1.023-.6 1.423a1.936 1.936 0 01-1.423.583 1.973 1.973 0 01-1.423-.583 1.973 1.973 0 01-.583-1.423v-7.51c0-.422.12-.805.36-1.148.252-.354.572-.6.96-.737.217-.08.446-.12.686-.12.617 0 1.131.24 1.543.72.217.24.343.366.377.377 0 0 1.63 1.971 1.675 2.005.046.035.18.297.502.297s.473-.262.519-.297c.046-.034 1.676-2.005 1.676-2.005.011.012.131-.114.36-.377.422-.48.942-.72 1.56-.72.228 0 .457.04.685.12.389.137.703.383.943.737.252.343.377.726.377 1.149v7.509c0 .548-.2 1.023-.6 1.423a1.936 1.936 0 01-1.423.583 1.973 1.973 0 01-1.422-.583 1.973 1.973 0 01-.583-1.423V8.578c-.034-.372-.363-.138-.48 0-.309.572-.9.924-1.612.926zM24.223 3.892q-.72 0-1.235-.497-.497-.514-.497-1.234t.497-1.218Q23.503.43 24.223.43q.72 0 1.234.514.514.498.514 1.218t-.514 1.234q-.514.497-1.234.497zm.017.343q.72 0 1.217.514.514.515.514 1.235v4.234q0 .72-.514 1.234-.497.498-1.217.498-.72 0-1.235-.498-.514-.514-.514-1.234V5.984q0-.72.514-1.235.515-.514 1.235-.514z"/></g><path d="M20.632 8.116h-.004c-.039.023-.066.703-.08 1.639h-.676v4.052h.675c.016.935.042 1.616.081 1.638.127.073 6.346-3.518 6.346-3.664 0-.146-6.123-3.682-6.342-3.665z" fill="#f66e4f" paint-order="fill markers stroke"/></g></svg>