<?xml version="1.0" encoding="UTF-8" standalone="no"?>
<!-- Created with Inkscape (http://www.inkscape.org/) -->

<svg
   xmlns:dc="http://purl.org/dc/elements/1.1/"
   xmlns:cc="http://creativecommons.org/ns#"
   xmlns:rdf="http://www.w3.org/1999/02/22-rdf-syntax-ns#"
   xmlns:svg="http://www.w3.org/2000/svg"
   xmlns="http://www.w3.org/2000/svg"
   xmlns:sodipodi="http://sodipodi.sourceforge.net/DTD/sodipodi-0.dtd"
   xmlns:inkscape="http://www.inkscape.org/namespaces/inkscape"
   width="600"
   height="60"
   viewBox="0 0 158.75 15.875001"
   version="1.1"
   id="svg8"
   inkscape:version="0.92.4 (5da689c313, 2019-01-14)"
   sodipodi:docname="publisher.svg"
   inkscape:export-filename="G:\suiranfesCOM\2018\files\images\icons\publisher3.png"
   inkscape:export-xdpi="96"
   inkscape:export-ydpi="96">
  <defs
     id="defs2" />
  <sodipodi:namedview
     id="base"
     pagecolor="#ffffff"
     bordercolor="#666666"
     borderopacity="1.0"
     inkscape:pageopacity="0.0"
     inkscape:pageshadow="2"
     inkscape:zoom="0.32"
     inkscape:cx="-51.589138"
     inkscape:cy="120.46589"
     inkscape:document-units="mm"
     inkscape:current-layer="layer1"
     showgrid="false"
     units="px"
     inkscape:snap-page="true"
     inkscape:snap-bbox="false"
     inkscape:snap-bbox-edge-midpoints="true"
     inkscape:bbox-nodes="true"
     inkscape:snap-bbox-midpoints="true"
     inkscape:window-width="1920"
     inkscape:window-height="965"
     inkscape:window-x="-8"
     inkscape:window-y="-8"
     inkscape:window-maximized="1"
     inkscape:snap-midpoints="true"
     inkscape:snap-object-midpoints="true"
     inkscape:snap-center="true"
     inkscape:snap-nodes="false" />
  <metadata
     id="metadata5">
    <rdf:RDF>
      <cc:Work
         rdf:about="">
        <dc:format>image/svg+xml</dc:format>
        <dc:type
           rdf:resource="http://purl.org/dc/dcmitype/StillImage" />
        <dc:title></dc:title>
      </cc:Work>
    </rdf:RDF>
  </metadata>
  <g
     inkscape:label="レイヤー 1"
     inkscape:groupmode="layer"
     id="layer1"
     transform="translate(0,-281.12498)">
    <rect
       style="opacity:1;fill:#ffffff;fill-opacity:1;fill-rule:nonzero;stroke:none;stroke-width:3.70416665;stroke-linecap:round;stroke-linejoin:round;stroke-miterlimit:4;stroke-dasharray:none;stroke-dashoffset:0;stroke-opacity:1;paint-order:fill markers stroke"
       id="rect4600"
       width="158.75"
       height="15.875"
       x="0"
       y="281.12497" />
    <g
       id="g865"
       transform="translate(-3.3021639,-0.12521524)">
      <text
         id="text843"
         y="292.56818"
         x="38.168125"
         style="font-style:normal;font-variant:normal;font-weight:bold;font-stretch:normal;font-size:15.32296467px;line-height:1.25;font-family:'OTADESIGN Rounded';-inkscape-font-specification:'OTADESIGN Rounded Bold';text-align:start;letter-spacing:0px;word-spacing:0px;text-anchor:start;fill:#105779;fill-opacity:1;stroke:none;stroke-width:0.26458332"
         xml:space="preserve"><tspan
           style="font-style:normal;font-variant:normal;font-weight:bold;font-stretch:normal;font-family:'OTADESIGN Rounded';-inkscape-font-specification:'OTADESIGN Rounded Bold';text-align:start;text-anchor:start;fill:#105779;fill-opacity:1;stroke-width:0.26458332"
           y="292.56818"
           x="38.168125"
           id="tspan841"
           sodipodi:role="line">join.misskey.page</tspan></text>
      <g
         style="stroke-width:8.23634529"
         transform="matrix(0.12141306,0,0,0.12141306,14.930731,263.62706)"
         id="g4675">
        <g
           id="g5125"
           transform="matrix(1.0954843,0,0,1.0954843,-39.33075,-37.365806)"
           style="fill:#2fa1bb;fill-opacity:1;stroke-width:8.24094486">
          <g
             aria-label="Mi"
             style="font-style:normal;font-variant:normal;font-weight:normal;font-stretch:normal;font-size:141.03404236px;line-height:476.69509888px;font-family:'OTADESIGN Rounded';-inkscape-font-specification:'OTADESIGN Rounded';letter-spacing:0px;word-spacing:0px;fill:#2fa1bb;fill-opacity:1;stroke:none;stroke-width:2.38580322px;stroke-linecap:butt;stroke-linejoin:miter;stroke-opacity:1"
             id="text4489"
             transform="matrix(0.91391326,0,0,0.91391326,-2.6894693,26.792807)">
            <path
               d="m 75.196381,231.17126 c -5.855419,0.0202 -10.885068,-3.50766 -13.2572,-7.61584 -1.266603,-1.79454 -3.772419,-2.43291 -3.807919,0 v 11.2332 c 0,4.51309 -1.645397,8.41504 -4.936191,11.70583 -3.196772,3.19677 -7.098714,4.79516 -11.705826,4.79516 -4.513089,0 -8.415031,-1.59839 -11.705825,-4.79516 -3.196772,-3.29079 -4.795158,-7.19274 -4.795158,-11.70583 v -61.7729 c 0,-3.47884 0.987238,-6.6286 2.961715,-9.44928 2.068499,-2.91471 4.701135,-4.9362 7.897906,-6.06447 1.786431,-0.65816 3.666885,-0.98724 5.641362,-0.98724 5.077225,0 9.308247,1.97448 12.693064,5.92343 1.786431,1.97448 2.820681,3.00873 3.102749,3.10275 0,0 13.408119,16.21319 13.78421,16.49526 0.376091,0.28206 1.480789,2.43848 4.127113,2.43848 2.646324,0 3.89218,-2.15642 4.26827,-2.43848 0.376091,-0.28207 13.784088,-16.49526 13.784088,-16.49526 0.09402,0.094 1.081261,-0.94022 2.961715,-3.10275 3.478837,-3.94895 7.756866,-5.92343 12.834096,-5.92343 1.88045,0 3.76091,0.32908 5.64136,0.98724 3.19677,1.12827 5.7824,3.14976 7.75688,6.06447 2.06849,2.82068 3.10274,5.97044 3.10274,9.44928 v 61.7729 c 0,4.51309 -1.6454,8.41504 -4.93619,11.70583 -3.19677,3.19677 -7.09871,4.79516 -11.70582,4.79516 -4.51309,0 -8.41504,-1.59839 -11.705828,-4.79516 -3.196772,-3.29079 -4.795158,-7.19274 -4.795158,-11.70583 v -11.2332 c -0.277898,-3.06563 -2.987588,-1.13379 -3.948953,0 -2.538613,4.70114 -7.401781,7.59567 -13.2572,7.61584 z"
               style="font-style:normal;font-variant:normal;font-weight:normal;font-stretch:normal;font-family:'OTADESIGN Rounded';-inkscape-font-specification:'OTADESIGN Rounded';fill:#2fa1bb;fill-opacity:1;stroke-width:2.38580322px"
               id="path5210"
               inkscape:connector-curvature="0"
               sodipodi:nodetypes="zccssscssccscczzzccsccsscscsccz" />
            <path
               d="m 145.83461,185.00361 q -5.92343,0 -10.15445,-4.08999 -4.08999,-4.23102 -4.08999,-10.15445 0,-5.92343 4.08999,-10.01342 4.23102,-4.23102 10.15445,-4.23102 5.92343,0 10.15445,4.23102 4.23102,4.08999 4.23102,10.01342 0,5.92343 -4.23102,10.15445 -4.23102,4.08999 -10.15445,4.08999 z m 0.14103,2.82068 q 5.92343,0 10.01342,4.23102 4.23102,4.23102 4.23102,10.15445 v 34.83541 q 0,5.92343 -4.23102,10.15445 -4.08999,4.08999 -10.01342,4.08999 -5.92343,0 -10.15445,-4.08999 -4.23102,-4.23102 -4.23102,-10.15445 v -34.83541 q 0,-5.92343 4.23102,-10.15445 4.23102,-4.23102 10.15445,-4.23102 z"
               style="font-style:normal;font-variant:normal;font-weight:normal;font-stretch:normal;font-family:'OTADESIGN Rounded';-inkscape-font-specification:'OTADESIGN Rounded';fill:#2fa1bb;fill-opacity:1;stroke-width:2.38580322px"
               id="path5212"
               inkscape:connector-curvature="0" />
          </g>
        </g>
        <path
           inkscape:connector-curvature="0"
           id="rect4566"
           d="m 74.15371,211.99359 c -0.0142,8.2e-4 -0.0253,0.004 -0.0337,0.009 -0.31761,0.18338 -0.53794,5.78472 -0.66227,13.49271 h -5.55913 v 33.37061 h 5.56036 c 0.12492,7.70803 0.34561,13.30959 0.66324,13.49295 1.04542,0.60352 52.26909,-28.97293 52.26905,-30.18005 -4e-5,-1.1977 -50.42858,-30.31947 -52.23761,-30.18485 z"
           style="opacity:1;fill:#f66e4f;fill-opacity:1;fill-rule:nonzero;stroke:none;stroke-width:30.50880432;stroke-linecap:round;stroke-linejoin:round;stroke-miterlimit:4;stroke-dasharray:none;stroke-dashoffset:0;stroke-opacity:1;paint-order:fill markers stroke" />
      </g>
    </g>
  </g>
</svg>
