<svg xmlns="http://www.w3.org/2000/svg" xmlns:xlink="http://www.w3.org/1999/xlink" width="1200" height="630" viewBox="0 0 317.5 166.688"><defs><linearGradient id="a"><stop offset="0" stop-color="#cfebf9"/><stop offset="1" stop-color="#fff"/></linearGradient><linearGradient id="b"><stop offset="0" stop-color="#fff"/><stop offset="1" stop-color="#53b8e8"/></linearGradient><linearGradient id="c"><stop offset="0" stop-color="#cfebf9"/><stop offset="1" stop-color="#6cc1ed"/></linearGradient><linearGradient xlink:href="#a" id="d" x1="111.419" y1="281.305" x2="111.419" y2="5.952" gradientUnits="userSpaceOnUse" gradientTransform="translate(-15.627)"/><linearGradient xlink:href="#b" id="j" gradientUnits="userSpaceOnUse" x1="111.419" y1="1130.386" x2="111.419" y2="5.952" gradientTransform="translate(-64.32 1.973)"/><linearGradient xlink:href="#c" id="i" gradientUnits="userSpaceOnUse" x1="111.419" y1="281.305" x2="111.419" y2="5.952" gradientTransform="translate(-17.018 .522)"/><linearGradient xlink:href="#a" id="g" gradientUnits="userSpaceOnUse" x1="111.419" y1="281.305" x2="111.419" y2="5.952" gradientTransform="translate(-15.627)"/><linearGradient xlink:href="#a" id="h" gradientUnits="userSpaceOnUse" x1="111.419" y1="281.305" x2="111.419" y2="5.952" gradientTransform="translate(-15.627)"/><linearGradient xlink:href="#a" id="f" gradientUnits="userSpaceOnUse" x1="111.419" y1="281.305" x2="111.419" y2="5.952" gradientTransform="translate(-15.627)"/><linearGradient xlink:href="#a" id="l" gradientUnits="userSpaceOnUse" x1="111.419" y1="281.305" x2="111.419" y2="5.952" gradientTransform="translate(-15.627)"/><linearGradient xlink:href="#a" id="m" gradientUnits="userSpaceOnUse" x1="111.419" y1="281.305" x2="111.419" y2="5.952" gradientTransform="translate(-15.627)"/><linearGradient xlink:href="#a" id="n" gradientUnits="userSpaceOnUse" x1="111.419" y1="281.305" x2="111.419" y2="5.952" gradientTransform="translate(-15.627)"/><linearGradient xlink:href="#a" id="o" gradientUnits="userSpaceOnUse" x1="111.419" y1="281.305" x2="111.419" y2="5.952" gradientTransform="translate(-15.627)"/><linearGradient xlink:href="#a" id="p" gradientUnits="userSpaceOnUse" x1="111.419" y1="281.305" x2="111.419" y2="5.952" gradientTransform="translate(-15.627)"/><linearGradient xlink:href="#a" id="k" gradientUnits="userSpaceOnUse" x1="111.419" y1="281.305" x2="111.419" y2="5.952" gradientTransform="translate(-15.627)"/><linearGradient xlink:href="#a" id="r" gradientUnits="userSpaceOnUse" x1="111.419" y1="281.305" x2="111.419" y2="5.952" gradientTransform="translate(-15.627)"/><linearGradient xlink:href="#a" id="q" gradientUnits="userSpaceOnUse" x1="111.419" y1="281.305" x2="111.419" y2="5.952" gradientTransform="translate(-15.627)"/><linearGradient xlink:href="#a" id="s" gradientUnits="userSpaceOnUse" x1="111.419" y1="281.305" x2="111.419" y2="5.952" gradientTransform="translate(-15.627)"/><linearGradient xlink:href="#a" id="t" gradientUnits="userSpaceOnUse" x1="111.419" y1="281.305" x2="111.419" y2="5.952" gradientTransform="translate(-15.627)"/><linearGradient xlink:href="#a" id="u" gradientUnits="userSpaceOnUse" x1="111.419" y1="281.305" x2="111.419" y2="5.952" gradientTransform="translate(-15.627)"/><linearGradient xlink:href="#a" id="v" gradientUnits="userSpaceOnUse" x1="111.419" y1="281.305" x2="111.419" y2="5.952" gradientTransform="translate(-15.627)"/><linearGradient xlink:href="#a" id="w" gradientUnits="userSpaceOnUse" x1="111.419" y1="281.305" x2="111.419" y2="5.952" gradientTransform="translate(-15.627)"/><linearGradient xlink:href="#a" id="x" gradientUnits="userSpaceOnUse" x1="111.419" y1="281.305" x2="111.419" y2="5.952" gradientTransform="translate(-15.627)"/><linearGradient xlink:href="#a" id="y" gradientUnits="userSpaceOnUse" x1="111.419" y1="281.305" x2="111.419" y2="5.952" gradientTransform="translate(-15.627)"/><filter id="e" color-interpolation-filters="sRGB"><feFlood flood-opacity=".498" flood-color="#000" result="flood"/><feComposite in="flood" in2="SourceGraphic" operator="in" result="composite1"/><feGaussianBlur in="composite1" stdDeviation="1" result="blur"/><feOffset dx="2" dy="2" result="offset"/><feComposite in="SourceGraphic" in2="offset" result="composite2"/></filter></defs><g transform="translate(0 -130.312)"><text style="line-height:56.68144608px;-inkscape-font-specification:'Gen Shin Gothic'" x="12.468" y="245.615" font-weight="400" font-size="16.77" font-family="Gen Shin Gothic" letter-spacing="0" word-spacing="0" fill="#fffc32" stroke-width=".265"/><path fill="#105779" paint-order="fill markers stroke" d="M0 130.312h317.5V297H0z"/><text style="line-height:1.25;-inkscape-font-specification:'Mgen+ 1c Medium';text-align:center" x="133.11" y="169.425" font-weight="500" font-size="20.701" font-family="Mgen+ 1c" letter-spacing="0" word-spacing="0" text-anchor="middle" fill="#fff" stroke-width=".265"><tspan x="133.11" y="169.425" style="-inkscape-font-specification:'Mgen+ 1c Medium'">Misskey<tspan style="-inkscape-font-specification:'Gen Shin Gothic Medium'" font-family="Gen Shin Gothic">をはじめよう</tspan></tspan></text><g transform="matrix(.6046 0 0 .6046 204.924 134.198)" fill="url(#d)" stroke-width="1.654" filter="url(#e)"><path transform="matrix(.26458 0 0 .26458 1.391 -.522)" d="M248.643 37.03s2.524 52.528 2.02 69.7c-.202 6.821-.47 14.666-.546 22.325-4.768 1.387-10.227 3.236-15.117 5.607-11.786 5.714-21.071 11.428-25 14.643-3.929 3.214-5.357 5.357-5.357 5.357s.714 26.072 5 32.858c2.863 4.533 11.228 9.928 16.517 13.046-5.109 7.92-11.32 17.485-14.017 21.239-4.108 5.714-19.465 35-20.358 38.215-.42 1.514-3.176 10.24-5.992 19.226-2.42 2.012-7.578 6.309-7.578 6.309s.714-.178 3.392-.178c.809 0 1.551.055 2.24.123-.411 1.321-.79 2.545-1.173 3.783-1.148.522-2.139.914-2.139.914s.813.146 1.783.235c-1.663 5.389-3.04 9.928-3.21 10.838-.536 2.857-1.43 8.392-1.43 8.392s0-1.248 3.75-4.463c3.75-3.214 6.43-4.644 6.43-4.644s1.07 8.572 2.32 11.965c1.25 3.392 4.643 9.108 5.715 9.822 1.071.714 1.718.767 1.718.767s-1.642-9.468-.506-16.666c1.137-7.197 1.39-8.207 4.168-19.066.73-2.852 1.944-6.83 3.422-11.295 4.98-3.72 9.479-7.107 10.662-8.027 3.215-2.5 10.357-10.356 12.678-13.213 1.102-1.357 4.8-7.143 8.36-12.803.12 9.829 1.105 26.91 1.105 26.91s1.149-11.12 1.906-14.908c.758-3.788 3.787-9.596 3.787-9.596s1.768 10.606 3.284 16.414c.486 1.863 1.268 4.39 2.132 7.073-1.264 13.444-5.18 44.801-9.818 60.714-5.38 18.465-8.714 52.806-10.07 64.313-.9 7.635-.741 18.57-.533 25.135-8.522 13.897-15.608 25.566-17.116 28.078-4.242 7.07-15.697 26.973-15.697 26.973s-1.375-.375-3.375 1.5-5.375 9.875-6.625 10.625-33.375 38-38.875 44.75-19.75 21-21.5 25.25-.5 24.5-1.25 27.25 0 17.25 1.25 21.25 3.5 14.5 2.25 21.5-3.75 30.75-2.25 34.75c1.163 3.101 7.462 10.862 10.29 14.26-.032 5.753.103 10.59.298 11.954.353 2.475 4.419 5.834 11.844 10.784 7.424 4.95 15.91 9.722 15.91 9.722l-.596-1.17c4.402 2.239 9.756 4.155 15.754 3.45 2.836-.334 6.02-.605 9.172-1.143 3.211.283 7.21 1.032 7.828.518.75-.625 2.688-1.985 3.02-2.67.094-.196.184-.416.26-.64.41.073.803.15 1.214.222-1.532 4.53-2.95 9.464-2.512 10.166.204.325 1.06.54 2.266.9-2.43 11.263-8.037 36.718-12.248 51.647-5.5 19.5-22.5 80-22 81.5s13 17 17.5 20.5c1.443 1.122 3.672 2.393 6.014 3.609-.843 14.492-1.365 24.952-1.278 27.213.354 9.192 3.89 21.92 5.305 22.273.749.187 4.926.658 11.152.653.462 4.026.919 7.439 1.307 9.252 1.5 7 28.5 123 33 138.5s16.5 56.5 16.5 56.5l79.5-1.5s-2.5-76.5-3.5-92c-.75-11.63.188-76.717.703-108.51 13.055-1.432 25.375-3.057 26.094-3.955.517-.647.364-4.78-.045-9.946 3.293-.625 6.467-1.33 8.748-2.09.053-.017.115-.04.168-.058 2.887 8.526 14.745 43.384 17.832 49.559 3.5 7 79 166.5 79 166.5l95.5 3c-13.79-69.12-30.125-153.408-50.5-221-3.17-9.731-7.552-28.068-10.863-42.596 1.049-.594 2.186-1.232 2.994-1.705 10.253-6.01 10.076-9.723 10.076-9.723s-.966-1.151-2.43-3.08c6.429-5.31 15.694-13.136 19.223-17.146 5.5-6.25 24-35.75 29-46.25s3.5-10.5 1-14.5-66-40.5-72-45c-1.94-1.456-6.226-4.41-10.936-7.624.105-.208.212-.415.311-.626 2.5-5.375 7.54-1.659 7.164-5.159-.375-3.5-8.414-39.091-8.414-40.341s2.125-7 1.375-8.625-2-1.75-3.125-2.75 0-.75 1-6.625-.25-23.876.125-30.125c.375-6.25 3.75-18.875 4.625-24.75s.875-13.626 1.375-14.25c.5-.626 4.5-1.625 4.25-2.875s-.75-4.625.125-7.125 6-7 7-7.125c.552-.07.983-.994 1.223-2.34 4.523 4.259 10.134 9.659 13.1 13.02 5.303 6.01 29.168 34.823 29.699 36.945.53 2.12-.177 6.718.707 7.425.883.707 5.48 4.774 5.48 5.834 0 1.06 12.728 14.318 17.678 18.207 4.95 3.89 25.456 21.567 27.4 21.567 1.945 0 4.418-4.95 6.893-5.303 2.475-.353 12.199.177 15.027-2.475 2.828-2.651 11.666-19.975 14.14-22.273 2.476-2.298 12.73-12.906 15.028-16.795 2.298-3.889 8.662-21.39 9.37-30.936.706-9.545-3.184-28.636-6.013-36.591-2.828-7.955-9.721-25.104-9.544-35.534.176-10.43-.885-10.076-.885-10.076s1.697-5.05 1.697-9.55c0-4.5-2.125-16.25-2.875-17.75s-1.375-1.125-1.375-1.125 0-.625.25-5.5-.25-6.5-1.5-8-5.625-6.375-6.25-6.625-.937.25-.937.25.5-1.313.75-2.375c.25-1.063.062-2.625-.438-2.938-.5-.313-1.625-1.562-1.625-1.562l-1.434-.483c.126-.26.215-.483.215-.611 0-.707-6.295-18.158-10.011-28.975a345.119 345.119 0 01-1.834-5.441c-.691-2.138-1.226-3.918-1.682-5.436-1.411-4.695-1.997-6.711-3.533-7.646-1.545-.94-6.98-3.284-10.035-4.588-.022-.023-.04-.048-.061-.07 0 0-2.5-1.25-6-2.25-.282-.081-.64-.059-1.053.037-.209-.505-.566-1.467-1.045-2.8.824-.692 1.537-1.3 1.576-1.353.19-.252.19-.504-.062-1.388-.018-.065-.36-.983-.467-1.284-.01-.029-.048-.127-.058-.158-1.479-4.117-9.018-24.267-9.346-24.35-.089-.022-.53.255-1.24.743l-.055-.162a1.513 1.513 0 00-.178-.325c-.23-.602-.88-2.352-1.094-3.949-.252-1.894 1.642-13.636 1.768-19.318.087-3.92-.483-5.712-.848-6.461.411-1.838.642-3.871.721-4.904.126-1.642-1.766-9.344-2.902-10.354-1.137-1.01-5.179-.758-7.451-.506-.555.062-1.077.148-1.553.24-.434-1.832-.497-1.889-1.098-2.89-.757-1.263-2.4-3.788-3.916-3.914-1.045-.087-6.116 1.533-9.236 2.568l-.865-1.306s.505-9.345.505-10.48c0-1.137 4.884-16.706 5.91-19.37.997-2.584 13.537-29.245 13.663-30.129.126-.884-.884-5.555-1.768-5.934-.884-.378-4.899.96-7.172 2.475-2.273 1.515-4.874 5.86-6.136 8.385-1.263 2.525-8.688 18.056-10.077 21.592-1.389 3.535-8.687 26.894-8.687 26.894s-5.178-2.778-6.567-2.525c-1.388.252-1.552-1.065-1.552-1.065s.163-27.724.416-34.922c.252-7.197.695-25.695.506-26.832-.19-1.136-.823-1.768-1.58-2.273-.238-.158-.545-.217-.875-.225.176-15.379-.27-41.146-3.684-71.257-3.127-27.573-19.342-49.892-25.844-57.874.098-2.088.193-3.986.287-5.31.505-7.071 1.012-23.737 2.022-31.818 1.01-8.082-1.01-38.387-1.01-38.387s-31.883 14.46-42.24 23.746c-6.683 5.992-14.989 11.385-21.106 16.092-32.09-15.575-77.69-9.144-102.824 3.908-6.977 3.623-15.3 9.2-19.455 12.06-7.242-7.913-19.561-24.171-27.394-32.275-10.358-10.714-31.293-25.633-31.293-25.633zm1.6 104.956c.243 6.56.808 12.32 1.935 16.262.186.65.355 1.18.533 1.772-1.559.997-3.266 2.292-4.318 3.75-1.816 2.514-9.38 15.793-13.424 22.771-2.108 1.76-4.021 3.353-4.403 3.734-.473.474-1.937 1.803-3.285 3.016-2.122-3.787-3.275-7.837-3.709-11.307-.535-4.285-.894-18.75-.894-18.75s10-8.215 14.465-12.322c2.86-2.632 8.937-6.426 13.1-8.926zm-8.595 56.918c-1.563 8.723-2.979 18.57-3.95 26.305-2.876 4.698-6.812 10.897-9.663 14.275-4.821 5.715-7.857 10.714-10.357 13.036-.578.536-3.119 2.69-6.5 5.533 2.912-7.535 5.906-14.582 8.277-18.912 5.808-10.607 17.152-33.317 19.92-37.067.446-.604 1.423-1.978 2.273-3.17zm18.036 76.627c.631 3.365 1.223 6.166 1.744 8.06 3.928 14.287 2.859 30.714 2.144 35.714-.714 5-9.643 37.5-13.572 47.5-2.87 7.307-5.938 15.76-9.469 24.101.145-12.635.633-25.982 1.324-32.595.928-8.87 7.144-53.373 11.055-77.801.49 1.36.994 2.761 1.397 3.836 2.272 6.06 7.322 15.658 7.322 15.658s-1.597-10.263-1.945-24.473zm-29.286 127.543s.451 3.334 1.168 7.697c-.38.891-.758 1.794-1.138 2.71.156-4.81-.03-10.407-.03-10.407zm296.745 7.4c.806 1.878 1.519 3.638 1.931 4.989.06.037.295.053.65.053 2.784 6.51 5.369 12.68 7.256 17.314a281.961 281.961 0 00-5.085 4.445 8409.501 8409.501 0 01-4.752-26.8zM213.834 549.96c-.262 7.252-.537 13.156-.834 14.936-1 6-1.929 24.112-1.752 30.123.065 2.197.784 7.068 1.607 12.373-2.354-8.57-7.087-19.4-7.087-24.746 0-6.364-.08-8.938-.08-8.938s1.062.625 2.624-1.937c1.563-2.563 3.997-15.467 3.997-18.649 0-.333.607-1.526 1.525-3.162zm.773 68.707c.846 5.516 1.518 10.382 1.518 12.604 0 .838-.273 2.83-.71 5.494a12.944 12.944 0 00-.454-1.618s.2-8.522-.354-16.48zm-1.171 28.904l-.133.682-.166-.025c0-.079.005-.176.004-.25l.011.04s.122-.183.284-.447z" fill="url(#j)" fill-rule="evenodd"/></g><text y="218.534" x="33.662" style="line-height:1.25;-inkscape-font-specification:'Gen Shin Gothic Bold';text-align:start" font-weight="700" font-size="8.691" font-family="Gen Shin Gothic" letter-spacing="0" word-spacing="0" fill="#fff" stroke-width=".265"><tspan style="-inkscape-font-specification:'Gen Shin Gothic Bold';text-align:start" y="218.534" x="33.662">いつまでも進化する、</tspan><tspan style="-inkscape-font-specification:'Gen Shin Gothic Bold';text-align:start" y="229.398" x="33.662">洗練されたマイクロブログ<tspan style="-inkscape-font-specification:'Mgen+ 1c Bold';text-align:start" font-family="Mgen+ 1c">SNS</tspan></tspan></text><text style="line-height:1.25;-inkscape-font-specification:'GenEi Nu Gothic EB';text-align:start" x="34.303" y="237.86" font-weight="400" font-size="5.739" font-family="GenEi Nu Gothic EB" letter-spacing="-.037" word-spacing="0" fill="#fff" stroke-width=".265"><tspan x="34.303" y="237.86" style="-inkscape-font-specification:'GenEi Nu Gothic EB';text-align:start">A forever evolving, sophisticated microblogging platform.</tspan></text><path d="M27.2 246.725h189.51l1.206.612c8.172 3.854 5.87 3.413 2.949 14.314-3.03 11.307-3.132 8.794 1.334 18.729h-195z" id="z" fill="#105779" fill-opacity="1" stroke="none" stroke-width=".8" stroke-linecap="round" stroke-linejoin="miter" stroke-miterlimit="4" stroke-dasharray="none" stroke-opacity="1" paint-order="markers stroke fill"/><g word-spacing="0" letter-spacing="0" font-weight="400" font-family="OTADESIGN Rounded" fill="#fff" stroke-width="4.537"><g style="line-height:476.69509888px;-inkscape-font-specification:'OTADESIGN Rounded'"><path font-size="141.034" aria-label="Mi" d="M37.137 250.73a.985.985 0 01-.836-.48c-.08-.113-.238-.153-.24 0v.708c0 .285-.104.531-.312.739a1.005 1.005 0 01-.738.302c-.284 0-.53-.1-.738-.302a1.024 1.024 0 01-.303-.739v-3.895c0-.22.063-.418.187-.596.13-.184.297-.312.498-.383a1.021 1.021 0 01.356-.062c.32 0 .587.125.8.374.113.124.178.19.196.195 0 0 .846 1.023.87 1.04.023.018.093.154.26.154s.245-.136.269-.154c.024-.017.87-1.04.87-1.04.005.006.068-.059.186-.195.22-.25.49-.374.81-.374.118 0 .237.02.355.062a.968.968 0 01.49.383c.13.178.195.376.195.596v3.895c0 .285-.103.531-.311.739a1.005 1.005 0 01-.738.302c-.285 0-.531-.1-.739-.302a1.024 1.024 0 01-.302-.739v-.708c-.018-.193-.189-.071-.25 0a.928.928 0 01-.835.48zm4.455-2.911q-.374 0-.64-.258-.259-.267-.259-.64 0-.374.258-.632.267-.267.64-.267.374 0 .641.267.267.258.267.631 0 .374-.267.64-.267.259-.64.259zm.008.178q.374 0 .632.266.267.267.267.64v2.198q0 .373-.267.64-.258.258-.632.258-.373 0-.64-.258-.267-.267-.267-.64v-2.197q0-.374.267-.64.267-.267.64-.267z" style="-inkscape-font-specification:'OTADESIGN Rounded'"/></g><path d="M44.483 249.11q.214.054.534.116.533.089.836.284.569.374.569 1.12 0 .605-.4.988-.463.444-1.29.444-.604 0-1.351-.169-.24-.053-.391-.24-.143-.187-.143-.418 0-.284.196-.48.204-.204.48-.204.08 0 .151.018.258.053.987.133.098 0 .214-.009.044 0 .044-.053.009-.045-.053-.063-.303-.053-.56-.115-.294-.062-.418-.107-.25-.071-.418-.187-.57-.373-.578-1.12 0-.595.409-.987.498-.48 1.414-.435.613.026 1.227.16.23.053.382.24.151.186.151.427 0 .275-.205.48-.195.195-.48.195-.07 0-.142-.018-.258-.053-.996-.124-.089-.009-.169 0-.07.009-.07.053.008.054.07.071zm3.87 0q.213.054.533.116.533.089.836.284.569.374.569 1.12 0 .605-.4.988-.463.444-1.29.444-.604 0-1.35-.169-.241-.053-.392-.24-.142-.187-.142-.418 0-.284.195-.48.205-.204.48-.204.08 0 .152.018.257.053.986.133.098 0 .214-.009.044 0 .044-.053.009-.045-.053-.063-.302-.053-.56-.115-.294-.062-.418-.107-.25-.071-.418-.187-.57-.373-.578-1.12 0-.595.409-.987.498-.48 1.414-.435.613.026 1.227.16.23.053.382.24.151.186.151.427 0 .275-.204.48-.196.195-.48.195-.071 0-.143-.018-.258-.053-.995-.124-.09-.009-.17 0-.07.009-.07.053.008.054.07.071zm5.747.735q.026.018.631.614.276.266.276.649 0 .355-.258.631-.258.267-.64.267-.365 0-.631-.258l-.89-.863q-.035-.026-.07-.026-.072 0-.072.267 0 .373-.266.64-.267.258-.64.258-.374 0-.64-.258-.259-.267-.259-.64v-4.144q0-.373.258-.63.267-.268.64-.268.374 0 .64.267.267.258.267.631v1.387q0 .09.062.116.054.027.116-.018.036-.018 1.067-.702.231-.143.498-.143.489 0 .756.4.142.232.142.499 0 .489-.4.755l-.56.356v.009l-.018.009q-.125.08-.009.195zm3.438 2.217q-.924 0-1.582-.649-.65-.658-.65-1.582 0-.916.65-1.565.658-.658 1.582-.658.916 0 1.539.613.204.205.204.498 0 .293-.204.498l-1.032 1.023q-.222.222-.444.222-.32 0-.498-.178t-.178-.471q0-.285.204-.49l.178-.186q.036-.027.018-.053-.027-.018-.071-.01-.178.045-.302.179-.25.24-.25.578 0 .346.24.595.25.24.596.24.338 0 .578-.249.205-.204.498-.204.293 0 .498.204.205.205.205.498 0 .294-.205.498-.658.65-1.574.65zm6.45-3.48v1.237q0 .124-.018.266v1.627q0 .996-.605 1.592-.596.596-1.61.596-.586 0-1.057-.223-.472-.213-.472-.737 0-.178.08-.338.214-.48.738-.48.125 0 .347.07.223.072.365.072.373 0 .489-.16.044-.063.017-.098-.035-.053-.124-.036-.151.027-.329.027-.898 0-1.538-.64t-.64-1.538v-1.236q0-.374.258-.631.266-.267.64-.267.373 0 .64.267.267.257.267.63v1.237q0 .15.106.266.116.107.267.107.16 0 .267-.107.106-.115.106-.266v-1.236q0-.374.267-.631.267-.267.64-.267.374 0 .632.267.266.257.266.63z" style="line-height:136.34428406px;-inkscape-font-specification:'OTADESIGN Rounded'"/></g><g font-weight="400" letter-spacing="0" word-spacing="0" font-family="OTADESIGN Rounded" fill="#fff" stroke-width="3.621"><g style="line-height:476.69509888px;-inkscape-font-specification:'OTADESIGN Rounded'"><path style="-inkscape-font-specification:'OTADESIGN Rounded'" d="M160.403 228.168a1.234 1.234 0 01-1.047-.602c-.1-.141-.298-.192-.301 0v.888c0 .356-.13.665-.39.925-.253.252-.561.378-.925.378-.356 0-.665-.126-.925-.378a1.283 1.283 0 01-.379-.925v-4.88c0-.276.078-.524.234-.747.164-.23.372-.39.624-.48a1.28 1.28 0 01.446-.078c.401 0 .735.156 1.003.468.14.157.223.238.245.246 0 0 1.06 1.28 1.089 1.303.03.022.117.193.326.193.21 0 .308-.17.337-.193.03-.022 1.09-1.304 1.09-1.304.007.008.085-.074.233-.245a1.3 1.3 0 011.014-.468c.149 0 .298.026.446.079.253.089.457.248.613.479.163.223.245.471.245.746v4.88c0 .357-.13.666-.39.926a1.26 1.26 0 01-.925.378c-.356 0-.664-.126-.925-.378a1.283 1.283 0 01-.378-.925v-.888c-.023-.242-.237-.09-.313 0-.2.372-.584.6-1.047.602zm5.581-3.648q-.468 0-.802-.323-.323-.334-.323-.802t.323-.791q.334-.334.802-.334t.803.334q.334.323.334.791t-.334.802q-.335.323-.803.323zm.011.223q.468 0 .792.334.334.335.334.803v2.752q0 .468-.334.802-.324.323-.792.323t-.802-.323q-.334-.334-.334-.802v-2.752q0-.468.334-.803.334-.334.802-.334z" aria-label="Mi" font-size="141.034"/></g><path style="line-height:136.34428406px;-inkscape-font-specification:'OTADESIGN Rounded'" d="M169.607 226.138q.267.067.668.145.668.112 1.047.357.713.468.713 1.403 0 .758-.501 1.237-.58.557-1.616.557-.757 0-1.692-.212-.301-.067-.49-.3-.179-.235-.179-.524 0-.357.245-.602.256-.256.602-.256.1 0 .189.022.323.067 1.237.167.122 0 .267-.01.056 0 .056-.068.01-.055-.067-.078-.38-.066-.702-.144-.367-.078-.524-.134-.311-.09-.523-.234-.713-.468-.724-1.403 0-.747.512-1.237.624-.601 1.771-.546.769.034 1.538.2.289.068.478.302.19.233.19.534 0 .346-.256.602-.245.245-.602.245-.089 0-.178-.022-.323-.067-1.247-.156-.112-.011-.212 0-.09.01-.09.066.012.067.09.09zm4.847 0q.268.067.669.145.668.112 1.047.357.712.468.712 1.403 0 .758-.5 1.237-.58.557-1.616.557-.757 0-1.693-.212-.3-.067-.49-.3-.178-.235-.178-.524 0-.357.245-.602.256-.256.601-.256.1 0 .19.022.323.067 1.236.167.122 0 .267-.01.056 0 .056-.068.011-.055-.067-.078-.378-.066-.702-.144-.367-.078-.523-.134-.312-.09-.524-.234-.713-.468-.724-1.403 0-.747.513-1.237.624-.601 1.77-.546.77.034 1.538.2.29.068.479.302.19.233.19.534 0 .346-.257.602-.245.245-.602.245-.088 0-.178-.022-.323-.067-1.247-.156-.111-.011-.212 0-.089.01-.089.066.011.067.089.09zm7.2.921q.034.022.791.769.346.334.346.813 0 .445-.324.79-.323.335-.801.335-.457 0-.791-.323l-1.114-1.08q-.045-.034-.09-.034-.088 0-.088.334 0 .468-.334.802-.335.323-.803.323-.467 0-.802-.323-.323-.334-.323-.802v-5.19q0-.468.323-.791.335-.334.802-.334.468 0 .802.334.334.323.334.79v1.738q0 .112.079.145.066.033.144-.022.045-.022 1.337-.88.29-.179.624-.179.613 0 .947.502.178.29.178.624 0 .612-.501.946l-.702.446v.011l-.022.011q-.156.1-.011.245zm4.308 2.778q-1.158 0-1.983-.814-.813-.824-.813-1.982 0-1.148.813-1.96.825-.825 1.983-.825 1.147 0 1.927.769.256.256.256.624 0 .367-.256.623l-1.292 1.281q-.279.279-.557.279-.401 0-.624-.223-.223-.223-.223-.59 0-.357.257-.613l.222-.234q.045-.033.023-.067-.033-.022-.09-.011-.222.056-.378.223-.312.3-.312.724 0 .434.3.746.313.3.747.3.423 0 .724-.311.256-.256.624-.256.367 0 .624.256.256.256.256.624 0 .367-.256.623-.825.814-1.972.814zm8.08-4.36v1.549q0 .156-.023.334v2.038q0 1.248-.757 1.994-.747.747-2.016.747-.736 0-1.326-.279-.59-.267-.59-.924 0-.223.1-.424.267-.601.924-.601.156 0 .435.089.278.089.457.089.467 0 .612-.2.056-.079.022-.123-.044-.067-.155-.044-.19.033-.413.033-1.125 0-1.927-.802t-.802-1.927v-1.548q0-.468.323-.791.335-.334.802-.334.468 0 .802.334.335.323.335.79v1.549q0 .189.133.334.145.134.334.134.2 0 .334-.134.134-.145.134-.334v-1.548q0-.468.334-.791.334-.334.802-.334t.791.334q.334.323.334.79z"/></g><text y="199.049" x="33.577" style="line-height:1.25;-inkscape-font-specification:'OTADESIGN Rounded Bold';text-align:start" font-weight="700" font-size="33.511" font-family="OTADESIGN Rounded" letter-spacing="0" word-spacing="0" fill="#fff" stroke-width=".265"><tspan style="-inkscape-font-specification:'OTADESIGN Rounded Bold';text-align:start" y="199.049" x="33.577">join.misskey.page</tspan></text></g></svg>