<svg xmlns="http://www.w3.org/2000/svg" width="224mm" height="122mm" viewBox="0 0 224 122"><path fill="#282828" paint-order="markers fill stroke" d="M0 0h224v122H0z"/><g aria-label="No Image" style="line-height:74.63279724px;-inkscape-font-specification:'Mgen+ 1c Bold'" font-weight="700" font-size="22.081" font-family="Mgen+ 1c" letter-spacing="0" word-spacing="0" stroke-width="1.472" fill="#fff"><path d="M64.41 67.843v-16.13h2.976l6.059 10.976h.043V51.714h2.976v16.13h-2.976l-6.06-10.977h-.042v10.976zM80.41 57.708q1.466-1.574 4.118-1.574 2.653 0 4.12 1.574 1.465 1.553 1.465 4.4 0 2.846-1.466 4.398-1.466 1.553-4.119 1.553-2.652 0-4.118-1.553-1.466-1.552-1.466-4.399 0-2.846 1.466-4.399zm2.156 7.31q.647.906 1.94.906 1.316 0 1.963-.906.669-.927.669-2.91 0-1.985-.669-2.89-.647-.927-1.962-.927-1.294 0-1.94.927-.648.905-.648 2.89 0 1.983.647 2.91zM99.3 67.843v-16.13h3.406v16.13zM106.415 56.371h2.76l.043 1.38h.043q1.273-1.617 2.955-1.617 1.013 0 1.595.388.582.367 1.078 1.337h.044q1.423-1.725 3.17-1.725 1.832 0 2.63.992.82.992.82 3.429v7.288h-2.869v-6.835q0-1.618-.323-2.114-.302-.517-1.186-.517-.582 0-1.164.539-.561.517-.561 1.035v7.892h-2.868v-6.835q0-1.596-.323-2.114-.302-.517-1.186-.517-.583 0-1.165.539-.56.517-.56 1.035v7.892h-2.933zM128.84 56.134q2.826 0 3.947 1.014 1.143 1.013 1.143 3.558v7.137h-2.739l-.043-1.596h-.043q-1.337 1.812-3.709 1.812-1.51 0-2.501-.97-.97-.993-.97-2.567 0-1.919 1.466-2.975 1.466-1.057 4.507-1.057h1.1v-.367q0-1.013-.497-1.423-.474-.41-1.725-.41-1.833 0-4.183.755v-2.242q2.135-.669 4.248-.669zm2.157 6.189h-1.1q-3.148 0-3.17 1.94 0 .712.41 1.165.41.431 1.057.431 1.25 0 2.027-.776.776-.798.776-2.156zM146.868 56.371V66.96q0 5.951-5.973 5.973-1.833 0-3.45-.453V70q1.638.669 3.385.669 1.639 0 2.372-.863.755-.84.755-2.781v-.712h-.043q-1.316 1.423-3.3 1.423-1.94 0-3.191-1.552-1.23-1.574-1.23-4.291 0-2.739 1.187-4.248 1.186-1.51 3.234-1.51 1.057 0 1.833.388.798.367 1.574 1.273h.065l.043-1.424zm-7.763 5.52q0 1.834.647 2.74.668.883 1.79.883.991 0 1.703-.69.712-.711.712-1.66V60.77q0-1.013-.712-1.703-.712-.712-1.703-.712-2.437 0-2.437 3.537zM152.086 61.03h4.722q-.021-2.826-2.2-2.826-1.164 0-1.789.669-.604.647-.733 2.156zm0 1.918q.13 1.596.949 2.308.84.711 2.48.711 1.315 0 3.277-.668v2.264q-1.854.517-3.644.496-2.89 0-4.442-1.51-1.553-1.51-1.553-4.442 0-2.91 1.38-4.442 1.402-1.53 4.033-1.53 5.024 0 5.024 5.908 0 .43-.065.905z" style="-inkscape-font-specification:'Mgen+ 1c Bold'"/></g></svg>