<?xml version="1.0" encoding="UTF-8" standalone="no"?>
<!-- Created with Inkscape (http://www.inkscape.org/) -->

<svg
   xmlns:dc="http://purl.org/dc/elements/1.1/"
   xmlns:cc="http://creativecommons.org/ns#"
   xmlns:rdf="http://www.w3.org/1999/02/22-rdf-syntax-ns#"
   xmlns:svg="http://www.w3.org/2000/svg"
   xmlns="http://www.w3.org/2000/svg"
   xmlns:sodipodi="http://sodipodi.sourceforge.net/DTD/sodipodi-0.dtd"
   xmlns:inkscape="http://www.inkscape.org/namespaces/inkscape"
   width="600"
   height="60"
   viewBox="0 0 158.75 15.875001"
   version="1.1"
   id="svg8"
   inkscape:version="0.92.1 r15371"
   sodipodi:docname="publisher.svg"
   inkscape:export-filename="G:\suiranfesCOM\2018\files\images\icons\publisher3.png"
   inkscape:export-xdpi="96"
   inkscape:export-ydpi="96">
  <defs
     id="defs2" />
  <sodipodi:namedview
     id="base"
     pagecolor="#ffffff"
     bordercolor="#666666"
     borderopacity="1.0"
     inkscape:pageopacity="0.0"
     inkscape:pageshadow="2"
     inkscape:zoom="0.64"
     inkscape:cx="400.16708"
     inkscape:cy="199.27144"
     inkscape:document-units="mm"
     inkscape:current-layer="layer1"
     showgrid="false"
     units="px"
     inkscape:snap-page="true"
     inkscape:snap-bbox="true"
     inkscape:snap-bbox-edge-midpoints="true"
     inkscape:bbox-nodes="true"
     inkscape:snap-bbox-midpoints="true"
     inkscape:window-width="1920"
     inkscape:window-height="958"
     inkscape:window-x="-8"
     inkscape:window-y="-1"
     inkscape:window-maximized="1"
     inkscape:snap-midpoints="true" />
  <metadata
     id="metadata5">
    <rdf:RDF>
      <cc:Work
         rdf:about="">
        <dc:format>image/svg+xml</dc:format>
        <dc:type
           rdf:resource="http://purl.org/dc/dcmitype/StillImage" />
        <dc:title />
      </cc:Work>
    </rdf:RDF>
  </metadata>
  <g
     inkscape:label="レイヤー 1"
     inkscape:groupmode="layer"
     id="layer1"
     transform="translate(0,-281.12498)">
    <rect
       style="opacity:1;fill:#ffffff;fill-opacity:1;fill-rule:nonzero;stroke:none;stroke-width:3.70416665;stroke-linecap:round;stroke-linejoin:round;stroke-miterlimit:4;stroke-dasharray:none;stroke-dashoffset:0;stroke-opacity:1;paint-order:fill markers stroke"
       id="rect4600"
       width="158.75"
       height="15.875"
       x="0"
       y="281.12497" />
    <g
       id="g4675"
       transform="matrix(0.08924158,0,0,0.08924158,7.3119809,271.34262)"
       style="stroke-width:11.2055378">
      <g
         style="fill:#2fa1bb;fill-opacity:1;stroke-width:11.21179581"
         transform="matrix(1.0954843,0,0,1.0954843,-39.33075,-37.365806)"
         id="g5125">
        <g
           transform="matrix(0.91391326,0,0,0.91391326,-2.6894693,26.792807)"
           id="text4489"
           style="font-style:normal;font-variant:normal;font-weight:normal;font-stretch:normal;font-size:141.03404236px;line-height:476.69509888px;font-family:'OTADESIGN Rounded';-inkscape-font-specification:'OTADESIGN Rounded';letter-spacing:0px;word-spacing:0px;fill:#2fa1bb;fill-opacity:1;stroke:none;stroke-width:3.24588227px;stroke-linecap:butt;stroke-linejoin:miter;stroke-opacity:1"
           aria-label="Mi">
          <path
             sodipodi:nodetypes="zccssscssccscczzzccsccsscscsccz"
             inkscape:connector-curvature="0"
             id="path5210"
             style="font-style:normal;font-variant:normal;font-weight:normal;font-stretch:normal;font-family:'OTADESIGN Rounded';-inkscape-font-specification:'OTADESIGN Rounded';fill:#2fa1bb;fill-opacity:1;stroke-width:3.24588227px"
             d="m 75.196381,231.17126 c -5.855419,0.0202 -10.885068,-3.50766 -13.2572,-7.61584 -1.266603,-1.79454 -3.772419,-2.43291 -3.807919,0 v 11.2332 c 0,4.51309 -1.645397,8.41504 -4.936191,11.70583 -3.196772,3.19677 -7.098714,4.79516 -11.705826,4.79516 -4.513089,0 -8.415031,-1.59839 -11.705825,-4.79516 -3.196772,-3.29079 -4.795158,-7.19274 -4.795158,-11.70583 v -61.7729 c 0,-3.47884 0.987238,-6.6286 2.961715,-9.44928 2.068499,-2.91471 4.701135,-4.9362 7.897906,-6.06447 1.786431,-0.65816 3.666885,-0.98724 5.641362,-0.98724 5.077225,0 9.308247,1.97448 12.693064,5.92343 1.786431,1.97448 2.820681,3.00873 3.102749,3.10275 0,0 13.408119,16.21319 13.78421,16.49526 0.376091,0.28206 1.480789,2.43848 4.127113,2.43848 2.646324,0 3.89218,-2.15642 4.26827,-2.43848 0.376091,-0.28207 13.784088,-16.49526 13.784088,-16.49526 0.09402,0.094 1.081261,-0.94022 2.961715,-3.10275 3.478837,-3.94895 7.756866,-5.92343 12.834096,-5.92343 1.88045,0 3.76091,0.32908 5.64136,0.98724 3.19677,1.12827 5.7824,3.14976 7.75688,6.06447 2.06849,2.82068 3.10274,5.97044 3.10274,9.44928 v 61.7729 c 0,4.51309 -1.6454,8.41504 -4.93619,11.70583 -3.19677,3.19677 -7.09871,4.79516 -11.70582,4.79516 -4.51309,0 -8.41504,-1.59839 -11.705828,-4.79516 -3.196772,-3.29079 -4.795158,-7.19274 -4.795158,-11.70583 v -11.2332 c -0.277898,-3.06563 -2.987588,-1.13379 -3.948953,0 -2.538613,4.70114 -7.401781,7.59567 -13.2572,7.61584 z" />
          <path
             inkscape:connector-curvature="0"
             id="path5212"
             style="font-style:normal;font-variant:normal;font-weight:normal;font-stretch:normal;font-family:'OTADESIGN Rounded';-inkscape-font-specification:'OTADESIGN Rounded';fill:#2fa1bb;fill-opacity:1;stroke-width:3.24588227px"
             d="m 145.83461,185.00361 q -5.92343,0 -10.15445,-4.08999 -4.08999,-4.23102 -4.08999,-10.15445 0,-5.92343 4.08999,-10.01342 4.23102,-4.23102 10.15445,-4.23102 5.92343,0 10.15445,4.23102 4.23102,4.08999 4.23102,10.01342 0,5.92343 -4.23102,10.15445 -4.23102,4.08999 -10.15445,4.08999 z m 0.14103,2.82068 q 5.92343,0 10.01342,4.23102 4.23102,4.23102 4.23102,10.15445 v 34.83541 q 0,5.92343 -4.23102,10.15445 -4.08999,4.08999 -10.01342,4.08999 -5.92343,0 -10.15445,-4.08999 -4.23102,-4.23102 -4.23102,-10.15445 v -34.83541 q 0,-5.92343 4.23102,-10.15445 4.23102,-4.23102 10.15445,-4.23102 z" />
        </g>
      </g>
      <path
         style="opacity:1;fill:#f66e4f;fill-opacity:1;fill-rule:nonzero;stroke:none;stroke-width:41.5071907;stroke-linecap:round;stroke-linejoin:round;stroke-miterlimit:4;stroke-dasharray:none;stroke-dashoffset:0;stroke-opacity:1;paint-order:fill markers stroke"
         d="m 74.15371,211.99359 c -0.0142,8.2e-4 -0.0253,0.004 -0.0337,0.009 -0.31761,0.18338 -0.53794,5.78472 -0.66227,13.49271 h -5.55913 v 33.37061 h 5.56036 c 0.12492,7.70803 0.34561,13.30959 0.66324,13.49295 1.04542,0.60352 52.26909,-28.97293 52.26905,-30.18005 -4e-5,-1.1977 -50.42858,-30.31947 -52.23761,-30.18485 z"
         id="rect4566"
         inkscape:connector-curvature="0" />
    </g>
    <g
       aria-label="joinmisskey.github.io"
       style="font-style:normal;font-variant:normal;font-weight:normal;font-stretch:normal;font-size:8.67213726px;line-height:29.31182671px;font-family:'Nu Hanafudaya';-inkscape-font-specification:'Nu Hanafudaya';letter-spacing:0px;word-spacing:0px;fill:#f66e4f;fill-opacity:1;stroke:none;stroke-width:0.24175273px;stroke-linecap:butt;stroke-linejoin:miter;stroke-opacity:1"
       id="text4679"
       transform="matrix(1.0944379,0,0,1.0944379,-79.176706,-7.0050244)">
      <path
         inkscape:connector-curvature="0"
         d="m 96.685697,267.4502 v -1.39621 h -2.063968 v 1.39621 z m 0,0.87589 h -2.063968 v 4.761 c 0,0.72846 -0.442279,1.00597 -0.962608,1.00597 -0.225475,0 -0.40759,-0.0434 -0.511656,-0.0954 v 0.75447 c 0.138754,0.0347 0.450951,0.0607 0.901903,0.0607 1.890525,0 2.636329,-0.73713 2.636329,-1.85584 z"
         style="fill:#f66e4f;fill-opacity:1;stroke-width:0.24175273px"
         id="path4681" />
      <path
         inkscape:connector-curvature="0"
         d="m 100.70008,268.06593 c -1.734424,0 -3.052588,1.17941 -3.052588,2.59296 0,1.41356 1.318164,2.59297 3.052588,2.59297 1.73443,0 3.0526,-1.17941 3.0526,-2.59297 0,-1.41355 -1.31817,-2.59296 -3.0526,-2.59296 z m 0,0.55501 c 0.56369,0 0.86722,0.45963 0.86722,1.29215 v 1.49161 c 0,0.83252 -0.30353,1.29215 -0.86722,1.29215 -0.56369,0 -0.86721,-0.45963 -0.86721,-1.29215 v -1.49161 c 0,-0.83252 0.30352,-1.29215 0.86721,-1.29215 z"
         style="fill:#f66e4f;fill-opacity:1;stroke-width:0.24175273px"
         id="path4683" />
      <path
         inkscape:connector-curvature="0"
         d="m 106.76367,267.4502 v -1.39621 h -2.06397 v 1.39621 z m 0,5.5415 v -4.66561 h -2.06397 v 4.66561 z"
         style="fill:#f66e4f;fill-opacity:1;stroke-width:0.24175273px"
         id="path4685" />
      <path
         inkscape:connector-curvature="0"
         d="m 111.76668,268.1353 c -0.63307,0 -1.2748,0.22548 -1.71708,0.70245 v -0.51166 h -2.06397 v 4.66561 h 2.06397 v -2.93118 c 0,-0.70245 0.50298,-0.97128 0.9626,-0.97128 0.45963,0 0.96261,0.26883 0.96261,0.97128 v 2.93118 h 2.06397 v -2.56695 c 0,-1.59568 -1.14472,-2.28945 -2.2721,-2.28945 z"
         style="fill:#f66e4f;fill-opacity:1;stroke-width:0.24175273px"
         id="path4687" />
      <path
         inkscape:connector-curvature="0"
         d="m 122.762,268.1353 c -0.75448,0 -1.50895,0.33822 -1.90787,1.07535 -0.39892,-0.73713 -1.15339,-1.07535 -1.90787,-1.07535 -0.59838,0 -1.20543,0.21681 -1.63036,0.67643 v -0.48564 h -2.06397 v 4.66561 h 2.06397 v -2.93118 c 0,-0.70245 0.45962,-0.97128 0.87588,-0.97128 0.41627,0 0.87589,0.26883 0.87589,0.97128 v 2.93118 h 2.06397 v -2.56695 c 0,-0.12141 -0.009,-0.24282 -0.0174,-0.35556 l 0.0174,-0.009 c 0,-0.70245 0.45962,-0.97128 0.87588,-0.97128 0.41627,0 0.87589,0.26883 0.87589,0.97128 v 2.93118 h 2.06397 v -2.56695 c 0,-1.59568 -1.10136,-2.28945 -2.18538,-2.28945 z"
         style="fill:#f66e4f;fill-opacity:1;stroke-width:0.24175273px"
         id="path4689" />
      <path
         inkscape:connector-curvature="0"
         d="m 128.22382,267.4502 v -1.39621 h -2.06397 v 1.39621 z m 0,5.5415 v -4.66561 h -2.06397 v 4.66561 z"
         style="fill:#f66e4f;fill-opacity:1;stroke-width:0.24175273px"
         id="path4691" />
      <path
         inkscape:connector-curvature="0"
         d="m 131.98672,268.06593 c -1.63904,0 -2.62766,0.63306 -2.62766,1.50895 0,0.60705 0.33821,1.06667 1.89052,1.55231 1.24012,0.39025 1.58701,0.60705 1.58701,0.98862 0,0.32954 -0.3122,0.57236 -0.76315,0.57236 -0.6244,0 -0.92792,-0.32086 -0.94527,-0.84119 h -1.94255 c 0.052,0.7458 1.13605,1.40488 2.88782,1.40488 1.69106,0 2.71438,-0.63306 2.71438,-1.50895 0,-0.73713 -0.37291,-1.19675 -1.93389,-1.66505 -1.23144,-0.3729 -1.54364,-0.55502 -1.54364,-0.89323 0,-0.3122 0.27751,-0.55502 0.67643,-0.55502 0.57236,0 0.78049,0.28618 0.79783,0.80651 h 1.94256 c -0.052,-0.7458 -1.04066,-1.37019 -2.74039,-1.37019 z"
         style="fill:#f66e4f;fill-opacity:1;stroke-width:0.24175273px"
         id="path4693" />
      <path
         inkscape:connector-curvature="0"
         d="m 138.28757,268.06593 c -1.63904,0 -2.62766,0.63306 -2.62766,1.50895 0,0.60705 0.33821,1.06667 1.89052,1.55231 1.24012,0.39025 1.58701,0.60705 1.58701,0.98862 0,0.32954 -0.3122,0.57236 -0.76315,0.57236 -0.6244,0 -0.92792,-0.32086 -0.94527,-0.84119 h -1.94255 c 0.052,0.7458 1.13605,1.40488 2.88782,1.40488 1.69106,0 2.71438,-0.63306 2.71438,-1.50895 0,-0.73713 -0.37291,-1.19675 -1.93389,-1.66505 -1.23144,-0.3729 -1.54364,-0.55502 -1.54364,-0.89323 0,-0.3122 0.27751,-0.55502 0.67643,-0.55502 0.57236,0 0.78049,0.28618 0.79783,0.80651 h 1.94256 c -0.052,-0.7458 -1.04066,-1.37019 -2.74039,-1.37019 z"
         style="fill:#f66e4f;fill-opacity:1;stroke-width:0.24175273px"
         id="path4695" />
      <path
         inkscape:connector-curvature="0"
         d="m 144.11145,266.05399 h -2.06397 v 6.93771 h 2.06397 z m 4.1713,6.93771 -2.33281,-2.93986 1.86451,-1.72575 h -1.2141 l -2.4889,2.29812 1.87318,2.36749 z"
         style="fill:#f66e4f;fill-opacity:1;stroke-width:0.24175273px"
         id="path4697" />
      <path
         inkscape:connector-curvature="0"
         d="m 152.3806,271.36134 v 0.0434 c 0,0.83252 -0.26883,1.29215 -0.86721,1.29215 -0.59838,0 -0.86722,-0.45963 -0.86722,-1.29215 v -0.74581 h 3.91981 c 0,-1.41355 -1.31816,-2.59296 -3.05259,-2.59296 -1.73443,0 -3.05259,1.17941 -3.05259,2.59296 0,1.41356 1.31816,2.59297 3.05259,2.59297 1.23144,0 2.52359,-0.64173 2.93985,-1.89052 z m -0.86721,-2.7404 c 0.59838,0 0.86721,0.45963 0.86721,1.29215 v 0.0694 h -1.73443 v -0.0694 c 0,-0.83252 0.26884,-1.29215 0.86722,-1.29215 z"
         style="fill:#f66e4f;fill-opacity:1;stroke-width:0.24175273px"
         id="path4699" />
      <path
         inkscape:connector-curvature="0"
         d="m 161.23662,268.32609 h -1.04933 l -1.42223,2.61031 -1.51763,-2.61031 h -2.34147 l 2.72305,4.68295 -0.93659,1.71709 h 1.04933 z"
         style="fill:#f66e4f;fill-opacity:1;stroke-width:0.24175273px"
         id="path4701" />
      <path
         inkscape:connector-curvature="0"
         d="m 163.9117,272.9917 v -1.39621 h -2.06397 v 1.39621 z"
         style="fill:#f66e4f;fill-opacity:1;stroke-width:0.24175273px"
         id="path4703" />
      <path
         inkscape:connector-curvature="0"
         d="m 170.77055,268.32609 h -2.06397 v 0.24282 c -0.34688,-0.22548 -0.84987,-0.38157 -1.3702,-0.38157 -1.52629,0 -2.46288,1.19675 -2.46288,2.47155 0,1.27481 0.94526,2.47156 2.47156,2.47156 0.52032,0 1.00596,-0.1561 1.35285,-0.38157 l 0.009,0.32954 c 0.0173,0.97995 -0.46829,1.32684 -0.86721,1.32684 -0.44228,0 -0.74581,-0.3729 -0.74581,-0.83253 h -1.9599 c 0.2168,0.66776 1.13605,1.41356 2.70571,1.41356 1.69974,0 2.93118,-0.89323 2.93118,-2.25475 z m -2.88782,4.05856 c -0.45962,0 -0.82385,-0.29485 -0.82385,-1.00597 v -1.43957 c 0,-0.71112 0.36423,-1.00597 0.82385,-1.00597 0.45962,0 0.82385,0.29485 0.82385,1.00597 v 1.43957 c 0,0.71112 -0.36423,1.00597 -0.82385,1.00597 z"
         style="fill:#f66e4f;fill-opacity:1;stroke-width:0.24175273px"
         id="path4705" />
      <path
         inkscape:connector-curvature="0"
         d="m 174.04049,267.4502 v -1.39621 h -2.06397 v 1.39621 z m 0,5.5415 v -4.66561 h -2.06397 v 4.66561 z"
         style="fill:#f66e4f;fill-opacity:1;stroke-width:0.24175273px"
         id="path4707" />
      <path
         inkscape:connector-curvature="0"
         d="m 178.87873,268.32609 v -0.67643 H 177.734 v -0.95393 h -2.06396 v 0.95393 h -1.14473 v 0.67643 h 1.14473 v 4.66561 h 2.06396 v -4.66561 z"
         style="fill:#f66e4f;fill-opacity:1;stroke-width:0.24175273px"
         id="path4709" />
      <path
         inkscape:connector-curvature="0"
         d="m 183.14243,268.1353 c -0.63306,0 -1.2748,0.22548 -1.71708,0.70245 v -2.78376 h -2.06397 v 6.93771 h 2.06397 v -2.93118 c 0,-0.70245 0.50299,-0.97128 0.96261,-0.97128 0.45962,0 0.96261,0.26883 0.96261,0.97128 v 2.93118 h 2.06396 v -2.56695 c 0,-1.59568 -1.14472,-2.28945 -2.2721,-2.28945 z"
         style="fill:#f66e4f;fill-opacity:1;stroke-width:0.24175273px"
         id="path4711" />
      <path
         inkscape:connector-curvature="0"
         d="m 192.68084,268.32609 h -2.06397 v 2.93118 c 0,0.70244 -0.50298,0.97128 -0.96261,0.97128 -0.45962,0 -0.9626,-0.26884 -0.9626,-0.97128 v -2.93118 h -2.06397 v 2.56695 c 0,1.59568 1.14472,2.28945 2.2721,2.28945 0.63306,0 1.2748,-0.22548 1.71708,-0.70245 v 0.51166 h 2.06397 z"
         style="fill:#f66e4f;fill-opacity:1;stroke-width:0.24175273px"
         id="path4713" />
      <path
         inkscape:connector-curvature="0"
         d="m 197.32816,268.18734 c -0.52033,0 -1.02331,0.15609 -1.3702,0.38157 v -2.51492 h -2.06397 v 6.93771 h 2.06397 l 0.009,-0.24282 c 0.34689,0.22547 0.83253,0.38157 1.35286,0.38157 1.52629,0 2.47155,-1.19675 2.47155,-2.47156 0,-1.2748 -0.93659,-2.47155 -2.46288,-2.47155 z m 0.27751,3.19134 c 0,0.71112 -0.36423,1.00597 -0.82386,1.00597 -0.45962,0 -0.82385,-0.29485 -0.82385,-1.00597 v -1.43957 c 0,-0.71112 0.36423,-1.00597 0.82385,-1.00597 0.45963,0 0.82386,0.29485 0.82386,1.00597 z"
         style="fill:#f66e4f;fill-opacity:1;stroke-width:0.24175273px"
         id="path4715" />
      <path
         inkscape:connector-curvature="0"
         d="m 202.80082,272.9917 v -1.39621 h -2.06397 v 1.39621 z"
         style="fill:#f66e4f;fill-opacity:1;stroke-width:0.24175273px"
         id="path4717" />
      <path
         inkscape:connector-curvature="0"
         d="m 206.08674,267.4502 v -1.39621 h -2.06396 v 1.39621 z m 0,5.5415 v -4.66561 h -2.06396 v 4.66561 z"
         style="fill:#f66e4f;fill-opacity:1;stroke-width:0.24175273px"
         id="path4719" />
      <path
         inkscape:connector-curvature="0"
         d="m 210.10113,268.06593 c -1.73443,0 -3.05259,1.17941 -3.05259,2.59296 0,1.41356 1.31816,2.59297 3.05259,2.59297 1.73443,0 3.05259,-1.17941 3.05259,-2.59297 0,-1.41355 -1.31816,-2.59296 -3.05259,-2.59296 z m 0,0.55501 c 0.56369,0 0.86721,0.45963 0.86721,1.29215 v 1.49161 c 0,0.83252 -0.30352,1.29215 -0.86721,1.29215 -0.56369,0 -0.86721,-0.45963 -0.86721,-1.29215 v -1.49161 c 0,-0.83252 0.30352,-1.29215 0.86721,-1.29215 z"
         style="fill:#f66e4f;fill-opacity:1;stroke-width:0.24175273px"
         id="path4721" />
    </g>
  </g>
</svg>
