<svg xmlns="http://www.w3.org/2000/svg" width="1200" height="630" viewBox="0 0 317.5 166.688"><text style="line-height:56.68144608px;-inkscape-font-specification:'Gen Shin Gothic'" x="12.468" y="245.615" font-weight="400" font-size="16.77" font-family="Gen Shin Gothic" letter-spacing="0" word-spacing="0" fill="#fffc32" stroke-width=".265" transform="translate(0 -130.312)"/><path fill="#fff" paint-order="fill markers stroke" d="M0 0h317.5v166.688H0z"/><g stroke-width="7.08"><g aria-label="Mi" style="line-height:476.69509888px;-inkscape-font-specification:'OTADESIGN Rounded'" font-weight="400" font-size="141.034" font-family="OTADESIGN Rounded" letter-spacing="0" word-spacing="0" stroke-width="2.051" fill="#2fa1bb"><path d="M91.816 143.296c-.828.003-1.539-.496-1.874-1.077-.18-.253-.534-.344-.539 0v1.589c0 .638-.232 1.19-.698 1.655a2.252 2.252 0 0 1-1.655.678c-.638 0-1.19-.226-1.655-.678a2.295 2.295 0 0 1-.678-1.655v-8.735c0-.492.14-.938.419-1.336a2.277 2.277 0 0 1 1.116-.858c.253-.093.519-.14.798-.14.718 0 1.316.28 1.795.838.253.28.399.425.439.439 0 0 1.896 2.292 1.949 2.332.053.04.21.345.583.345.375 0 .55-.305.604-.345.053-.04 1.95-2.332 1.95-2.332.012.013.152-.133.418-.439.492-.558 1.097-.838 1.815-.838.266 0 .532.047.797.14.452.16.818.445 1.097.858.293.398.439.844.439 1.336v8.735c0 .638-.233 1.19-.698 1.655a2.252 2.252 0 0 1-1.655.678c-.638 0-1.19-.226-1.656-.678a2.295 2.295 0 0 1-.678-1.655v-1.589c-.039-.433-.422-.16-.558 0-.359.665-1.047 1.074-1.875 1.077zM101.805 136.768q-.838 0-1.436-.578-.578-.599-.578-1.436 0-.838.578-1.416.598-.599 1.436-.599t1.436.599q.598.578.598 1.416 0 .837-.598 1.436-.598.578-1.436.578zm.02.399q.838 0 1.416.598.598.598.598 1.436v4.926q0 .837-.598 1.436-.578.578-1.416.578t-1.436-.578q-.598-.599-.598-1.436V139.2q0-.838.598-1.436t1.436-.598z" style="-inkscape-font-specification:'OTADESIGN Rounded'"/></g><path d="M97.628 141.681a.01.01 0 0 0-.005.001c-.045.026-.076.817-.094 1.906h-.785v4.713h.786c.017 1.089.048 1.88.093 1.906.148.085 7.383-4.092 7.383-4.263 0-.169-7.123-4.282-7.378-4.263z" fill="#f66e4f" paint-order="fill markers stroke"/></g><g style="line-height:29.31182671px;-inkscape-font-specification:'Nu Hanafudaya'" aria-label="joinmisskey.github.io" font-weight="400" font-size="8.672" font-family="Nu Hanafudaya" letter-spacing="0" word-spacing="0" fill="#f66e4f" stroke-width=".265"><path d="M116.315 137.291v-1.396h-2.064v1.396zm0 .876h-2.064v4.761c0 .729-.442 1.006-.962 1.006-.226 0-.408-.043-.512-.095v.754c.139.035.451.06.902.06 1.89 0 2.636-.736 2.636-1.855zM120.33 137.907c-1.735 0-3.053 1.18-3.053 2.593 0 1.414 1.318 2.593 3.053 2.593 1.734 0 3.052-1.18 3.052-2.593 0-1.414-1.318-2.593-3.052-2.593zm0 .555c.563 0 .867.46.867 1.292v1.492c0 .832-.304 1.292-.867 1.292-.564 0-.868-.46-.868-1.292v-1.492c0-.832.304-1.292.868-1.292zM126.393 137.291v-1.396h-2.064v1.396zm0 5.542v-4.666h-2.064v4.666zM131.396 137.976c-.633 0-1.275.226-1.717.703v-.512h-2.064v4.666h2.064v-2.931c0-.703.503-.972.963-.972.46 0 .962.27.962.972v2.93h2.064v-2.566c0-1.596-1.144-2.29-2.272-2.29zM142.392 137.976c-.755 0-1.51.339-1.908 1.076-.4-.737-1.154-1.076-1.908-1.076-.599 0-1.206.217-1.63.677v-.486h-2.065v4.666h2.064v-2.931c0-.703.46-.972.876-.972.417 0 .876.27.876.972v2.93h2.064v-2.566c0-.122-.009-.243-.017-.356l.017-.009c0-.702.46-.971.876-.971s.876.269.876.971v2.931h2.064v-2.567c0-1.595-1.101-2.289-2.185-2.289zM147.853 137.291v-1.396h-2.064v1.396zm0 5.542v-4.666h-2.064v4.666zM151.616 137.907c-1.639 0-2.627.633-2.627 1.509 0 .607.338 1.067 1.89 1.552 1.24.39 1.587.607 1.587.989 0 .33-.312.572-.763.572-.624 0-.928-.32-.945-.84h-1.943c.052.745 1.136 1.404 2.888 1.404 1.691 0 2.714-.633 2.714-1.509 0-.737-.373-1.197-1.934-1.665-1.231-.373-1.543-.555-1.543-.893 0-.312.277-.555.676-.555.573 0 .78.286.798.806h1.943c-.052-.746-1.041-1.37-2.74-1.37zM157.917 137.907c-1.639 0-2.628.633-2.628 1.509 0 .607.339 1.067 1.891 1.552 1.24.39 1.587.607 1.587.989 0 .33-.312.572-.763.572-.625 0-.928-.32-.945-.84h-1.943c.052.745 1.136 1.404 2.888 1.404 1.69 0 2.714-.633 2.714-1.509 0-.737-.373-1.197-1.934-1.665-1.231-.373-1.543-.555-1.543-.893 0-.312.277-.555.676-.555.572 0 .78.286.798.806h1.943c-.052-.746-1.041-1.37-2.74-1.37zM163.741 135.895h-2.064v6.938h2.064zm4.171 6.938l-2.333-2.94 1.865-1.726h-1.214l-2.489 2.298 1.873 2.368zM172.01 141.202v.044c0 .832-.269 1.292-.867 1.292s-.867-.46-.867-1.292v-.746h3.92c0-1.414-1.319-2.593-3.053-2.593s-3.053 1.18-3.053 2.593c0 1.414 1.319 2.593 3.053 2.593 1.231 0 2.524-.642 2.94-1.89zm-.867-2.74c.598 0 .867.46.867 1.292v.07h-1.734v-.07c0-.832.269-1.292.867-1.292zM180.866 138.167h-1.05l-1.421 2.61-1.518-2.61h-2.341l2.723 4.683-.937 1.717h1.05zM183.541 142.833v-1.396h-2.064v1.396zM190.4 138.167h-2.064v.243c-.347-.225-.85-.382-1.37-.382-1.526 0-2.463 1.197-2.463 2.472s.945 2.472 2.472 2.472c.52 0 1.006-.157 1.352-.382l.01.33c.017.98-.469 1.326-.868 1.326-.442 0-.746-.373-.746-.832h-1.96c.217.668 1.137 1.413 2.706 1.413 1.7 0 2.931-.893 2.931-2.254zm-2.888 4.059c-.46 0-.824-.295-.824-1.006v-1.44c0-.71.365-1.006.824-1.006.46 0 .824.295.824 1.006v1.44c0 .71-.364 1.006-.824 1.006zM193.67 137.291v-1.396h-2.064v1.396zm0 5.542v-4.666h-2.064v4.666zM198.508 138.167v-.676h-1.144v-.954H195.3v.954h-1.145v.676h1.145v4.666h2.064v-4.666zM202.772 137.976c-.633 0-1.275.226-1.717.703v-2.784h-2.064v6.938h2.064v-2.931c0-.703.503-.972.963-.972.46 0 .962.27.962.972v2.93h2.064v-2.566c0-1.596-1.145-2.29-2.272-2.29zM212.31 138.167h-2.064v2.931c0 .703-.503.972-.962.972-.46 0-.963-.27-.963-.972v-2.93h-2.064v2.566c0 1.596 1.145 2.29 2.272 2.29.633 0 1.275-.226 1.717-.703v.512h2.064zM216.958 138.028c-.52 0-1.024.157-1.37.382v-2.515h-2.064v6.938h2.064l.009-.243c.346.225.832.382 1.352.382 1.527 0 2.472-1.197 2.472-2.472s-.937-2.472-2.463-2.472zm.277 3.192c0 .71-.364 1.006-.824 1.006-.46 0-.823-.295-.823-1.006v-1.44c0-.71.364-1.006.823-1.006.46 0 .824.295.824 1.006zM222.43 142.833v-1.396h-2.064v1.396zM225.716 137.291v-1.396h-2.064v1.396zm0 5.542v-4.666h-2.064v4.666zM229.73 137.907c-1.734 0-3.052 1.18-3.052 2.593 0 1.414 1.318 2.593 3.053 2.593 1.734 0 3.052-1.18 3.052-2.593 0-1.414-1.318-2.593-3.052-2.593zm0 .555c.564 0 .868.46.868 1.292v1.492c0 .832-.304 1.292-.867 1.292-.564 0-.868-.46-.868-1.292v-1.492c0-.832.304-1.292.868-1.292z"/></g><g word-spacing="0" letter-spacing="0" font-weight="400" font-family="OTADESIGN Rounded" fill="#212d3a" stroke-width=".673"><g style="line-height:476.69509888px;-inkscape-font-specification:'OTADESIGN Rounded'"><path font-size="141.034" aria-label="Mi" d="M78.96 88.218c-2.488.009-4.625-1.491-5.632-3.236-.54-.762-1.604-1.034-1.62 0v4.773c0 1.917-.697 3.576-2.096 4.975-1.359 1.357-3.016 2.036-4.975 2.036-1.916 0-3.575-.679-4.974-2.038-1.357-1.397-2.038-3.056-2.038-4.973v-26.25c0-1.477.42-2.815 1.26-4.014.878-1.239 1.997-2.098 3.356-2.577a6.88 6.88 0 0 1 2.396-.42c2.158 0 3.956.84 5.394 2.517.759.84 1.198 1.278 1.318 1.32 0 0 5.697 6.889 5.858 7.009.16.119.63 1.035 1.752 1.035 1.126 0 1.656-.916 1.815-1.037.16-.118 5.857-7.01 5.857-7.01.04.042.46-.397 1.258-1.317 1.48-1.678 3.297-2.517 5.455-2.517.799 0 1.598.14 2.397.42 1.357.479 2.456 1.337 3.297 2.577a6.633 6.633 0 0 1 1.317 4.014v26.25c0 1.917-.698 3.576-2.097 4.975-1.359 1.357-3.018 2.036-4.975 2.036-1.917 0-3.575-.679-4.975-2.038-1.357-1.397-2.036-3.056-2.036-4.973v-4.773c-.119-1.303-1.27-.482-1.678 0-1.079 1.997-3.146 3.227-5.633 3.237zm30.016-19.619q-2.517 0-4.314-1.737-1.738-1.797-1.738-4.315 0-2.517 1.738-4.254 1.797-1.797 4.314-1.797 2.518 0 4.316 1.797 1.797 1.737 1.797 4.254 0 2.518-1.797 4.315-1.798 1.737-4.316 1.737zm.06 1.2q2.517 0 4.256 1.797 1.797 1.797 1.797 4.316v14.802q0 2.517-1.797 4.314-1.738 1.738-4.256 1.738-2.516 0-4.315-1.738-1.797-1.797-1.797-4.314V75.912q0-2.517 1.797-4.316 1.797-1.797 4.315-1.797z" style="-inkscape-font-specification:'OTADESIGN Rounded'"/></g><path d="M128.46 77.302q1.437.36 3.594.78 3.594.598 5.631 1.916 3.835 2.517 3.835 7.548 0 4.074-2.696 6.65-3.116 2.996-8.688 2.996-4.072 0-9.103-1.139-1.62-.36-2.638-1.617-.958-1.258-.958-2.816 0-1.916 1.317-3.235 1.379-1.378 3.236-1.378.54 0 1.018.12 1.737.36 6.65.9.66 0 1.438-.06.3 0 .3-.36.059-.3-.36-.42-2.037-.36-3.775-.778-1.975-.419-2.816-.719-1.676-.48-2.814-1.258-3.835-2.516-3.894-7.549 0-4.013 2.755-6.649 3.356-3.236 9.525-2.936 4.134.18 8.268 1.078 1.557.36 2.575 1.62 1.02 1.256 1.02 2.874 0 1.857-1.38 3.235-1.316 1.317-3.234 1.317-.48 0-.958-.118-1.737-.36-6.71-.84-.6-.059-1.138 0-.48.06-.48.36.06.36.48.48zm26.07 0q1.438.36 3.595.78 3.594.598 5.631 1.916 3.833 2.517 3.833 7.548 0 4.074-2.695 6.65-3.116 2.996-8.687 2.996-4.073 0-9.105-1.139-1.619-.36-2.636-1.617-.96-1.258-.96-2.816 0-1.916 1.32-3.235 1.376-1.378 3.234-1.378.54 0 1.019.12 1.738.36 6.649.9.66 0 1.437-.06.3 0 .3-.36.06-.3-.359-.42-2.036-.36-3.774-.778-1.976-.419-2.815-.719-1.679-.48-2.816-1.258-3.835-2.516-3.894-7.549 0-4.013 2.755-6.649 3.356-3.236 9.525-2.936 4.135.18 8.268 1.078 1.558.36 2.577 1.62 1.017 1.256 1.017 2.874 0 1.857-1.377 3.235-1.319 1.317-3.236 1.317-.478 0-.958-.118-1.737-.36-6.71-.84-.598-.059-1.139 0-.478.06-.478.36.06.36.478.48zm38.725 4.953q.178.119 4.254 4.133 1.856 1.797 1.856 4.374 0 2.395-1.738 4.253-1.737 1.797-4.312 1.797-2.457 0-4.254-1.738l-5.99-5.81q-.24-.179-.48-.179-.479 0-.479 1.797 0 2.516-1.797 4.313-1.797 1.737-4.314 1.737-2.516 0-4.313-1.737-1.737-1.797-1.737-4.315V62.965q0-2.516 1.737-4.254 1.797-1.797 4.313-1.797t4.313 1.797q1.797 1.738 1.797 4.254v9.346q0 .598.42.778.36.18.778-.119.241-.12 7.19-4.735 1.558-.957 3.355-.957 3.295 0 5.092 2.695.958 1.56.958 3.356 0 3.294-2.695 5.091l-3.774 2.397v.06l-.12.06q-.84.538-.06 1.318zm23.167 14.937q-6.23 0-10.664-4.373-4.373-4.434-4.373-10.664 0-6.17 4.373-10.544 4.433-4.433 10.664-4.433 6.17 0 10.364 4.135 1.378 1.376 1.378 3.354 0 1.976-1.378 3.355l-6.95 6.89q-1.497 1.497-2.994 1.497-2.158 0-3.357-1.199-1.197-1.198-1.197-3.175 0-1.916 1.379-3.294l1.197-1.258q.24-.18.12-.36-.178-.12-.48-.06-1.197.3-2.036 1.198-1.678 1.62-1.678 3.894 0 2.336 1.619 4.015 1.678 1.617 4.013 1.617 2.276 0 3.893-1.678 1.379-1.377 3.357-1.377 1.975 0 3.353 1.377 1.378 1.378 1.378 3.356 0 1.975-1.378 3.354-4.433 4.373-10.603 4.373zm43.453-23.444v8.327q0 .838-.12 1.797v10.963q0 6.71-4.074 10.723-4.013 4.014-10.843 4.014-3.954 0-7.129-1.497-3.175-1.437-3.175-4.972 0-1.199.54-2.277 1.437-3.236 4.971-3.236.84 0 2.336.48 1.499.48 2.457.48 2.516 0 3.295-1.079.299-.42.119-.659-.24-.36-.838-.24-1.018.18-2.217.18-6.05 0-10.364-4.314-4.313-4.312-4.313-10.363v-8.327q0-2.517 1.737-4.253 1.797-1.797 4.313-1.797t4.314 1.797q1.797 1.737 1.797 4.253v8.327q0 1.018.72 1.797.777.719 1.796.719 1.078 0 1.797-.719.719-.78.719-1.797v-8.327q0-2.517 1.797-4.253 1.797-1.797 4.314-1.797 2.516 0 4.254 1.797 1.797 1.737 1.797 4.253z" style="line-height:136.34428406px;-inkscape-font-specification:'OTADESIGN Rounded'"/></g><text style="line-height:57.24346924px;-inkscape-font-specification:'MGC bold, '" x="18.49" y="169.88" font-weight="400" font-size="16.936" font-family="MGC bold" letter-spacing="0" word-spacing="0" fill="#212d3a" stroke-width=".265" transform="translate(0 -130.312)"><tspan x="18.49" y="169.88" style="-inkscape-font-specification:'MGC bold, '">新しい世界で繋がろう</tspan></text><text y="254.125" x="19.443" style="line-height:27.10899353px;-inkscape-font-specification:'MGC bold, '" font-weight="400" font-size="8.02" font-family="MGC bold" letter-spacing="0" word-spacing="0" fill="#212d3a" stroke-width=".265" transform="translate(0 -130.312)"><tspan style="-inkscape-font-specification:'MGC bold, '" y="254.125" x="19.443">全てがオープンソースの、効率的で究極に洗練された分散マイクロブログSNS</tspan></text><text style="line-height:13.41437531px;-inkscape-font-specification:'Nu Hanafudaya'" x="11.989" y="308.989" font-weight="400" font-size="3.969" font-family="Nu Hanafudaya" letter-spacing="0" word-spacing="0" stroke-width=".265" transform="translate(0 -130.312)"><tspan x="11.989" y="308.989" style="-inkscape-font-specification:'MGC bold, '" font-family="MGC bold">MGC = Noto Sans CJK JP(Japanese) + M+C (ASCII)</tspan></text></svg>