<?xml version="1.0" encoding="UTF-8" standalone="no"?>
<!-- Created with Inkscape (http://www.inkscape.org/) -->

<svg
   xmlns:dc="http://purl.org/dc/elements/1.1/"
   xmlns:cc="http://creativecommons.org/ns#"
   xmlns:rdf="http://www.w3.org/1999/02/22-rdf-syntax-ns#"
   xmlns:svg="http://www.w3.org/2000/svg"
   xmlns="http://www.w3.org/2000/svg"
   xmlns:sodipodi="http://sodipodi.sourceforge.net/DTD/sodipodi-0.dtd"
   xmlns:inkscape="http://www.inkscape.org/namespaces/inkscape"
   width="1200"
   height="630"
   viewBox="0 0 317.49999 166.68751"
   version="1.1"
   id="svg8"
   inkscape:version="0.92.1 r15371"
   sodipodi:docname="thumb.svg"
   inkscape:export-filename="G:\suiranfesCOM\2018\files\images\icons\banner3.png"
   inkscape:export-xdpi="96"
   inkscape:export-ydpi="96">
  <defs
     id="defs2">
    <filter
       style="color-interpolation-filters:sRGB"
       inkscape:label="Drop Shadow"
       id="filter4771">
      <feFlood
         flood-opacity="1"
         flood-color="rgb(0,0,0)"
         result="flood"
         id="feFlood4773" />
      <feComposite
         in="flood"
         in2="SourceGraphic"
         operator="in"
         result="composite1"
         id="feComposite4775" />
      <feGaussianBlur
         in="composite1"
         stdDeviation="5"
         result="blur"
         id="feGaussianBlur4777" />
      <feOffset
         dx="0"
         dy="0"
         result="offset"
         id="feOffset4779" />
      <feComposite
         in="SourceGraphic"
         in2="offset"
         operator="over"
         result="composite2"
         id="feComposite4781" />
    </filter>
    <filter
       style="color-interpolation-filters:sRGB"
       inkscape:label="Drop Shadow"
       id="filter4758">
      <feFlood
         flood-opacity="1"
         flood-color="rgb(0,0,0)"
         result="flood"
         id="feFlood4760" />
      <feComposite
         in="flood"
         in2="SourceGraphic"
         operator="in"
         result="composite1"
         id="feComposite4762" />
      <feGaussianBlur
         in="composite1"
         stdDeviation="5"
         result="blur"
         id="feGaussianBlur4764" />
      <feOffset
         dx="0"
         dy="0"
         result="offset"
         id="feOffset4766" />
      <feComposite
         in="SourceGraphic"
         in2="offset"
         operator="over"
         result="composite2"
         id="feComposite4768" />
    </filter>
    <filter
       style="color-interpolation-filters:sRGB"
       inkscape:label="Drop Shadow"
       id="filter4746">
      <feFlood
         flood-opacity="1"
         flood-color="rgb(0,0,0)"
         result="flood"
         id="feFlood4748" />
      <feComposite
         in="flood"
         in2="SourceGraphic"
         operator="in"
         result="composite1"
         id="feComposite4750" />
      <feGaussianBlur
         in="composite1"
         stdDeviation="5"
         result="blur"
         id="feGaussianBlur4752" />
      <feOffset
         dx="0"
         dy="0"
         result="offset"
         id="feOffset4754" />
      <feComposite
         in="SourceGraphic"
         in2="offset"
         operator="over"
         result="composite2"
         id="feComposite4756" />
    </filter>
    <filter
       style="color-interpolation-filters:sRGB"
       inkscape:label="Drop Shadow"
       id="filter4734">
      <feFlood
         flood-opacity="1"
         flood-color="rgb(0,0,0)"
         result="flood"
         id="feFlood4736" />
      <feComposite
         in="flood"
         in2="SourceGraphic"
         operator="in"
         result="composite1"
         id="feComposite4738" />
      <feGaussianBlur
         in="composite1"
         stdDeviation="5"
         result="blur"
         id="feGaussianBlur4740" />
      <feOffset
         dx="0"
         dy="0"
         result="offset"
         id="feOffset4742" />
      <feComposite
         in="SourceGraphic"
         in2="offset"
         operator="over"
         result="composite2"
         id="feComposite4744" />
    </filter>
    <filter
       style="color-interpolation-filters:sRGB"
       inkscape:label="Drop Shadow"
       id="filter4207">
      <feFlood
         flood-opacity="1"
         flood-color="rgb(0,0,0)"
         result="flood"
         id="feFlood4209" />
      <feComposite
         in="flood"
         in2="SourceGraphic"
         operator="in"
         result="composite1"
         id="feComposite4211" />
      <feGaussianBlur
         in="composite1"
         stdDeviation="5"
         result="blur"
         id="feGaussianBlur4213" />
      <feOffset
         dx="0"
         dy="0"
         result="offset"
         id="feOffset4215" />
      <feComposite
         in="SourceGraphic"
         in2="offset"
         operator="over"
         result="composite2"
         id="feComposite4217" />
    </filter>
    <inkscape:path-effect
       effect="simplify"
       id="path-effect5115"
       is_visible="true"
       steps="1"
       threshold="0.000408163"
       smooth_angles="360"
       helper_size="0"
       simplify_individual_paths="false"
       simplify_just_coalesce="false"
       simplifyindividualpaths="false"
       simplifyJustCoalesce="false" />
    <inkscape:path-effect
       effect="simplify"
       id="path-effect5111"
       is_visible="true"
       steps="1"
       threshold="0.000408163"
       smooth_angles="360"
       helper_size="0"
       simplify_individual_paths="false"
       simplify_just_coalesce="false"
       simplifyindividualpaths="false"
       simplifyJustCoalesce="false" />
    <inkscape:path-effect
       effect="simplify"
       id="path-effect5104"
       is_visible="true"
       steps="1"
       threshold="0.000408163"
       smooth_angles="360"
       helper_size="0"
       simplify_individual_paths="false"
       simplify_just_coalesce="false"
       simplifyindividualpaths="false"
       simplifyJustCoalesce="false" />
  </defs>
  <sodipodi:namedview
     id="base"
     pagecolor="#ffffff"
     bordercolor="#666666"
     borderopacity="1.0"
     inkscape:pageopacity="0.0"
     inkscape:pageshadow="2"
     inkscape:zoom="0.45254834"
     inkscape:cx="765.22742"
     inkscape:cy="288.3439"
     inkscape:document-units="mm"
     inkscape:current-layer="layer1"
     showgrid="false"
     units="px"
     inkscape:snap-page="true"
     inkscape:snap-bbox="true"
     inkscape:snap-bbox-edge-midpoints="true"
     inkscape:bbox-nodes="true"
     inkscape:snap-bbox-midpoints="true"
     inkscape:window-width="1920"
     inkscape:window-height="958"
     inkscape:window-x="-8"
     inkscape:window-y="-1"
     inkscape:window-maximized="1"
     showguides="false" />
  <metadata
     id="metadata5">
    <rdf:RDF>
      <cc:Work
         rdf:about="">
        <dc:format>image/svg+xml</dc:format>
        <dc:type
           rdf:resource="http://purl.org/dc/dcmitype/StillImage" />
        <dc:title />
      </cc:Work>
    </rdf:RDF>
  </metadata>
  <g
     inkscape:label="レイヤー 1"
     inkscape:groupmode="layer"
     id="layer1"
     transform="translate(0,-130.31248)">
    <text
       xml:space="preserve"
       style="font-style:normal;font-variant:normal;font-weight:normal;font-stretch:normal;font-size:16.76965904px;line-height:56.68144608px;font-family:'Gen Shin Gothic';-inkscape-font-specification:'Gen Shin Gothic';letter-spacing:0px;word-spacing:0px;fill:#fffc32;fill-opacity:1;stroke:none;stroke-width:0.26458332px;stroke-linecap:butt;stroke-linejoin:miter;stroke-opacity:1"
       x="12.467895"
       y="245.61456"
       id="text4570"><tspan
         sodipodi:role="line"
         id="tspan4568"
         x="12.467895"
         y="279.99826"
         style="font-style:normal;font-variant:normal;font-weight:normal;font-stretch:normal;font-family:MgC;-inkscape-font-specification:MgC;fill:#fffc32;fill-opacity:1;stroke-width:0.26458332px" /></text>
    <rect
       y="130.31248"
       x="-6.0159282e-014"
       height="166.6875"
       width="317.5"
       id="rect4564"
       style="opacity:1;fill:#ffffff;fill-opacity:1;fill-rule:nonzero;stroke:none;stroke-width:3.70416665;stroke-linecap:round;stroke-linejoin:round;stroke-miterlimit:4;stroke-dasharray:none;stroke-dashoffset:0;stroke-opacity:1;paint-order:fill markers stroke" />
    <g
       id="g4752"
       transform="translate(19.629559,0.15355978)">
      <g
         style="stroke-width:7.08021975"
         transform="matrix(0.14123854,0,0,0.14123854,67.524845,241.89835)"
         id="g4675">
        <g
           id="g5125"
           transform="matrix(1.0954843,0,0,1.0954843,-39.33075,-37.365806)"
           style="fill:#2fa1bb;fill-opacity:1;stroke-width:7.08417368">
          <g
             aria-label="Mi"
             style="font-style:normal;font-variant:normal;font-weight:normal;font-stretch:normal;font-size:141.03404236px;line-height:476.69509888px;font-family:'OTADESIGN Rounded';-inkscape-font-specification:'OTADESIGN Rounded';letter-spacing:0px;word-spacing:0px;fill:#2fa1bb;fill-opacity:1;stroke:none;stroke-width:2.05091095px;stroke-linecap:butt;stroke-linejoin:miter;stroke-opacity:1"
             id="text4489"
             transform="matrix(0.91391326,0,0,0.91391326,-2.6894693,26.792807)">
            <path
               d="m 75.196381,231.17126 c -5.855419,0.0202 -10.885068,-3.50766 -13.2572,-7.61584 -1.266603,-1.79454 -3.772419,-2.43291 -3.807919,0 v 11.2332 c 0,4.51309 -1.645397,8.41504 -4.936191,11.70583 -3.196772,3.19677 -7.098714,4.79516 -11.705826,4.79516 -4.513089,0 -8.415031,-1.59839 -11.705825,-4.79516 -3.196772,-3.29079 -4.795158,-7.19274 -4.795158,-11.70583 v -61.7729 c 0,-3.47884 0.987238,-6.6286 2.961715,-9.44928 2.068499,-2.91471 4.701135,-4.9362 7.897906,-6.06447 1.786431,-0.65816 3.666885,-0.98724 5.641362,-0.98724 5.077225,0 9.308247,1.97448 12.693064,5.92343 1.786431,1.97448 2.820681,3.00873 3.102749,3.10275 0,0 13.408119,16.21319 13.78421,16.49526 0.376091,0.28206 1.480789,2.43848 4.127113,2.43848 2.646324,0 3.89218,-2.15642 4.26827,-2.43848 0.376091,-0.28207 13.784088,-16.49526 13.784088,-16.49526 0.09402,0.094 1.081261,-0.94022 2.961715,-3.10275 3.478837,-3.94895 7.756866,-5.92343 12.834096,-5.92343 1.88045,0 3.76091,0.32908 5.64136,0.98724 3.19677,1.12827 5.7824,3.14976 7.75688,6.06447 2.06849,2.82068 3.10274,5.97044 3.10274,9.44928 v 61.7729 c 0,4.51309 -1.6454,8.41504 -4.93619,11.70583 -3.19677,3.19677 -7.09871,4.79516 -11.70582,4.79516 -4.51309,0 -8.41504,-1.59839 -11.705828,-4.79516 -3.196772,-3.29079 -4.795158,-7.19274 -4.795158,-11.70583 v -11.2332 c -0.277898,-3.06563 -2.987588,-1.13379 -3.948953,0 -2.538613,4.70114 -7.401781,7.59567 -13.2572,7.61584 z"
               style="font-style:normal;font-variant:normal;font-weight:normal;font-stretch:normal;font-family:'OTADESIGN Rounded';-inkscape-font-specification:'OTADESIGN Rounded';fill:#2fa1bb;fill-opacity:1;stroke-width:2.05091095px"
               id="path5210"
               inkscape:connector-curvature="0"
               sodipodi:nodetypes="zccssscssccscczzzccsccsscscsccz" />
            <path
               d="m 145.83461,185.00361 q -5.92343,0 -10.15445,-4.08999 -4.08999,-4.23102 -4.08999,-10.15445 0,-5.92343 4.08999,-10.01342 4.23102,-4.23102 10.15445,-4.23102 5.92343,0 10.15445,4.23102 4.23102,4.08999 4.23102,10.01342 0,5.92343 -4.23102,10.15445 -4.23102,4.08999 -10.15445,4.08999 z m 0.14103,2.82068 q 5.92343,0 10.01342,4.23102 4.23102,4.23102 4.23102,10.15445 v 34.83541 q 0,5.92343 -4.23102,10.15445 -4.08999,4.08999 -10.01342,4.08999 -5.92343,0 -10.15445,-4.08999 -4.23102,-4.23102 -4.23102,-10.15445 v -34.83541 q 0,-5.92343 4.23102,-10.15445 4.23102,-4.23102 10.15445,-4.23102 z"
               style="font-style:normal;font-variant:normal;font-weight:normal;font-stretch:normal;font-family:'OTADESIGN Rounded';-inkscape-font-specification:'OTADESIGN Rounded';fill:#2fa1bb;fill-opacity:1;stroke-width:2.05091095px"
               id="path5212"
               inkscape:connector-curvature="0" />
          </g>
        </g>
        <path
           inkscape:connector-curvature="0"
           id="rect4566"
           d="m 74.15371,211.99359 c -0.0142,8.2e-4 -0.0253,0.004 -0.0337,0.009 -0.31761,0.18338 -0.53794,5.78472 -0.66227,13.49271 h -5.55913 v 33.37061 h 5.56036 c 0.12492,7.70803 0.34561,13.30959 0.66324,13.49295 1.04542,0.60352 52.26909,-28.97293 52.26905,-30.18005 -4e-5,-1.1977 -50.42858,-30.31947 -52.23761,-30.18485 z"
           style="opacity:1;fill:#f66e4f;fill-opacity:1;fill-rule:nonzero;stroke:none;stroke-width:26.22632027;stroke-linecap:round;stroke-linejoin:round;stroke-miterlimit:4;stroke-dasharray:none;stroke-dashoffset:0;stroke-opacity:1;paint-order:fill markers stroke" />
      </g>
      <g
         id="text4679"
         style="font-style:normal;font-variant:normal;font-weight:normal;font-stretch:normal;font-size:8.67213726px;line-height:29.31182671px;font-family:'Nu Hanafudaya';-inkscape-font-specification:'Nu Hanafudaya';letter-spacing:0px;word-spacing:0px;fill:#f66e4f;fill-opacity:1;stroke:none;stroke-width:0.26458332px;stroke-linecap:butt;stroke-linejoin:miter;stroke-opacity:1"
         aria-label="joinmisskey.github.io">
        <path
           id="path4681"
           style="fill:#f66e4f;fill-opacity:1;stroke-width:0.26458332px"
           d="m 96.685697,267.4502 v -1.39621 h -2.063968 v 1.39621 z m 0,0.87589 h -2.063968 v 4.761 c 0,0.72846 -0.442279,1.00597 -0.962608,1.00597 -0.225475,0 -0.40759,-0.0434 -0.511656,-0.0954 v 0.75447 c 0.138754,0.0347 0.450951,0.0607 0.901903,0.0607 1.890525,0 2.636329,-0.73713 2.636329,-1.85584 z"
           inkscape:connector-curvature="0" />
        <path
           id="path4683"
           style="fill:#f66e4f;fill-opacity:1;stroke-width:0.26458332px"
           d="m 100.70008,268.06593 c -1.734424,0 -3.052588,1.17941 -3.052588,2.59296 0,1.41356 1.318164,2.59297 3.052588,2.59297 1.73443,0 3.0526,-1.17941 3.0526,-2.59297 0,-1.41355 -1.31817,-2.59296 -3.0526,-2.59296 z m 0,0.55501 c 0.56369,0 0.86722,0.45963 0.86722,1.29215 v 1.49161 c 0,0.83252 -0.30353,1.29215 -0.86722,1.29215 -0.56369,0 -0.86721,-0.45963 -0.86721,-1.29215 v -1.49161 c 0,-0.83252 0.30352,-1.29215 0.86721,-1.29215 z"
           inkscape:connector-curvature="0" />
        <path
           id="path4685"
           style="fill:#f66e4f;fill-opacity:1;stroke-width:0.26458332px"
           d="m 106.76367,267.4502 v -1.39621 h -2.06397 v 1.39621 z m 0,5.5415 v -4.66561 h -2.06397 v 4.66561 z"
           inkscape:connector-curvature="0" />
        <path
           id="path4687"
           style="fill:#f66e4f;fill-opacity:1;stroke-width:0.26458332px"
           d="m 111.76668,268.1353 c -0.63307,0 -1.2748,0.22548 -1.71708,0.70245 v -0.51166 h -2.06397 v 4.66561 h 2.06397 v -2.93118 c 0,-0.70245 0.50298,-0.97128 0.9626,-0.97128 0.45963,0 0.96261,0.26883 0.96261,0.97128 v 2.93118 h 2.06397 v -2.56695 c 0,-1.59568 -1.14472,-2.28945 -2.2721,-2.28945 z"
           inkscape:connector-curvature="0" />
        <path
           id="path4689"
           style="fill:#f66e4f;fill-opacity:1;stroke-width:0.26458332px"
           d="m 122.762,268.1353 c -0.75448,0 -1.50895,0.33822 -1.90787,1.07535 -0.39892,-0.73713 -1.15339,-1.07535 -1.90787,-1.07535 -0.59838,0 -1.20543,0.21681 -1.63036,0.67643 v -0.48564 h -2.06397 v 4.66561 h 2.06397 v -2.93118 c 0,-0.70245 0.45962,-0.97128 0.87588,-0.97128 0.41627,0 0.87589,0.26883 0.87589,0.97128 v 2.93118 h 2.06397 v -2.56695 c 0,-0.12141 -0.009,-0.24282 -0.0174,-0.35556 l 0.0174,-0.009 c 0,-0.70245 0.45962,-0.97128 0.87588,-0.97128 0.41627,0 0.87589,0.26883 0.87589,0.97128 v 2.93118 h 2.06397 v -2.56695 c 0,-1.59568 -1.10136,-2.28945 -2.18538,-2.28945 z"
           inkscape:connector-curvature="0" />
        <path
           id="path4691"
           style="fill:#f66e4f;fill-opacity:1;stroke-width:0.26458332px"
           d="m 128.22382,267.4502 v -1.39621 h -2.06397 v 1.39621 z m 0,5.5415 v -4.66561 h -2.06397 v 4.66561 z"
           inkscape:connector-curvature="0" />
        <path
           id="path4693"
           style="fill:#f66e4f;fill-opacity:1;stroke-width:0.26458332px"
           d="m 131.98672,268.06593 c -1.63904,0 -2.62766,0.63306 -2.62766,1.50895 0,0.60705 0.33821,1.06667 1.89052,1.55231 1.24012,0.39025 1.58701,0.60705 1.58701,0.98862 0,0.32954 -0.3122,0.57236 -0.76315,0.57236 -0.6244,0 -0.92792,-0.32086 -0.94527,-0.84119 h -1.94255 c 0.052,0.7458 1.13605,1.40488 2.88782,1.40488 1.69106,0 2.71438,-0.63306 2.71438,-1.50895 0,-0.73713 -0.37291,-1.19675 -1.93389,-1.66505 -1.23144,-0.3729 -1.54364,-0.55502 -1.54364,-0.89323 0,-0.3122 0.27751,-0.55502 0.67643,-0.55502 0.57236,0 0.78049,0.28618 0.79783,0.80651 h 1.94256 c -0.052,-0.7458 -1.04066,-1.37019 -2.74039,-1.37019 z"
           inkscape:connector-curvature="0" />
        <path
           id="path4695"
           style="fill:#f66e4f;fill-opacity:1;stroke-width:0.26458332px"
           d="m 138.28757,268.06593 c -1.63904,0 -2.62766,0.63306 -2.62766,1.50895 0,0.60705 0.33821,1.06667 1.89052,1.55231 1.24012,0.39025 1.58701,0.60705 1.58701,0.98862 0,0.32954 -0.3122,0.57236 -0.76315,0.57236 -0.6244,0 -0.92792,-0.32086 -0.94527,-0.84119 h -1.94255 c 0.052,0.7458 1.13605,1.40488 2.88782,1.40488 1.69106,0 2.71438,-0.63306 2.71438,-1.50895 0,-0.73713 -0.37291,-1.19675 -1.93389,-1.66505 -1.23144,-0.3729 -1.54364,-0.55502 -1.54364,-0.89323 0,-0.3122 0.27751,-0.55502 0.67643,-0.55502 0.57236,0 0.78049,0.28618 0.79783,0.80651 h 1.94256 c -0.052,-0.7458 -1.04066,-1.37019 -2.74039,-1.37019 z"
           inkscape:connector-curvature="0" />
        <path
           id="path4697"
           style="fill:#f66e4f;fill-opacity:1;stroke-width:0.26458332px"
           d="m 144.11145,266.05399 h -2.06397 v 6.93771 h 2.06397 z m 4.1713,6.93771 -2.33281,-2.93986 1.86451,-1.72575 h -1.2141 l -2.4889,2.29812 1.87318,2.36749 z"
           inkscape:connector-curvature="0" />
        <path
           id="path4699"
           style="fill:#f66e4f;fill-opacity:1;stroke-width:0.26458332px"
           d="m 152.3806,271.36134 v 0.0434 c 0,0.83252 -0.26883,1.29215 -0.86721,1.29215 -0.59838,0 -0.86722,-0.45963 -0.86722,-1.29215 v -0.74581 h 3.91981 c 0,-1.41355 -1.31816,-2.59296 -3.05259,-2.59296 -1.73443,0 -3.05259,1.17941 -3.05259,2.59296 0,1.41356 1.31816,2.59297 3.05259,2.59297 1.23144,0 2.52359,-0.64173 2.93985,-1.89052 z m -0.86721,-2.7404 c 0.59838,0 0.86721,0.45963 0.86721,1.29215 v 0.0694 h -1.73443 v -0.0694 c 0,-0.83252 0.26884,-1.29215 0.86722,-1.29215 z"
           inkscape:connector-curvature="0" />
        <path
           id="path4701"
           style="fill:#f66e4f;fill-opacity:1;stroke-width:0.26458332px"
           d="m 161.23662,268.32609 h -1.04933 l -1.42223,2.61031 -1.51763,-2.61031 h -2.34147 l 2.72305,4.68295 -0.93659,1.71709 h 1.04933 z"
           inkscape:connector-curvature="0" />
        <path
           id="path4703"
           style="fill:#f66e4f;fill-opacity:1;stroke-width:0.26458332px"
           d="m 163.9117,272.9917 v -1.39621 h -2.06397 v 1.39621 z"
           inkscape:connector-curvature="0" />
        <path
           id="path4705"
           style="fill:#f66e4f;fill-opacity:1;stroke-width:0.26458332px"
           d="m 170.77055,268.32609 h -2.06397 v 0.24282 c -0.34688,-0.22548 -0.84987,-0.38157 -1.3702,-0.38157 -1.52629,0 -2.46288,1.19675 -2.46288,2.47155 0,1.27481 0.94526,2.47156 2.47156,2.47156 0.52032,0 1.00596,-0.1561 1.35285,-0.38157 l 0.009,0.32954 c 0.0173,0.97995 -0.46829,1.32684 -0.86721,1.32684 -0.44228,0 -0.74581,-0.3729 -0.74581,-0.83253 h -1.9599 c 0.2168,0.66776 1.13605,1.41356 2.70571,1.41356 1.69974,0 2.93118,-0.89323 2.93118,-2.25475 z m -2.88782,4.05856 c -0.45962,0 -0.82385,-0.29485 -0.82385,-1.00597 v -1.43957 c 0,-0.71112 0.36423,-1.00597 0.82385,-1.00597 0.45962,0 0.82385,0.29485 0.82385,1.00597 v 1.43957 c 0,0.71112 -0.36423,1.00597 -0.82385,1.00597 z"
           inkscape:connector-curvature="0" />
        <path
           id="path4707"
           style="fill:#f66e4f;fill-opacity:1;stroke-width:0.26458332px"
           d="m 174.04049,267.4502 v -1.39621 h -2.06397 v 1.39621 z m 0,5.5415 v -4.66561 h -2.06397 v 4.66561 z"
           inkscape:connector-curvature="0" />
        <path
           id="path4709"
           style="fill:#f66e4f;fill-opacity:1;stroke-width:0.26458332px"
           d="m 178.87873,268.32609 v -0.67643 H 177.734 v -0.95393 h -2.06396 v 0.95393 h -1.14473 v 0.67643 h 1.14473 v 4.66561 h 2.06396 v -4.66561 z"
           inkscape:connector-curvature="0" />
        <path
           id="path4711"
           style="fill:#f66e4f;fill-opacity:1;stroke-width:0.26458332px"
           d="m 183.14243,268.1353 c -0.63306,0 -1.2748,0.22548 -1.71708,0.70245 v -2.78376 h -2.06397 v 6.93771 h 2.06397 v -2.93118 c 0,-0.70245 0.50299,-0.97128 0.96261,-0.97128 0.45962,0 0.96261,0.26883 0.96261,0.97128 v 2.93118 h 2.06396 v -2.56695 c 0,-1.59568 -1.14472,-2.28945 -2.2721,-2.28945 z"
           inkscape:connector-curvature="0" />
        <path
           id="path4713"
           style="fill:#f66e4f;fill-opacity:1;stroke-width:0.26458332px"
           d="m 192.68084,268.32609 h -2.06397 v 2.93118 c 0,0.70244 -0.50298,0.97128 -0.96261,0.97128 -0.45962,0 -0.9626,-0.26884 -0.9626,-0.97128 v -2.93118 h -2.06397 v 2.56695 c 0,1.59568 1.14472,2.28945 2.2721,2.28945 0.63306,0 1.2748,-0.22548 1.71708,-0.70245 v 0.51166 h 2.06397 z"
           inkscape:connector-curvature="0" />
        <path
           id="path4715"
           style="fill:#f66e4f;fill-opacity:1;stroke-width:0.26458332px"
           d="m 197.32816,268.18734 c -0.52033,0 -1.02331,0.15609 -1.3702,0.38157 v -2.51492 h -2.06397 v 6.93771 h 2.06397 l 0.009,-0.24282 c 0.34689,0.22547 0.83253,0.38157 1.35286,0.38157 1.52629,0 2.47155,-1.19675 2.47155,-2.47156 0,-1.2748 -0.93659,-2.47155 -2.46288,-2.47155 z m 0.27751,3.19134 c 0,0.71112 -0.36423,1.00597 -0.82386,1.00597 -0.45962,0 -0.82385,-0.29485 -0.82385,-1.00597 v -1.43957 c 0,-0.71112 0.36423,-1.00597 0.82385,-1.00597 0.45963,0 0.82386,0.29485 0.82386,1.00597 z"
           inkscape:connector-curvature="0" />
        <path
           id="path4717"
           style="fill:#f66e4f;fill-opacity:1;stroke-width:0.26458332px"
           d="m 202.80082,272.9917 v -1.39621 h -2.06397 v 1.39621 z"
           inkscape:connector-curvature="0" />
        <path
           id="path4719"
           style="fill:#f66e4f;fill-opacity:1;stroke-width:0.26458332px"
           d="m 206.08674,267.4502 v -1.39621 h -2.06396 v 1.39621 z m 0,5.5415 v -4.66561 h -2.06396 v 4.66561 z"
           inkscape:connector-curvature="0" />
        <path
           id="path4721"
           style="fill:#f66e4f;fill-opacity:1;stroke-width:0.26458332px"
           d="m 210.10113,268.06593 c -1.73443,0 -3.05259,1.17941 -3.05259,2.59296 0,1.41356 1.31816,2.59297 3.05259,2.59297 1.73443,0 3.05259,-1.17941 3.05259,-2.59297 0,-1.41355 -1.31816,-2.59296 -3.05259,-2.59296 z m 0,0.55501 c 0.56369,0 0.86721,0.45963 0.86721,1.29215 v 1.49161 c 0,0.83252 -0.30352,1.29215 -0.86721,1.29215 -0.56369,0 -0.86721,-0.45963 -0.86721,-1.29215 v -1.49161 c 0,-0.83252 0.30352,-1.29215 0.86721,-1.29215 z"
           inkscape:connector-curvature="0" />
      </g>
    </g>
    <g
       id="g4760"
       word-spacing="0"
       letter-spacing="0"
       font-weight="400"
       transform="matrix(1.4851162,0,0,1.4851162,37.978865,167.15996)"
       style="font-weight:400;font-family:'OTADESIGN Rounded';letter-spacing:0;word-spacing:0;fill:#212d3a;stroke-width:0.67334491">
      <g
         id="g4756"
         style="line-height:476.69509888px;-inkscape-font-specification:'OTADESIGN Rounded';stroke-width:0.67334491">
        <path
           id="path4754"
           font-size="141.034"
           aria-label="Mi"
           d="m 27.595,34.59 c -1.676,0.006 -3.115,-1.004 -3.793,-2.179 -0.363,-0.513 -1.08,-0.696 -1.09,0 v 3.214 c 0,1.291 -0.47,2.408 -1.412,3.35 -0.915,0.914 -2.031,1.371 -3.35,1.371 -1.29,0 -2.407,-0.457 -3.349,-1.372 -0.914,-0.941 -1.372,-2.058 -1.372,-3.349 V 17.95 c 0,-0.995 0.283,-1.896 0.848,-2.703 0.591,-0.834 1.345,-1.413 2.26,-1.735 a 4.632,4.632 0 0 1 1.613,-0.283 c 1.453,0 2.664,0.565 3.632,1.695 0.511,0.565 0.807,0.86 0.888,0.888 0,0 3.836,4.639 3.944,4.72 0.108,0.08 0.424,0.697 1.18,0.697 0.758,0 1.115,-0.617 1.222,-0.698 0.108,-0.08 3.944,-4.72 3.944,-4.72 0.027,0.028 0.31,-0.268 0.847,-0.887 0.996,-1.13 2.22,-1.695 3.673,-1.695 0.538,0 1.076,0.094 1.614,0.283 0.914,0.322 1.654,0.9 2.22,1.735 0.591,0.807 0.887,1.708 0.887,2.703 v 17.675 c 0,1.291 -0.47,2.408 -1.412,3.35 -0.915,0.914 -2.032,1.371 -3.35,1.371 -1.291,0 -2.407,-0.457 -3.35,-1.372 -0.914,-0.941 -1.371,-2.058 -1.371,-3.349 v -3.214 c -0.08,-0.877 -0.855,-0.324 -1.13,0 -0.726,1.345 -2.118,2.173 -3.793,2.18 z M 47.806,21.38 q -1.695,0 -2.905,-1.17 -1.17,-1.21 -1.17,-2.905 0,-1.695 1.17,-2.865 1.21,-1.21 2.905,-1.21 1.695,0 2.906,1.21 1.21,1.17 1.21,2.865 0,1.695 -1.21,2.905 -1.211,1.17 -2.906,1.17 z m 0.04,0.808 q 1.695,0 2.866,1.21 1.21,1.21 1.21,2.906 v 9.967 q 0,1.695 -1.21,2.905 -1.17,1.17 -2.866,1.17 -1.694,0 -2.905,-1.17 -1.21,-1.21 -1.21,-2.905 v -9.967 q 0,-1.695 1.21,-2.906 1.21,-1.21 2.905,-1.21 z"
           style="font-size:141.03399658px;-inkscape-font-specification:'OTADESIGN Rounded';stroke-width:0.67334491"
           inkscape:connector-curvature="0" />
      </g>
      <path
         id="path4758"
         d="m 60.925,27.24 q 0.968,0.243 2.42,0.525 2.42,0.403 3.792,1.29 2.582,1.695 2.582,5.083 0,2.743 -1.815,4.478 -2.098,2.017 -5.85,2.017 -2.742,0 -6.13,-0.767 -1.09,-0.242 -1.776,-1.089 -0.645,-0.847 -0.645,-1.896 0,-1.29 0.887,-2.178 0.928,-0.928 2.179,-0.928 0.363,0 0.685,0.081 1.17,0.242 4.478,0.605 0.444,0 0.968,-0.04 0.202,0 0.202,-0.242 0.04,-0.202 -0.242,-0.283 -1.372,-0.242 -2.542,-0.524 -1.33,-0.282 -1.896,-0.484 -1.129,-0.323 -1.895,-0.847 -2.582,-1.694 -2.622,-5.083 0,-2.702 1.855,-4.477 2.26,-2.179 6.414,-1.977 2.783,0.121 5.567,0.726 1.048,0.242 1.734,1.09 0.686,0.846 0.686,1.936 0,1.25 -0.928,2.178 -0.887,0.887 -2.178,0.887 -0.323,0 -0.645,-0.08 -1.17,-0.242 -4.518,-0.565 -0.404,-0.04 -0.767,0 -0.323,0.04 -0.323,0.242 0.04,0.242 0.323,0.323 z m 17.555,0 q 0.968,0.243 2.42,0.525 2.42,0.403 3.792,1.29 2.581,1.695 2.581,5.083 0,2.743 -1.815,4.478 -2.098,2.017 -5.849,2.017 -2.743,0 -6.131,-0.767 -1.09,-0.242 -1.775,-1.089 -0.646,-0.847 -0.646,-1.896 0,-1.29 0.888,-2.178 0.927,-0.928 2.178,-0.928 0.363,0 0.686,0.081 1.17,0.242 4.477,0.605 0.444,0 0.968,-0.04 0.202,0 0.202,-0.242 0.04,-0.202 -0.242,-0.283 -1.371,-0.242 -2.541,-0.524 -1.331,-0.282 -1.896,-0.484 -1.13,-0.323 -1.896,-0.847 -2.582,-1.694 -2.622,-5.083 0,-2.702 1.855,-4.477 2.26,-2.179 6.414,-1.977 2.784,0.121 5.567,0.726 1.049,0.242 1.735,1.09 0.685,0.846 0.685,1.936 0,1.25 -0.927,2.178 -0.888,0.887 -2.179,0.887 -0.322,0 -0.645,-0.08 -1.17,-0.242 -4.518,-0.565 -0.403,-0.04 -0.767,0 -0.322,0.04 -0.322,0.242 0.04,0.242 0.322,0.323 z m 26.075,3.335 q 0.12,0.08 2.864,2.783 1.25,1.21 1.25,2.945 0,1.613 -1.17,2.864 -1.17,1.21 -2.904,1.21 -1.654,0 -2.864,-1.17 l -4.034,-3.913 q -0.161,-0.12 -0.323,-0.12 -0.322,0 -0.322,1.21 0,1.694 -1.21,2.904 -1.21,1.17 -2.905,1.17 -1.694,0 -2.904,-1.17 -1.17,-1.21 -1.17,-2.905 V 17.586 q 0,-1.694 1.17,-2.864 1.21,-1.21 2.904,-1.21 1.694,0 2.904,1.21 1.21,1.17 1.21,2.864 v 6.293 q 0,0.403 0.283,0.524 0.242,0.121 0.524,-0.08 0.162,-0.081 4.841,-3.188 1.049,-0.645 2.259,-0.645 2.219,0 3.429,1.815 0.645,1.05 0.645,2.26 0,2.218 -1.815,3.428 l -2.541,1.614 v 0.04 l -0.081,0.04 q -0.565,0.363 -0.04,0.888 z m 15.599,10.058 q -4.195,0 -7.18,-2.945 -2.945,-2.985 -2.945,-7.18 0,-4.155 2.945,-7.1 2.985,-2.985 7.18,-2.985 4.155,0 6.979,2.784 0.928,0.927 0.928,2.259 0,1.33 -0.928,2.259 l -4.68,4.639 q -1.008,1.008 -2.016,1.008 -1.453,0 -2.26,-0.807 -0.806,-0.807 -0.806,-2.138 0,-1.29 0.928,-2.218 l 0.806,-0.847 q 0.162,-0.121 0.081,-0.243 -0.12,-0.08 -0.323,-0.04 -0.806,0.202 -1.371,0.807 -1.13,1.09 -1.13,2.622 0,1.573 1.09,2.703 1.13,1.089 2.702,1.089 1.533,0 2.622,-1.13 0.928,-0.927 2.26,-0.927 1.33,0 2.258,0.927 0.928,0.928 0.928,2.26 0,1.33 -0.928,2.258 -2.985,2.945 -7.14,2.945 z m 29.259,-15.786 v 5.607 q 0,0.564 -0.08,1.21 v 7.382 q 0,4.518 -2.744,7.22 -2.702,2.703 -7.301,2.703 -2.662,0 -4.8,-1.008 -2.138,-0.968 -2.138,-3.348 0,-0.807 0.363,-1.533 0.968,-2.179 3.348,-2.179 0.565,0 1.573,0.323 1.009,0.323 1.654,0.323 1.694,0 2.219,-0.726 0.201,-0.283 0.08,-0.444 -0.161,-0.242 -0.564,-0.161 -0.686,0.12 -1.493,0.12 -4.074,0 -6.979,-2.904 -2.904,-2.904 -2.904,-6.978 v -5.607 q 0,-1.695 1.17,-2.864 1.21,-1.21 2.904,-1.21 1.694,0 2.905,1.21 1.21,1.17 1.21,2.864 v 5.607 q 0,0.685 0.484,1.21 0.524,0.484 1.21,0.484 0.726,0 1.21,-0.484 0.484,-0.525 0.484,-1.21 v -5.607 q 0,-1.695 1.21,-2.864 1.21,-1.21 2.905,-1.21 1.694,0 2.864,1.21 1.21,1.17 1.21,2.864 z"
         style="line-height:136.34428406px;-inkscape-font-specification:'OTADESIGN Rounded';stroke-width:0.67334491"
         inkscape:connector-curvature="0" />
    </g>
    <text
       xml:space="preserve"
       style="font-style:normal;font-variant:normal;font-weight:normal;font-stretch:normal;font-size:16.93593597px;line-height:57.24346924px;font-family:'MGC bold';-inkscape-font-specification:'MGC bold, ';letter-spacing:0px;word-spacing:0px;fill:#212d3a;fill-opacity:1;stroke:none;stroke-width:0.26458332px;stroke-linecap:butt;stroke-linejoin:miter;stroke-opacity:1"
       x="18.48974"
       y="169.88029"
       id="text4776"><tspan
         sodipodi:role="line"
         id="tspan4774"
         x="18.48974"
         y="169.88029"
         style="font-style:normal;font-variant:normal;font-weight:normal;font-stretch:normal;font-family:'MGC bold';-inkscape-font-specification:'MGC bold, ';fill:#212d3a;fill-opacity:1;stroke-width:0.26458332px">新しい世界で繋がろう</tspan></text>
    <text
       id="text4780"
       y="254.12502"
       x="19.442825"
       style="font-style:normal;font-variant:normal;font-weight:normal;font-stretch:normal;font-size:8.02041245px;line-height:27.10899353px;font-family:'MGC bold';-inkscape-font-specification:'MGC bold, ';letter-spacing:0px;word-spacing:0px;fill:#212d3a;fill-opacity:1;stroke:none;stroke-width:0.26458335px;stroke-linecap:butt;stroke-linejoin:miter;stroke-opacity:1"
       xml:space="preserve"><tspan
         style="font-style:normal;font-variant:normal;font-weight:normal;font-stretch:normal;font-family:'MGC bold';-inkscape-font-specification:'MGC bold, ';fill:#212d3a;fill-opacity:1;stroke-width:0.26458335px"
         y="254.12502"
         x="19.442825"
         id="tspan4778"
         sodipodi:role="line">全てがオープンソースの、効率的で究極に洗練された分散マイクロブログSNS</tspan></text>
    <text
       xml:space="preserve"
       style="font-style:normal;font-variant:normal;font-weight:normal;font-stretch:normal;font-size:3.96875px;line-height:13.41437531px;font-family:'Nu Hanafudaya';-inkscape-font-specification:'Nu Hanafudaya';letter-spacing:0px;word-spacing:0px;fill:#000000;fill-opacity:1;stroke:none;stroke-width:0.26458332px;stroke-linecap:butt;stroke-linejoin:miter;stroke-opacity:1"
       x="11.988933"
       y="308.98892"
       id="text4784"><tspan
         sodipodi:role="line"
         id="tspan4782"
         x="11.988933"
         y="308.98892"
         style="font-style:normal;font-variant:normal;font-weight:normal;font-stretch:normal;font-family:'MGC bold';-inkscape-font-specification:'MGC bold, ';stroke-width:0.26458332px">MGC = Noto Sans CJK JP(Japanese) + M+C (ASCII)</tspan></text>
  </g>
</svg>
