<svg xmlns="http://www.w3.org/2000/svg" viewBox="0 0 111.387 74.11" height="280.101" width="420.99"><defs><filter id="b" color-interpolation-filters="sRGB"><feFlood result="flood" flood-color="#000" flood-opacity="1"/><feComposite result="composite1" operator="in" in2="SourceGraphic" in="flood"/><feGaussianBlur result="blur" stdDeviation=".6" in="composite1"/><feOffset result="offset"/><feComposite result="composite2" in2="offset" in="SourceGraphic"/></filter><filter id="a" color-interpolation-filters="sRGB"><feFlood result="flood" flood-color="#000" flood-opacity="1"/><feComposite result="composite1" operator="in" in2="SourceGraphic" in="flood"/><feGaussianBlur result="blur" stdDeviation=".6" in="composite1"/><feOffset result="offset"/><feComposite result="composite2" in2="offset" in="SourceGraphic"/></filter></defs><g paint-order="markers stroke fill"><path d="M0 0h111.387v74.11H0z" fill="#fff"/><g filter="url(#a)" transform="translate(-11.077 -4.8)"><path d="M15.374 9.097h56.35v39.844h-56.35z" fill="#fff" stroke="#3c3c3c" stroke-width=".265"/><g fill="#202020"><path d="M29.53 10.404c-.61 0-1.1.49-1.1 1.1v35.03c0 .61.49 1.1 1.1 1.1h28.038c.61 0 1.1-.49 1.1-1.1v-35.03c0-.61-.49-1.1-1.1-1.1zm14.008 14.432a.897.897 0 01.58.204l1.672 1.376V25.06a.224.224 0 01.225-.224h1.045a.224.224 0 01.225.224v2.586l1.56 1.288a.224.224 0 01.033.316l-.477.579a.224.224 0 01-.315.03l-4.394-3.619a.228.228 0 00-.286 0l-4.393 3.619a.224.224 0 01-.315-.03l-.477-.58a.224.224 0 01.03-.315l4.728-3.894a.897.897 0 01.56-.204zm.006 2.12a.228.228 0 01.148.05l3.443 2.834v3.063a.299.299 0 01-.299.3l-2.092-.007a.299.299 0 01-.299-.3V31.11a.299.299 0 00-.299-.299h-1.195a.299.299 0 00-.299.3v1.787a.299.299 0 01-.297.298l-2.093.006a.299.299 0 01-.299-.299v-3.06l3.443-2.837a.228.228 0 01.138-.05zM19.543 10.403h7.258c.61 0 1.1.491 1.1 1.1v2.43c0 .61-.49 1.1-1.1 1.1h-7.258c-.61 0-1.1-.49-1.1-1.1v-2.43c0-.609.49-1.1 1.1-1.1zM60.297 10.403h7.258c.61 0 1.1.491 1.1 1.1v3.76c0 .61-.49 1.1-1.1 1.1h-7.258c-.609 0-1.1-.49-1.1-1.1v-3.76c0-.609.491-1.1 1.1-1.1zM19.543 15.563h7.258c.61 0 1.1.49 1.1 1.1v10.084c0 .61-.49 1.1-1.1 1.1h-7.258c-.61 0-1.1-.49-1.1-1.1V16.663c0-.61.49-1.1 1.1-1.1zM19.543 28.376h7.258c.61 0 1.1.49 1.1 1.1v7.17c0 .609-.49 1.1-1.1 1.1h-7.258c-.61 0-1.1-.491-1.1-1.1v-7.17c0-.61.49-1.1 1.1-1.1zM19.543 38.274h7.258c.61 0 1.1.49 1.1 1.1v7.16c0 .61-.49 1.1-1.1 1.1h-7.258c-.61 0-1.1-.49-1.1-1.1v-7.16c0-.61.49-1.1 1.1-1.1zM60.297 16.893h7.258c.61 0 1.1.49 1.1 1.1v14.154c0 .61-.49 1.1-1.1 1.1h-7.258c-.609 0-1.1-.49-1.1-1.1V17.993c0-.61.491-1.1 1.1-1.1zM60.297 33.776h7.258c.61 0 1.1.491 1.1 1.1v11.658c0 .61-.49 1.1-1.1 1.1h-7.258c-.609 0-1.1-.49-1.1-1.1V34.876c0-.609.491-1.1 1.1-1.1z"/></g></g><g filter="url(#b)" transform="translate(-11.077 -4.8)"><g stroke-width=".265"><path d="M47.359 34.769h70.807v39.843H47.36z" fill="#fff" stroke="#3c3c3c"/><g fill="#202020"><path d="M55.569 36.075h7.257c.61 0 1.1.49 1.1 1.1v2.43c0 .61-.49 1.1-1.1 1.1H55.57c-.61 0-1.1-.49-1.1-1.1v-2.43c0-.61.49-1.1 1.1-1.1zM65.556 36.075h9.053c.61 0 1.1.49 1.1 1.1v35.03c0 .61-.49 1.1-1.1 1.1h-9.053c-.61 0-1.1-.49-1.1-1.1v-35.03c0-.61.49-1.1 1.1-1.1zM55.569 41.234h7.257c.61 0 1.1.491 1.1 1.1V52.42c0 .609-.49 1.1-1.1 1.1H55.57c-.61 0-1.1-.491-1.1-1.1V42.334c0-.609.49-1.1 1.1-1.1zM55.569 54.048h7.257c.61 0 1.1.49 1.1 1.1v7.169c0 .61-.49 1.1-1.1 1.1H55.57c-.61 0-1.1-.49-1.1-1.1v-7.17c0-.609.49-1.1 1.1-1.1zM55.569 63.946h7.257c.61 0 1.1.49 1.1 1.1v7.16c0 .61-.49 1.1-1.1 1.1H55.57c-.61 0-1.1-.49-1.1-1.1v-7.16c0-.61.49-1.1 1.1-1.1zM77.338 36.075h9.053c.61 0 1.1.49 1.1 1.1v35.03c0 .61-.49 1.1-1.1 1.1h-9.053c-.61 0-1.1-.49-1.1-1.1v-35.03c0-.61.49-1.1 1.1-1.1zM89.12 36.075h9.054c.61 0 1.1.49 1.1 1.1v35.03c0 .61-.49 1.1-1.1 1.1H89.12c-.609 0-1.1-.49-1.1-1.1v-35.03c0-.61.491-1.1 1.1-1.1zM100.903 54.956h9.054c.609 0 1.1.49 1.1 1.1v16.15c0 .61-.491 1.1-1.1 1.1h-9.054c-.61 0-1.1-.49-1.1-1.1v-16.15c0-.61.49-1.1 1.1-1.1zM100.903 36.075h9.053c.61 0 1.1.49 1.1 1.1v16.15c0 .61-.49 1.1-1.1 1.1h-9.053c-.61 0-1.1-.49-1.1-1.1v-16.15c0-.61.49-1.1 1.1-1.1z"/></g></g><g style="line-height:1.25;-inkscape-font-specification:'GenEi Nu Gothic EB';text-align:center" aria-label="Deck" font-weight="400" font-size="9.61" font-family="GenEi Nu Gothic EB" letter-spacing="0" word-spacing="0" text-anchor="middle" fill="#202020" stroke="#fff" stroke-width="3.065"><path style="-inkscape-font-specification:'GenEi Nu Gothic EB'" d="M70.847 57.893h.92q1.183 0 1.811-.732.639-.742.639-1.943 0-1.21-.648-1.905-.648-.694-1.811-.694h-.91zm-1.792-6.73h2.759q1.84 0 3.013 1.136Q76 53.426 76 55.124q0 1.934-1.145 3.079-1.145 1.135-3.06 1.135h-2.74zM78.553 55.622h2.261v-.066q-.084-1.154-1.023-1.154-.45 0-.788.328-.328.32-.45.892zm0 1.192q.15.59.619.938.47.338 1.192.338.957 0 1.633-.516v1.417q-.61.404-1.896.404-1.502 0-2.346-.873-.845-.882-.845-2.309t.807-2.252q.807-.836 2.018-.836 1.21 0 1.924.723.713.713.713 2.046 0 .47-.075.92zM85.028 56.279q.047.835.498 1.314.46.478 1.238.478.789 0 1.436-.422v1.398q-.685.385-1.68.385-1.389 0-2.28-.882-.892-.892-.892-2.262t.873-2.28q.882-.92 2.393-.92.948 0 1.586.347v1.436q-.638-.404-1.417-.404t-1.267.479q-.478.479-.488 1.333zM94.958 59.338h-1.924l-2.046-3.031v3.031h-1.661v-8.38h1.66v4.992l2.019-2.768h1.905l-2.187 2.947z" transform="scale(1.00922 .99086)"/></g></g></g></svg>