<svg xmlns="http://www.w3.org/2000/svg" width="600" height="60" viewBox="0 0 158.75 15.875"><path fill="#fff" paint-order="fill markers stroke" d="M0 0h158.75v15.875H0z"/><g stroke-width="11.206"><g style="line-height:476.69509888px;-inkscape-font-specification:'OTADESIGN Rounded'" aria-label="Mi" font-weight="400" font-size="141.034" font-family="OTADESIGN Rounded" letter-spacing="0" word-spacing="0" stroke-width="3.246" fill="#2fa1bb"><path style="-inkscape-font-specification:'OTADESIGN Rounded'" d="M10.258 10.157a1.396 1.396 0 0 1-1.185-.68c-.113-.161-.337-.218-.34 0v1.003c0 .403-.147.752-.441 1.046a1.423 1.423 0 0 1-1.046.428 1.45 1.45 0 0 1-1.046-.428 1.45 1.45 0 0 1-.428-1.046V4.96c0-.31.088-.591.264-.843.185-.26.42-.442.706-.542.16-.06.328-.089.504-.089.454 0 .832.177 1.134.53.16.176.252.269.277.277 0 0 1.198 1.449 1.232 1.474.034.025.132.218.369.218.236 0 .347-.193.381-.218.034-.025 1.232-1.474 1.232-1.474.008.008.096-.084.264-.277a1.47 1.47 0 0 1 1.147-.53c.168 0 .336.03.504.089.286.1.517.281.693.542.185.252.277.533.277.844v5.519c0 .403-.147.752-.44 1.046a1.423 1.423 0 0 1-1.047.428 1.45 1.45 0 0 1-1.046-.428 1.45 1.45 0 0 1-.428-1.046V9.476c-.025-.274-.267-.101-.353 0-.227.42-.661.679-1.184.68zM16.569 6.032q-.53 0-.907-.366-.366-.378-.366-.907 0-.53.366-.895.378-.378.907-.378.53 0 .907.378.378.366.378.895 0 .53-.378.907-.378.366-.907.366zm.013.252q.529 0 .894.378.378.378.378.907v3.113q0 .529-.378.907-.365.365-.894.365-.53 0-.908-.365-.378-.378-.378-.907V7.569q0-.53.378-.907.378-.378.908-.378z"/></g><path d="M13.93 9.136l-.003.001c-.029.016-.048.516-.06 1.204h-.496v2.978h.497c.01.688.03 1.188.059 1.204.093.054 4.664-2.585 4.664-2.693 0-.107-4.5-2.706-4.661-2.694z" fill="#f66e4f" paint-order="fill markers stroke"/></g><g aria-label="joinmisskey.github.io" style="line-height:29.31182671px;-inkscape-font-specification:'Nu Hanafudaya'" font-weight="400" font-size="8.672" font-family="Nu Hanafudaya" letter-spacing="0" word-spacing="0" fill="#f66e4f" stroke-width=".242"><path d="M26.64 4.578V3.05h-2.26v1.528zm0 .958h-2.26v5.21c0 .798-.483 1.102-1.053 1.102-.246 0-.446-.048-.56-.105v.826c.152.038.494.067.987.067 2.07 0 2.886-.807 2.886-2.032zM31.033 5.252c-1.898 0-3.34 1.29-3.34 2.837 0 1.547 1.442 2.838 3.34 2.838 1.899 0 3.341-1.29 3.341-2.838 0-1.547-1.442-2.837-3.34-2.837zm0 .607c.617 0 .95.503.95 1.414v1.633c0 .91-.333 1.414-.95 1.414s-.949-.503-.949-1.414V7.273c0-.911.332-1.414.95-1.414zM37.67 4.578V3.05h-2.26v1.528zm0 6.064V5.536h-2.26v5.106zM43.145 5.327c-.693 0-1.395.247-1.88.77v-.56h-2.258v5.105h2.259V7.434c0-.768.55-1.063 1.053-1.063.503 0 1.054.295 1.054 1.063v3.208h2.259V7.833c0-1.746-1.253-2.506-2.487-2.506zM55.179 5.327c-.826 0-1.652.37-2.088 1.177-.437-.806-1.263-1.177-2.088-1.177-.655 0-1.32.238-1.785.74v-.53H46.96v5.105h2.26V7.434c0-.768.502-1.063.958-1.063.455 0 .958.295.958 1.063v3.208h2.26V7.833c0-.133-.01-.266-.02-.389l.02-.01c0-.769.502-1.063.958-1.063.456 0 .959.294.959 1.063v3.208h2.258v-2.81c0-1.746-1.205-2.505-2.391-2.505zM61.156 4.578V3.05h-2.259v1.528zm0 6.064V5.536h-2.259v5.106zM65.275 5.252c-1.794 0-2.876.692-2.876 1.651 0 .664.37 1.167 2.069 1.699 1.357.427 1.737.664 1.737 1.082 0 .36-.342.626-.836.626-.683 0-1.015-.35-1.034-.92h-2.126c.057.816 1.243 1.537 3.16 1.537 1.851 0 2.971-.693 2.971-1.651 0-.807-.408-1.31-2.116-1.823-1.348-.408-1.69-.607-1.69-.977 0-.342.304-.608.74-.608.627 0 .855.314.874.883h2.126c-.057-.816-1.14-1.5-3-1.5zM72.17 5.252c-1.793 0-2.875.692-2.875 1.651 0 .664.37 1.167 2.069 1.699 1.357.427 1.737.664 1.737 1.082 0 .36-.342.626-.836.626-.683 0-1.015-.35-1.034-.92h-2.126c.057.816 1.243 1.537 3.16 1.537 1.851 0 2.971-.693 2.971-1.651 0-.807-.408-1.31-2.116-1.823-1.348-.408-1.69-.607-1.69-.977 0-.342.304-.608.74-.608.627 0 .855.314.874.883h2.126c-.057-.816-1.14-1.5-3-1.5zM78.544 3.05h-2.259v7.592h2.26zm4.566 7.592l-2.554-3.217 2.041-1.889h-1.329l-2.724 2.515 2.05 2.591zM87.594 8.858v.048c0 .91-.294 1.414-.949 1.414s-.949-.503-.949-1.414v-.817h4.29c0-1.547-1.442-2.837-3.34-2.837-1.899 0-3.342 1.29-3.342 2.837 0 1.547 1.443 2.838 3.341 2.838 1.348 0 2.762-.702 3.218-2.069zm-.949-3c.655 0 .95.504.95 1.415v.076h-1.899v-.076c0-.911.294-1.414.95-1.414zM97.287 5.536h-1.149l-1.556 2.857-1.661-2.857h-2.563l2.98 5.125-1.025 1.88h1.149zM100.214 10.642V9.114h-2.258v1.528zM107.721 5.536h-2.259v.266c-.38-.247-.93-.418-1.5-.418-1.67 0-2.695 1.31-2.695 2.705 0 1.396 1.035 2.705 2.705 2.705.57 0 1.101-.17 1.48-.417l.01.36c.02 1.073-.512 1.453-.949 1.453-.484 0-.816-.409-.816-.912h-2.145c.237.731 1.244 1.547 2.961 1.547 1.86 0 3.208-.977 3.208-2.467zm-3.16 4.442c-.504 0-.902-.323-.902-1.1V7.301c0-.779.398-1.101.902-1.101.503 0 .901.322.901 1.1v1.576c0 .778-.398 1.101-.901 1.101zM111.3 4.578V3.05h-2.26v1.528zm0 6.064V5.536h-2.26v5.106zM116.595 5.536v-.74h-1.253V3.752h-2.259v1.044h-1.253v.74h1.253v5.106h2.26V5.536zM121.261 5.327c-.693 0-1.395.247-1.879.77V3.05h-2.259v7.592h2.26V7.434c0-.768.55-1.063 1.053-1.063.503 0 1.053.295 1.053 1.063v3.208h2.259V7.833c0-1.746-1.253-2.506-2.487-2.506zM131.7 5.536h-2.258v3.208c0 .769-.55 1.063-1.054 1.063-.503 0-1.053-.294-1.053-1.063V5.536h-2.26v2.81c0 1.746 1.254 2.505 2.487 2.505.693 0 1.396-.247 1.88-.769v.56h2.259zM136.787 5.384c-.57 0-1.12.171-1.5.418V3.05h-2.259v7.592h2.26l.009-.265c.38.246.911.417 1.48.417 1.671 0 2.706-1.31 2.706-2.705s-1.025-2.705-2.696-2.705zm.303 3.493c0 .778-.398 1.101-.901 1.101s-.902-.323-.902-1.1V7.301c0-.779.399-1.101.902-1.101s.901.322.901 1.1zM142.776 10.642V9.114h-2.259v1.528zM146.372 4.578V3.05h-2.258v1.528zm0 6.064V5.536h-2.258v5.106zM150.766 5.252c-1.898 0-3.34 1.29-3.34 2.837 0 1.547 1.442 2.838 3.34 2.838s3.34-1.29 3.34-2.838c0-1.547-1.442-2.837-3.34-2.837zm0 .607c.617 0 .949.503.949 1.414v1.633c0 .91-.332 1.414-.95 1.414-.616 0-.948-.503-.948-1.414V7.273c0-.911.332-1.414.949-1.414z"/></g></svg>