<svg xmlns="http://www.w3.org/2000/svg" viewBox="0 0 111.387 74.11" height="280.101" width="420.99"><g paint-order="markers stroke fill"><path d="M0 0h111.387v74.11H0z" fill="#fff"/><path d="M4.298 4.298h56.35V44.14H4.297z" fill="#fff" stroke="#3c3c3c" stroke-width=".595"/><g fill="#202020"><path d="M18.453 5.604c-.609 0-1.1.49-1.1 1.1v35.03c0 .61.491 1.1 1.1 1.1h28.038c.61 0 1.1-.49 1.1-1.1V6.705c0-.61-.49-1.1-1.1-1.1zm14.008 14.432a.897.897 0 0 1 .58.204l1.672 1.376V20.26a.224.224 0 0 1 .225-.224h1.046a.224.224 0 0 1 .224.224v2.587l1.561 1.287a.224.224 0 0 1 .032.316l-.476.58a.224.224 0 0 1-.316.029l-4.394-3.618a.228.228 0 0 0-.285 0l-4.393 3.618a.224.224 0 0 1-.316-.03l-.477-.58a.224.224 0 0 1 .03-.315l4.728-3.894a.897.897 0 0 1 .56-.204zm.007 2.12a.228.228 0 0 1 .147.05l3.443 2.834v3.063a.299.299 0 0 1-.299.3l-2.092-.007a.299.299 0 0 1-.299-.3v-1.785a.299.299 0 0 0-.298-.3h-1.196a.299.299 0 0 0-.298.3v1.787a.299.299 0 0 1-.298.299l-2.093.006a.299.299 0 0 1-.299-.3v-3.06l3.444-2.836a.228.228 0 0 1 .138-.051zM8.466 5.604h7.258c.61 0 1.1.49 1.1 1.1v2.43c0 .61-.49 1.1-1.1 1.1H8.466c-.61 0-1.1-.49-1.1-1.1v-2.43c0-.61.49-1.1 1.1-1.1zM49.22 5.604h7.258c.61 0 1.1.49 1.1 1.1v3.76c0 .61-.49 1.1-1.1 1.1h-7.257c-.61 0-1.1-.49-1.1-1.1v-3.76c0-.61.49-1.1 1.1-1.1zM8.466 10.763h7.258c.61 0 1.1.49 1.1 1.1v10.084c0 .61-.49 1.1-1.1 1.1H8.466c-.61 0-1.1-.49-1.1-1.1V11.863c0-.61.49-1.1 1.1-1.1zM8.466 23.577h7.258c.61 0 1.1.49 1.1 1.1v7.168c0 .61-.49 1.1-1.1 1.1H8.466c-.61 0-1.1-.49-1.1-1.1v-7.168c0-.61.49-1.1 1.1-1.1zM8.466 33.475h7.258c.61 0 1.1.49 1.1 1.1v7.16c0 .609-.49 1.1-1.1 1.1H8.466c-.61 0-1.1-.491-1.1-1.1v-7.16c0-.61.49-1.1 1.1-1.1zM49.22 12.093h7.258c.61 0 1.1.49 1.1 1.1v14.155c0 .609-.49 1.1-1.1 1.1h-7.257c-.61 0-1.1-.491-1.1-1.1V13.193c0-.61.49-1.1 1.1-1.1zM49.22 28.977h7.258c.61 0 1.1.49 1.1 1.1v11.657c0 .61-.49 1.1-1.1 1.1h-7.257c-.61 0-1.1-.49-1.1-1.1V30.077c0-.61.49-1.1 1.1-1.1z"/></g><g><path d="M36.282 29.969h70.807v39.843H36.282z" fill="#fff" stroke="#3c3c3c" stroke-width=".595"/><g fill="#202020"><path d="M44.492 31.275h7.258c.609 0 1.1.491 1.1 1.1v2.43c0 .61-.491 1.1-1.1 1.1h-7.258c-.61 0-1.1-.49-1.1-1.1v-2.43c0-.609.49-1.1 1.1-1.1zM54.479 31.275h9.053c.61 0 1.1.491 1.1 1.1v35.031c0 .61-.49 1.1-1.1 1.1h-9.053c-.61 0-1.1-.49-1.1-1.1v-35.03c0-.61.49-1.1 1.1-1.1zM44.492 36.435h7.258c.609 0 1.1.49 1.1 1.1v10.084c0 .61-.491 1.1-1.1 1.1h-7.258c-.61 0-1.1-.49-1.1-1.1V37.535c0-.61.49-1.1 1.1-1.1zM44.492 49.248h7.258c.609 0 1.1.49 1.1 1.1v7.169c0 .61-.491 1.1-1.1 1.1h-7.258c-.61 0-1.1-.49-1.1-1.1v-7.169c0-.61.49-1.1 1.1-1.1zM44.492 59.146h7.258c.609 0 1.1.49 1.1 1.1v7.16c0 .61-.491 1.1-1.1 1.1h-7.258c-.61 0-1.1-.49-1.1-1.1v-7.16c0-.61.49-1.1 1.1-1.1zM66.261 31.275h9.053c.61 0 1.1.491 1.1 1.1v35.031c0 .61-.49 1.1-1.1 1.1h-9.053c-.61 0-1.1-.49-1.1-1.1v-35.03c0-.61.49-1.1 1.1-1.1zM78.044 31.275h9.053c.61 0 1.1.491 1.1 1.1v35.031c0 .61-.49 1.1-1.1 1.1h-9.053c-.61 0-1.1-.49-1.1-1.1v-35.03c0-.61.49-1.1 1.1-1.1zM89.826 50.156h9.054c.61 0 1.1.49 1.1 1.1v16.15c0 .61-.49 1.1-1.1 1.1h-9.054c-.609 0-1.1-.49-1.1-1.1v-16.15c0-.61.491-1.1 1.1-1.1zM89.826 31.275h9.053c.61 0 1.1.491 1.1 1.1v16.15c0 .61-.49 1.1-1.1 1.1h-9.053c-.61 0-1.1-.49-1.1-1.1v-16.15c0-.609.49-1.1 1.1-1.1z"/></g><g style="line-height:1.25;-inkscape-font-specification:'GenEi Nu Gothic EB';text-align:center" aria-label="Deck" font-weight="400" font-size="9.61" font-family="GenEi Nu Gothic EB" letter-spacing="0" word-spacing="0" text-anchor="middle" fill="#202020" stroke="#fff" stroke-width="3.065"><path style="-inkscape-font-specification:'GenEi Nu Gothic EB'" d="M70.847 57.893h.92q1.183 0 1.811-.732.639-.742.639-1.943 0-1.21-.648-1.905-.648-.694-1.811-.694h-.91zm-1.792-6.73h2.759q1.84 0 3.013 1.136Q76 53.426 76 55.124q0 1.934-1.145 3.079-1.145 1.135-3.06 1.135h-2.74zM78.553 55.622h2.261v-.066q-.084-1.154-1.023-1.154-.45 0-.788.328-.328.32-.45.892zm0 1.192q.15.59.619.938.47.338 1.192.338.957 0 1.633-.516v1.417q-.61.404-1.896.404-1.502 0-2.346-.873-.845-.882-.845-2.309t.807-2.252q.807-.836 2.018-.836 1.21 0 1.924.723.713.713.713 2.046 0 .47-.075.92zM85.028 56.279q.047.835.498 1.314.46.478 1.238.478.789 0 1.436-.422v1.398q-.685.385-1.68.385-1.389 0-2.28-.882-.892-.892-.892-2.262t.873-2.28q.882-.92 2.393-.92.948 0 1.586.347v1.436q-.638-.404-1.417-.404t-1.267.479q-.478.479-.488 1.333zM94.958 59.338h-1.924l-2.046-3.031v3.031h-1.661v-8.38h1.66v4.992l2.019-2.768h1.905l-2.187 2.947z" transform="matrix(1.00922 0 0 .99086 -11.077 -4.8)"/></g></g></g></svg>