<svg xmlns="http://www.w3.org/2000/svg" width="420.99" height="280.101" viewBox="0 0 111.387 74.11"><g paint-order="markers stroke fill"><path fill="#fff" d="M0 0h111.387v74.11H0z"/><path fill="#fff" stroke="#3c3c3c" stroke-width=".595" d="M4.297 4.297h56.35V44.14H4.297z"/><g transform="translate(-18.306 -4.8)" fill="#202020"><path d="M36.759 10.403c-.61 0-1.1.49-1.1 1.1v35.031c0 .61.49 1.1 1.1 1.1h28.038c.61 0 1.1-.49 1.1-1.1v-35.03c0-.61-.49-1.1-1.1-1.1zm14.008 14.433a.897.897 0 01.58.204l1.672 1.376v-1.357a.224.224 0 01.224-.223h1.046a.224.224 0 01.224.223v2.587l1.562 1.288a.224.224 0 01.032.316l-.477.579a.224.224 0 01-.316.03l-4.393-3.619a.228.228 0 00-.286 0l-4.393 3.619a.224.224 0 01-.316-.03l-.476-.58a.224.224 0 01.03-.315l4.728-3.894a.897.897 0 01.559-.204zm.006 2.12a.228.228 0 01.148.05l3.443 2.834v3.063a.299.299 0 01-.3.3l-2.091-.007a.299.299 0 01-.3-.3V31.11a.299.299 0 00-.298-.299H50.18a.299.299 0 00-.299.3v1.787a.299.299 0 01-.297.298l-2.093.006a.299.299 0 01-.3-.3v-3.06l3.444-2.836a.228.228 0 01.138-.05z"/><rect rx="1.1" width="9.458" height="4.63" x="25.672" y="10.403" ry="1.1"/><rect ry="1.1" y="10.403" x="66.426" height="5.96" width="9.458" rx="1.1"/><rect ry="1.1" y="15.563" x="25.672" height="12.284" width="9.458" rx="1.1"/><rect ry="1.1" y="28.376" x="25.672" height="9.369" width="9.458" rx="1.1"/><rect rx="1.1" width="9.458" height="9.36" x="25.672" y="38.274" ry="1.1"/><rect rx="1.1" width="9.458" height="16.354" x="66.426" y="16.893" ry="1.1"/><rect ry="1.1" y="33.776" x="66.426" height="13.858" width="9.458" rx="1.1"/></g><g><path fill="#fff" stroke="#3c3c3c" stroke-width=".595" d="M36.282 29.969h70.807v39.843H36.282z"/><g transform="translate(-54.759 20.872)" fill="#202020"><rect rx="1.1" width="9.458" height="4.63" x="98.15" y="10.403" ry="1.1"/><rect ry="1.1" y="10.403" x="108.137" height="37.231" width="11.253" rx="1.1"/><rect ry="1.1" y="15.563" x="98.15" height="12.284" width="9.458" rx="1.1"/><rect ry="1.1" y="28.376" x="98.15" height="9.369" width="9.458" rx="1.1"/><rect rx="1.1" width="9.458" height="9.36" x="98.15" y="38.274" ry="1.1"/><rect rx="1.1" width="11.253" height="37.231" x="119.92" y="10.403" ry="1.1"/><rect ry="1.1" y="10.403" x="131.702" height="37.231" width="11.253" rx="1.1"/><rect rx="1.1" width="11.253" height="18.35" x="143.485" y="29.284" ry="1.1"/><rect ry="1.1" y="10.403" x="143.485" height="18.35" width="11.253" rx="1.1"/></g><text style="line-height:1.25;-inkscape-font-specification:'GenEi Nu Gothic EB';text-align:center" x="81.668" y="58.756" transform="matrix(1.00922 0 0 .99086 -11.077 -4.8)" font-weight="400" font-size="9.61" font-family="GenEi Nu Gothic EB" letter-spacing="0" word-spacing="0" text-anchor="middle" fill="#202020" stroke="#fff" stroke-width="3.065"><tspan x="81.668" y="58.756" style="-inkscape-font-specification:'GenEi Nu Gothic EB'">Deck</tspan></text></g></g></svg>