<svg xmlns="http://www.w3.org/2000/svg" width="1200" height="630" viewBox="0 0 317.5 166.688"><text style="line-height:56.68144608px;-inkscape-font-specification:'Gen Shin Gothic'" x="12.468" y="245.615" font-weight="400" font-size="16.77" font-family="Gen Shin Gothic" letter-spacing="0" word-spacing="0" fill="#fffc32" stroke-width=".265" transform="translate(0 -130.312)"/><path fill="#282c37" paint-order="fill markers stroke" d="M0 0h317.5v166.688H0z"/><g word-spacing="0" letter-spacing="0" font-weight="400" font-family="OTADESIGN Rounded" fill="#fb4e4e" stroke-width=".673"><g style="line-height:476.69509888px;-inkscape-font-specification:'OTADESIGN Rounded'"><path font-size="141.034" aria-label="Mi" d="M78.96 93.29c-2.488.01-4.625-1.49-5.632-3.235-.54-.762-1.604-1.034-1.62 0v4.773c0 1.917-.697 3.576-2.096 4.975-1.359 1.357-3.016 2.036-4.975 2.036-1.916 0-3.575-.679-4.974-2.037-1.357-1.398-2.038-3.057-2.038-4.974v-26.25c0-1.477.42-2.815 1.26-4.014.878-1.238 1.997-2.098 3.356-2.576a6.88 6.88 0 012.396-.42c2.158 0 3.956.838 5.394 2.517.759.839 1.198 1.277 1.318 1.318 0 0 5.697 6.89 5.858 7.01.16.119.63 1.035 1.752 1.035 1.126 0 1.656-.916 1.815-1.036.16-.12 5.857-7.01 5.857-7.01.04.041.46-.398 1.258-1.317 1.48-1.679 3.297-2.518 5.455-2.518.799 0 1.598.14 2.397.42 1.357.479 2.456 1.337 3.297 2.577a6.633 6.633 0 011.317 4.015v26.249c0 1.917-.698 3.576-2.097 4.975-1.359 1.357-3.018 2.036-4.975 2.036-1.917 0-3.575-.679-4.975-2.037-1.357-1.398-2.036-3.057-2.036-4.974v-4.773c-.119-1.303-1.27-.481-1.678 0-1.079 1.997-3.146 3.227-5.633 3.237zm30.016-19.618q-2.517 0-4.314-1.737-1.738-1.797-1.738-4.314 0-2.518 1.738-4.255 1.797-1.797 4.314-1.797 2.518 0 4.316 1.797 1.797 1.737 1.797 4.255 0 2.517-1.797 4.314-1.798 1.737-4.316 1.737zm.06 1.2q2.517 0 4.256 1.797 1.797 1.797 1.797 4.316v14.802q0 2.518-1.797 4.315-1.738 1.737-4.256 1.737-2.516 0-4.315-1.737-1.797-1.797-1.797-4.315V80.985q0-2.517 1.797-4.316 1.797-1.797 4.315-1.797z" style="-inkscape-font-specification:'OTADESIGN Rounded'"/></g><path d="M128.46 82.375q1.437.361 3.594.78 3.594.598 5.631 1.916 3.835 2.517 3.835 7.549 0 4.073-2.696 6.65-3.116 2.995-8.688 2.995-4.072 0-9.103-1.139-1.62-.36-2.638-1.617-.958-1.258-.958-2.816 0-1.916 1.317-3.234 1.379-1.379 3.236-1.379.54 0 1.018.12 1.737.36 6.65.9.66 0 1.438-.06.3 0 .3-.36.059-.3-.36-.42-2.037-.36-3.775-.778-1.975-.419-2.816-.719-1.676-.48-2.814-1.258-3.835-2.515-3.894-7.549 0-4.012 2.755-6.648 3.356-3.236 9.525-2.936 4.134.18 8.268 1.078 1.557.36 2.575 1.618 1.02 1.257 1.02 2.876 0 1.856-1.38 3.234-1.316 1.318-3.234 1.318-.48 0-.958-.12-1.737-.359-6.71-.838-.6-.06-1.138 0-.48.06-.48.359.06.36.48.48zm26.07 0q1.438.361 3.595.78 3.594.598 5.631 1.916 3.833 2.517 3.833 7.549 0 4.073-2.695 6.65-3.116 2.995-8.687 2.995-4.073 0-9.105-1.139-1.619-.36-2.636-1.617-.96-1.258-.96-2.816 0-1.916 1.32-3.234 1.376-1.379 3.234-1.379.54 0 1.019.12 1.738.36 6.649.9.66 0 1.437-.06.3 0 .3-.36.06-.3-.359-.42-2.036-.36-3.774-.778-1.976-.419-2.815-.719-1.679-.48-2.816-1.258-3.835-2.515-3.894-7.549 0-4.012 2.755-6.648 3.356-3.236 9.525-2.936 4.135.18 8.268 1.078 1.558.36 2.577 1.618 1.017 1.257 1.017 2.876 0 1.856-1.377 3.234-1.319 1.318-3.236 1.318-.478 0-.958-.12-1.737-.359-6.71-.838-.598-.06-1.139 0-.478.06-.478.359.06.36.478.48zm38.725 4.953q.178.119 4.254 4.133 1.856 1.797 1.856 4.374 0 2.395-1.738 4.253-1.737 1.797-4.312 1.797-2.457 0-4.254-1.737l-5.99-5.812q-.24-.178-.48-.178-.479 0-.479 1.797 0 2.516-1.797 4.313-1.797 1.738-4.314 1.738-2.516 0-4.313-1.738-1.737-1.797-1.737-4.314V68.038q0-2.516 1.737-4.253 1.797-1.797 4.313-1.797t4.313 1.797q1.797 1.737 1.797 4.253v9.346q0 .598.42.778.36.18.778-.119.241-.12 7.19-4.734 1.558-.958 3.355-.958 3.295 0 5.092 2.695.958 1.56.958 3.357 0 3.294-2.695 5.09l-3.774 2.398v.059l-.12.06q-.84.538-.06 1.318zm23.167 14.937q-6.23 0-10.664-4.373-4.373-4.433-4.373-10.663 0-6.171 4.373-10.545 4.433-4.433 10.664-4.433 6.17 0 10.364 4.135 1.378 1.376 1.378 3.355 0 1.975-1.378 3.355l-6.95 6.889q-1.497 1.497-2.994 1.497-2.158 0-3.357-1.199-1.197-1.198-1.197-3.175 0-1.915 1.379-3.294l1.197-1.258q.24-.18.12-.36-.178-.12-.48-.06-1.197.3-2.036 1.199-1.678 1.618-1.678 3.894 0 2.336 1.619 4.014 1.678 1.617 4.013 1.617 2.276 0 3.893-1.678 1.379-1.377 3.357-1.377 1.975 0 3.353 1.377 1.378 1.378 1.378 3.356 0 1.976-1.378 3.354-4.433 4.373-10.603 4.373zm43.453-23.444v8.327q0 .838-.12 1.797V99.91q0 6.71-4.074 10.722-4.013 4.014-10.843 4.014-3.954 0-7.129-1.497-3.175-1.437-3.175-4.972 0-1.198.54-2.277 1.437-3.236 4.971-3.236.84 0 2.336.48 1.499.48 2.457.48 2.516 0 3.295-1.078.299-.42.119-.66-.24-.36-.838-.239-1.018.178-2.217.178-6.05 0-10.364-4.312-4.313-4.313-4.313-10.364v-8.327q0-2.517 1.737-4.253 1.797-1.797 4.313-1.797t4.314 1.797q1.797 1.738 1.797 4.253v8.327q0 1.018.72 1.797.777.72 1.796.72 1.078 0 1.797-.72.719-.78.719-1.797v-8.327q0-2.517 1.797-4.253 1.797-1.797 4.314-1.797 2.516 0 4.254 1.797 1.797 1.738 1.797 4.253z" style="line-height:136.34428406px;-inkscape-font-specification:'OTADESIGN Rounded'"/></g></svg>