<svg xmlns="http://www.w3.org/2000/svg" xmlns:xlink="http://www.w3.org/1999/xlink" width="1200" height="630" viewBox="0 0 317.5 166.688"><defs><linearGradient id="b"><stop offset="0" stop-color="#fff"/><stop offset="1" stop-color="#90d0f1"/></linearGradient><linearGradient id="a"><stop offset="0" stop-color="#cfebf9"/><stop offset="1" stop-color="#6cc1ed"/></linearGradient><linearGradient xlink:href="#a" id="c" x1="111.419" y1="281.305" x2="111.419" y2="5.952" gradientUnits="userSpaceOnUse"/><linearGradient xlink:href="#b" id="e" gradientUnits="userSpaceOnUse" x1="111.419" y1="1130.386" x2="111.419" y2="5.952" gradientTransform="translate(-5.257 1.973)"/><linearGradient xlink:href="#a" id="d" gradientUnits="userSpaceOnUse" x1="111.419" y1="281.305" x2="111.419" y2="5.952" gradientTransform="translate(-1.391 .522)"/></defs><g transform="translate(0 -130.312)"><text style="line-height:56.68144608px;-inkscape-font-specification:'Gen Shin Gothic'" x="12.468" y="245.615" font-weight="400" font-size="16.77" font-family="Gen Shin Gothic" letter-spacing="0" word-spacing="0" fill="#fffc32" stroke-width=".265"/><path fill="#105779" paint-order="fill markers stroke" d="M0 130.312h317.5V297H0z"/><text style="line-height:1.25;-inkscape-font-specification:'Gen Shin Gothic';text-align:center" x="126.76" y="169.425" font-weight="400" font-size="20.701" font-family="Gen Shin Gothic" letter-spacing="0" word-spacing="0" text-anchor="middle" fill="#fff" stroke-width=".265"><tspan x="126.76" y="169.425" style="-inkscape-font-specification:'Gen Shin Gothic'"><tspan style="-inkscape-font-specification:'Mgen+ 1c'" font-family="Mgen+ 1c">Misskey</tspan>をはじめよう</tspan></text><g transform="matrix(.6046 0 0 .6046 195.476 134.198)" fill="url(#c)" stroke-width="1.654"><path transform="matrix(.26458 0 0 .26458 1.391 -.522)" d="M248.643 37.03s2.524 52.528 2.02 69.7c-.202 6.821-.47 14.666-.546 22.325-4.768 1.387-10.227 3.236-15.117 5.607-11.786 5.714-21.071 11.428-25 14.643-3.929 3.214-5.357 5.357-5.357 5.357s.714 26.072 5 32.858c2.863 4.533 11.228 9.928 16.517 13.046-5.109 7.92-11.32 17.485-14.017 21.239-4.108 5.714-19.465 35-20.358 38.215-.42 1.514-3.176 10.24-5.992 19.226-2.42 2.012-7.578 6.309-7.578 6.309s.714-.178 3.392-.178c.809 0 1.551.055 2.24.123-.411 1.321-.79 2.545-1.173 3.783-1.148.522-2.139.914-2.139.914s.813.146 1.783.235c-1.663 5.389-3.04 9.928-3.21 10.838-.536 2.857-1.43 8.392-1.43 8.392s0-1.248 3.75-4.463c3.75-3.214 6.43-4.644 6.43-4.644s1.07 8.572 2.32 11.965c1.25 3.392 4.643 9.108 5.715 9.822 1.071.714 1.718.767 1.718.767s-1.642-9.468-.506-16.666c1.137-7.197 1.39-8.207 4.168-19.066.73-2.852 1.944-6.83 3.422-11.295 4.98-3.72 9.479-7.107 10.662-8.027 3.215-2.5 10.357-10.356 12.678-13.213 1.102-1.357 4.8-7.143 8.36-12.803.12 9.829 1.105 26.91 1.105 26.91s1.149-11.12 1.906-14.908c.758-3.788 3.787-9.596 3.787-9.596s1.768 10.606 3.284 16.414c.486 1.863 1.268 4.39 2.132 7.073-1.264 13.444-5.18 44.801-9.818 60.714-5.38 18.465-8.714 52.806-10.07 64.313-.9 7.635-.741 18.57-.533 25.135-8.522 13.897-15.608 25.566-17.116 28.078-4.242 7.07-15.697 26.973-15.697 26.973s-1.375-.375-3.375 1.5-5.375 9.875-6.625 10.625-33.375 38-38.875 44.75-19.75 21-21.5 25.25-.5 24.5-1.25 27.25 0 17.25 1.25 21.25 3.5 14.5 2.25 21.5-3.75 30.75-2.25 34.75c1.163 3.101 7.462 10.862 10.29 14.26-.032 5.753.103 10.59.298 11.954.353 2.475 4.419 5.834 11.844 10.784 7.424 4.95 15.91 9.722 15.91 9.722l-.596-1.17c4.402 2.239 9.756 4.155 15.754 3.45 2.836-.334 6.02-.605 9.172-1.143 3.211.283 7.21 1.032 7.828.518.75-.625 2.688-1.985 3.02-2.67.094-.196.184-.416.26-.64.41.073.803.15 1.214.222-1.532 4.53-2.95 9.464-2.512 10.166.204.325 1.06.54 2.266.9-2.43 11.263-8.037 36.718-12.248 51.647-5.5 19.5-22.5 80-22 81.5s13 17 17.5 20.5c1.443 1.122 3.672 2.393 6.014 3.609-.843 14.492-1.365 24.952-1.278 27.213.354 9.192 3.89 21.92 5.305 22.273.749.187 4.926.658 11.152.653.462 4.026.919 7.439 1.307 9.252 1.5 7 28.5 123 33 138.5s16.5 56.5 16.5 56.5l79.5-1.5s-2.5-76.5-3.5-92c-.75-11.63.188-76.717.703-108.51 13.055-1.432 25.375-3.057 26.094-3.955.517-.647.364-4.78-.045-9.946 3.293-.625 6.467-1.33 8.748-2.09.053-.017.115-.04.168-.058 2.887 8.526 14.745 43.384 17.832 49.559 3.5 7 79 166.5 79 166.5l95.5 3c-13.79-69.12-30.125-153.408-50.5-221-3.17-9.731-7.552-28.068-10.863-42.596 1.049-.594 2.186-1.232 2.994-1.705 10.253-6.01 10.076-9.723 10.076-9.723s-.966-1.151-2.43-3.08c6.429-5.31 15.694-13.136 19.223-17.146 5.5-6.25 24-35.75 29-46.25s3.5-10.5 1-14.5-66-40.5-72-45c-1.94-1.456-6.226-4.41-10.936-7.624.105-.208.212-.415.311-.626 2.5-5.375 7.54-1.659 7.164-5.159-.375-3.5-8.414-39.091-8.414-40.341s2.125-7 1.375-8.625-2-1.75-3.125-2.75 0-.75 1-6.625-.25-23.876.125-30.125c.375-6.25 3.75-18.875 4.625-24.75s.875-13.626 1.375-14.25c.5-.626 4.5-1.625 4.25-2.875s-.75-4.625.125-7.125 6-7 7-7.125c.552-.07.983-.994 1.223-2.34 4.523 4.259 10.134 9.659 13.1 13.02 5.303 6.01 29.168 34.823 29.699 36.945.53 2.12-.177 6.718.707 7.425.883.707 5.48 4.774 5.48 5.834 0 1.06 12.728 14.318 17.678 18.207 4.95 3.89 25.456 21.567 27.4 21.567 1.945 0 4.418-4.95 6.893-5.303 2.475-.353 12.199.177 15.027-2.475 2.828-2.651 11.666-19.975 14.14-22.273 2.476-2.298 12.73-12.906 15.028-16.795 2.298-3.889 8.662-21.39 9.37-30.936.706-9.545-3.184-28.636-6.013-36.591-2.828-7.955-9.721-25.104-9.544-35.534.176-10.43-.885-10.076-.885-10.076s1.697-5.05 1.697-9.55c0-4.5-2.125-16.25-2.875-17.75s-1.375-1.125-1.375-1.125 0-.625.25-5.5-.25-6.5-1.5-8-5.625-6.375-6.25-6.625-.937.25-.937.25.5-1.313.75-2.375c.25-1.063.062-2.625-.438-2.938-.5-.313-1.625-1.562-1.625-1.562l-1.434-.483c.126-.26.215-.483.215-.611 0-.707-6.295-18.158-10.011-28.975a345.119 345.119 0 01-1.834-5.441c-.691-2.138-1.226-3.918-1.682-5.436-1.411-4.695-1.997-6.711-3.533-7.646-1.545-.94-6.98-3.284-10.035-4.588-.022-.023-.04-.048-.061-.07 0 0-2.5-1.25-6-2.25-.282-.081-.64-.059-1.053.037-.209-.505-.566-1.467-1.045-2.8.824-.692 1.537-1.3 1.576-1.353.19-.252.19-.504-.062-1.388-.018-.065-.36-.983-.467-1.284-.01-.029-.048-.127-.058-.158-1.479-4.117-9.018-24.267-9.346-24.35-.089-.022-.53.255-1.24.743l-.055-.162a1.513 1.513 0 00-.178-.325c-.23-.602-.88-2.352-1.094-3.949-.252-1.894 1.642-13.636 1.768-19.318.087-3.92-.483-5.712-.848-6.461.411-1.838.642-3.871.721-4.904.126-1.642-1.766-9.344-2.902-10.354-1.137-1.01-5.179-.758-7.451-.506-.555.062-1.077.148-1.553.24-.434-1.832-.497-1.889-1.098-2.89-.757-1.263-2.4-3.788-3.916-3.914-1.045-.087-6.116 1.533-9.236 2.568l-.865-1.306s.505-9.345.505-10.48c0-1.137 4.884-16.706 5.91-19.37.997-2.584 13.537-29.245 13.663-30.129.126-.884-.884-5.555-1.768-5.934-.884-.378-4.899.96-7.172 2.475-2.273 1.515-4.874 5.86-6.136 8.385-1.263 2.525-8.688 18.056-10.077 21.592-1.389 3.535-8.687 26.894-8.687 26.894s-5.178-2.778-6.567-2.525c-1.388.252-1.552-1.065-1.552-1.065s.163-27.724.416-34.922c.252-7.197.695-25.695.506-26.832-.19-1.136-.823-1.768-1.58-2.273-.238-.158-.545-.217-.875-.225.176-15.379-.27-41.146-3.684-71.257-3.127-27.573-19.342-49.892-25.844-57.874.098-2.088.193-3.986.287-5.31.505-7.071 1.012-23.737 2.022-31.818 1.01-8.082-1.01-38.387-1.01-38.387s-31.883 14.46-42.24 23.746c-6.683 5.992-14.989 11.385-21.106 16.092-32.09-15.575-77.69-9.144-102.824 3.908-6.977 3.623-15.3 9.2-19.455 12.06-7.242-7.913-19.561-24.171-27.394-32.275-10.358-10.714-31.293-25.633-31.293-25.633zm1.6 104.956c.243 6.56.808 12.32 1.935 16.262.186.65.355 1.18.533 1.772-1.559.997-3.266 2.292-4.318 3.75-1.816 2.514-9.38 15.793-13.424 22.771-2.108 1.76-4.021 3.353-4.403 3.734-.473.474-1.937 1.803-3.285 3.016-2.122-3.787-3.275-7.837-3.709-11.307-.535-4.285-.894-18.75-.894-18.75s10-8.215 14.465-12.322c2.86-2.632 8.937-6.426 13.1-8.926zm-8.595 56.918c-1.563 8.723-2.979 18.57-3.95 26.305-2.876 4.698-6.812 10.897-9.663 14.275-4.821 5.715-7.857 10.714-10.357 13.036-.578.536-3.119 2.69-6.5 5.533 2.912-7.535 5.906-14.582 8.277-18.912 5.808-10.607 17.152-33.317 19.92-37.067.446-.604 1.423-1.978 2.273-3.17zm18.036 76.627c.631 3.365 1.223 6.166 1.744 8.06 3.928 14.287 2.859 30.714 2.144 35.714-.714 5-9.643 37.5-13.572 47.5-2.87 7.307-5.938 15.76-9.469 24.101.145-12.635.633-25.982 1.324-32.595.928-8.87 7.144-53.373 11.055-77.801.49 1.36.994 2.761 1.397 3.836 2.272 6.06 7.322 15.658 7.322 15.658s-1.597-10.263-1.945-24.473zm-29.286 127.543s.451 3.334 1.168 7.697c-.38.891-.758 1.794-1.138 2.71.156-4.81-.03-10.407-.03-10.407zm296.745 7.4c.806 1.878 1.519 3.638 1.931 4.989.06.037.295.053.65.053 2.784 6.51 5.369 12.68 7.256 17.314a281.961 281.961 0 00-5.085 4.445 8409.501 8409.501 0 01-4.752-26.8zM213.834 549.96c-.262 7.252-.537 13.156-.834 14.936-1 6-1.929 24.112-1.752 30.123.065 2.197.784 7.068 1.607 12.373-2.354-8.57-7.087-19.4-7.087-24.746 0-6.364-.08-8.938-.08-8.938s1.062.625 2.624-1.937c1.563-2.563 3.997-15.467 3.997-18.649 0-.333.607-1.526 1.525-3.162zm.773 68.707c.846 5.516 1.518 10.382 1.518 12.604 0 .838-.273 2.83-.71 5.494a12.944 12.944 0 00-.454-1.618s.2-8.522-.354-16.48zm-1.171 28.904l-.133.682-.166-.025c0-.079.005-.176.004-.25l.011.04s.122-.183.284-.447z" fill="url(#e)" fill-rule="evenodd"/></g><g aria-label="joinmisskey.github.io" style="line-height:1.25;-inkscape-font-specification:'GenEi Nu Gothic EB';text-align:center" font-weight="400" font-size="24.075" font-family="GenEi Univer Sans" letter-spacing="0" word-spacing="0" text-anchor="middle" fill="#fff" stroke-width=".265"><path d="M27.913 203.393c.675.265 1.204.337 1.927.337 2.239 0 3.539-1.396 3.539-3.804V184.35h-2.047v15.504c0 1.54-.626 1.998-1.733 1.998-.53 0-1.108-.096-1.686-.36zm3.058-23.45c0 .771.578 1.349 1.348 1.349.747 0 1.373-.578 1.373-1.348 0-.747-.626-1.373-1.373-1.373-.77 0-1.348.626-1.348 1.373zM43.076 198.578c4.238 0 6.621-3.154 6.621-7.174 0-3.997-2.263-7.247-6.62-7.247-3.925 0-6.5 3.25-6.5 7.295 0 3.996 2.383 7.126 6.5 7.126zm-.024-12.567c3.226 0 4.478 2.576 4.478 5.417 0 2.84-1.468 5.32-4.454 5.32-2.696 0-4.357-2.48-4.357-5.32 0-2.841 1.492-5.417 4.333-5.417zM52.985 198.361h2.047V184.35h-2.047zm-.337-18.417c0 .77.602 1.348 1.348 1.348.77 0 1.373-.578 1.373-1.348 0-.747-.602-1.373-1.373-1.373-.746 0-1.348.626-1.348 1.373zM59.213 198.361h2.07v-7.704c0-3.033 2.119-4.622 4.141-4.622 1.661 0 3.082 1.06 3.082 3.202v9.124h2.046v-9.678c0-2.769-1.974-4.55-4.815-4.55-1.926 0-3.611.867-4.454 2.576v-2.36h-2.07zM76.518 184.35h-2.07v14.011h2.07v-7.704c0-3.105 1.83-4.622 3.467-4.622 1.878 0 2.745 1.131 2.745 3.226v9.1h2.046v-7.704c0-3.105 1.878-4.622 3.491-4.622 1.878 0 2.745 1.131 2.745 3.226v9.1h2.07v-9.654c0-2.648-1.324-4.574-4.382-4.574-1.781 0-3.322.89-4.165 2.72-.505-1.637-1.781-2.72-4.092-2.72-1.734 0-3.13.794-3.925 2.456zM97.045 198.361h2.046V184.35h-2.046zm-.337-18.417c0 .77.602 1.348 1.348 1.348.77 0 1.372-.578 1.372-1.348 0-.747-.602-1.373-1.372-1.373-.746 0-1.348.626-1.348 1.373zM110.832 184.831c-.65-.313-1.902-.626-3.49-.626-2.505 0-4.527 1.396-4.527 3.804 0 2.263 1.806 3.298 3.515 3.972 1.926.77 3.202 1.373 3.202 2.841 0 1.108-.867 1.902-2.672 1.902-1.325 0-2.817-.41-3.973-1.083v2.046c.843.434 2.432.819 4.117.819 2.865 0 4.647-1.469 4.647-3.852 0-2.263-1.854-3.299-3.828-4.117-1.517-.65-2.938-1.156-2.938-2.6 0-1.108.94-1.902 2.48-1.902 1.348 0 2.672.313 3.467.77zM122.164 184.831c-.65-.313-1.902-.626-3.49-.626-2.504 0-4.527 1.396-4.527 3.804 0 2.263 1.806 3.298 3.515 3.972 1.926.77 3.202 1.373 3.202 2.841 0 1.108-.867 1.902-2.672 1.902-1.324 0-2.817-.41-3.973-1.083v2.046c.843.434 2.432.819 4.117.819 2.865 0 4.647-1.469 4.647-3.852 0-2.263-1.854-3.299-3.828-4.117-1.517-.65-2.937-1.156-2.937-2.6 0-1.108.939-1.902 2.48-1.902 1.348 0 2.672.313 3.466.77zM136.506 198.361l-6.236-7.343 6.043-6.668h-2.48l-5.826 6.476v-11.917h-2.07v19.452h2.07v-7.15l5.971 7.15zM139.91 190.248c.337-2.745 1.974-4.237 4.045-4.237 2.239 0 3.61 1.54 3.635 3.683v.554zm-.048 1.757h9.678c.072-.433.12-1.3.12-1.613 0-3.9-2.287-6.211-5.681-6.211-3.588 0-6.212 2.672-6.212 7.247 0 4.237 2.817 7.078 7.054 7.078 1.228 0 2.913-.29 3.949-.867v-1.974c-.963.65-2.552.987-3.756.987-3.034 0-4.911-1.613-5.152-4.647zM156.85 197.976c-.77 2.143-2.166 3.226-3.996 3.226-.265 0-.602-.048-.915-.12v1.902c.337.096.747.12 1.108.12 2.263 0 4.381-1.06 5.898-5.128l5.08-13.626h-2.239l-1.661 4.646c-2.047 5.754-2.263 6.428-2.263 6.428s-.24-.674-2.528-6.428l-1.83-4.646h-2.335zM163.593 196.989c0 .89.674 1.589 1.565 1.589.89 0 1.589-.698 1.589-1.589 0-.89-.698-1.565-1.59-1.565-.89 0-1.564.674-1.564 1.565zM174.585 196.122c-1.733 0-3.852-1.42-3.852-4.863 0-3.057 1.493-5.224 3.973-5.224 1.733 0 3.804 1.396 3.804 5.393 0 3.418-2.191 4.694-3.925 4.694zm3.925-11.772v2.31c-.795-1.516-2.119-2.527-4.238-2.527-3.442 0-5.681 3.081-5.681 7.174 0 4.358 2.768 6.693 5.778 6.693 1.926 0 3.298-.915 4.14-2.407v1.637c0 3.226-1.805 4.502-4.405 4.502-1.324 0-2.865-.337-4.045-.987v2.07c1.228.602 2.817.843 4.238.843 3.466 0 6.283-1.926 6.283-6.428v-12.88zM184.6 198.361h2.046V184.35H184.6zm-.337-18.417c0 .77.601 1.348 1.348 1.348.77 0 1.372-.578 1.372-1.348 0-.747-.602-1.373-1.372-1.373-.747 0-1.348.626-1.348 1.373zM193.74 186.035h3.9v-1.685h-3.9v-3.467h-2.07v3.467h-2.24v1.685h2.24v8.258c0 2.648 1.228 4.213 4.117 4.213.578 0 1.492-.217 1.998-.53v-1.974c-.482.385-1.228.626-1.902.626-1.445 0-2.143-.795-2.143-2.263zM203.054 178.836h-2.07v19.525h2.07v-7.704c0-3.13 1.999-4.622 3.949-4.622 1.637 0 2.865 1.083 2.865 3.418v8.908h2.046V188.9c0-2.865-1.757-4.767-4.454-4.767-2.046 0-3.587.842-4.406 2.576zM215.651 194.028c0 2.744 1.926 4.502 4.72 4.502 2.046 0 3.779-.77 4.55-2.6v2.431h2.07V184.35h-2.07v7.728c0 2.792-1.782 4.574-4.093 4.574-1.734 0-3.13-1.06-3.13-3.178v-9.124h-2.047zM237.363 196.676c-1.974 0-4.19-1.252-4.19-5.393 0-4.069 2.48-5.272 4.07-5.272 2.262 0 4.092 1.83 4.092 5.489 0 3.082-1.71 5.176-3.972 5.176zm-4.19-17.84h-2.046v19.525h2.047v-2.046c.89 1.396 2.31 2.239 4.333 2.239 3.9 0 5.97-3.347 5.97-7.078 0-4.382-2.503-7.343-6.018-7.343-1.878 0-3.322.867-4.285 2.287zM245.317 196.989c0 .89.674 1.589 1.565 1.589.89 0 1.589-.698 1.589-1.589 0-.89-.698-1.565-1.59-1.565-.89 0-1.564.674-1.564 1.565zM251.23 198.361h2.046V184.35h-2.046zm-.337-18.417c0 .77.602 1.348 1.348 1.348.77 0 1.372-.578 1.372-1.348 0-.747-.602-1.373-1.372-1.373-.746 0-1.348.626-1.348 1.373zM263.139 198.578c4.237 0 6.62-3.154 6.62-7.174 0-3.997-2.262-7.247-6.62-7.247-3.924 0-6.5 3.25-6.5 7.295 0 3.996 2.383 7.126 6.5 7.126zm-.024-12.567c3.226 0 4.478 2.576 4.478 5.417 0 2.84-1.469 5.32-4.454 5.32-2.696 0-4.358-2.48-4.358-5.32 0-2.841 1.493-5.417 4.334-5.417z" style="-inkscape-font-specification:'GenEi Univer Sans'"/></g><text y="218.534" x="27.312" style="line-height:1.25;-inkscape-font-specification:'Gen Shin Gothic';text-align:start" font-weight="400" font-size="8.691" font-family="Gen Shin Gothic" letter-spacing="0" word-spacing="0" fill="#fff" stroke-width=".265"><tspan style="-inkscape-font-specification:'Gen Shin Gothic';text-align:start" y="218.534" x="27.312">いつまでも進化する、</tspan><tspan style="-inkscape-font-specification:'Gen Shin Gothic';text-align:start" y="229.398" x="27.312">洗練されたマイクロブログ<tspan style="-inkscape-font-specification:'Mgen+ 1c';text-align:start" font-family="Mgen+ 1c">SNS</tspan></tspan></text><text style="line-height:1.25;-inkscape-font-specification:'GenEi Nu Gothic EB';text-align:start" x="27.953" y="237.86" font-weight="400" font-size="5.739" font-family="GenEi Nu Gothic EB" letter-spacing="-.037" word-spacing="0" fill="#fff" stroke-width=".265"><tspan x="27.953" y="237.86" style="-inkscape-font-specification:'GenEi Nu Gothic EB';text-align:start">A forever evolving, sophisticated microblogging platform.</tspan></text><path d="M27.2 246.725h189.51l1.206.612c8.172 3.854 5.87 3.413 2.949 14.314-3.03 11.307-3.132 8.794 1.334 18.729h-195z" id="f" fill="#105779" fill-opacity="1" stroke="none" stroke-width=".8" stroke-linecap="round" stroke-linejoin="miter" stroke-miterlimit="4" stroke-dasharray="none" stroke-opacity="1" paint-order="markers stroke fill"/><g word-spacing="0" letter-spacing="0" font-weight="400" font-family="OTADESIGN Rounded" fill="#fff" stroke-width="4.864"><g style="line-height:476.69509888px;-inkscape-font-specification:'OTADESIGN Rounded'"><path font-size="141.034" aria-label="Mi" d="M30.574 250.943a.92.92 0 01-.78-.448c-.074-.105-.222-.143-.224 0v.661a.941.941 0 01-.29.689.937.937 0 01-.689.282.955.955 0 01-.689-.282.955.955 0 01-.282-.689v-3.634c0-.205.059-.39.175-.556a.945.945 0 01.464-.357.952.952 0 01.332-.058c.299 0 .548.116.747.349.105.116.166.177.182.182 0 0 .79.954.811.97.023.017.088.144.243.144.156 0 .23-.127.251-.143.022-.017.811-.97.811-.97.006.005.064-.056.174-.183a.968.968 0 01.755-.349c.111 0 .222.02.332.058.188.067.34.185.457.357a.918.918 0 01.182.556v3.634a.941.941 0 01-.29.689.938.938 0 01-.689.282.955.955 0 01-.689-.282.955.955 0 01-.282-.689v-.66c-.016-.181-.175-.067-.232 0a.866.866 0 01-.78.447zm4.156-2.716q-.349 0-.598-.24-.24-.25-.24-.598t.24-.589q.25-.249.598-.249t.597.25q.249.24.249.588 0 .349-.249.598-.249.24-.597.24zm.008.166q.348 0 .59.249.248.249.248.598v2.049q0 .348-.249.597-.24.24-.59.24-.347 0-.596-.24-.25-.249-.25-.597v-2.05q0-.348.25-.597.248-.249.597-.249z" style="-inkscape-font-specification:'OTADESIGN Rounded'"/></g><path d="M37.427 249.432q.2.05.498.108.497.083.78.265.53.349.53 1.045 0 .564-.373.921-.431.415-1.203.415-.564 0-1.26-.158-.224-.05-.365-.224-.133-.174-.133-.39 0-.265.182-.448.191-.19.448-.19.075 0 .141.016.24.05.921.125.091 0 .2-.009.04 0 .04-.05.009-.04-.05-.057-.281-.05-.522-.108-.273-.058-.39-.1-.232-.066-.39-.174-.53-.348-.538-1.045 0-.556.381-.92.465-.449 1.319-.407.572.025 1.144.15.216.049.357.223t.141.398q0 .257-.19.448-.183.183-.449.183-.066 0-.132-.017-.24-.05-.93-.116-.082-.008-.157 0-.066.008-.066.05.008.05.066.066zm3.61 0q.199.05.497.108.498.083.78.265.53.349.53 1.045 0 .564-.373.921-.431.415-1.202.415-.564 0-1.26-.158-.225-.05-.366-.224-.133-.174-.133-.39 0-.265.183-.448.19-.19.448-.19.074 0 .14.016.241.05.921.125.092 0 .2-.009.04 0 .04-.05.01-.04-.049-.057-.282-.05-.522-.108-.274-.058-.39-.1-.233-.066-.39-.174-.53-.348-.54-1.045 0-.556.382-.92.465-.449 1.32-.407.571.025 1.144.15.215.049.356.223t.141.398q0 .257-.19.448-.183.183-.448.183-.067 0-.133-.017-.24-.05-.929-.116-.083-.008-.158 0-.066.008-.066.05.008.05.066.066zm5.36.686q.026.016.59.572.257.249.257.605 0 .332-.24.59-.241.248-.598.248-.34 0-.589-.24l-.83-.805q-.032-.025-.066-.025-.066 0-.066.25 0 .347-.249.596-.248.24-.597.24-.348 0-.597-.24-.24-.249-.24-.597v-3.865q0-.348.24-.589.249-.249.597-.249t.597.25q.249.24.249.588v1.294q0 .083.058.108.05.025.108-.017.033-.016.995-.655.216-.133.465-.133.456 0 .705.373.132.216.132.465 0 .456-.373.705l-.522.332v.008l-.017.008q-.116.075-.008.183zm3.208 2.068q-.862 0-1.476-.606-.606-.614-.606-1.476 0-.854.606-1.46.614-.614 1.476-.614.854 0 1.435.573.19.19.19.464t-.19.465l-.962.954q-.207.207-.415.207-.298 0-.464-.166-.166-.166-.166-.44 0-.265.19-.456l.166-.174q.034-.025.017-.05-.025-.016-.066-.008-.166.041-.282.166-.233.224-.233.539 0 .323.225.556.232.224.555.224.315 0 .54-.233.19-.19.464-.19.273 0 .464.19.191.191.191.465 0 .273-.19.464-.615.606-1.469.606zm6.016-3.246v1.153q0 .116-.016.249v1.517q0 .93-.565 1.485-.555.556-1.5.556-.548 0-.988-.208-.44-.199-.44-.688 0-.166.075-.315.2-.448.689-.448.116 0 .323.066.208.067.34.067.349 0 .457-.15.04-.058.016-.09-.033-.05-.116-.034-.141.025-.307.025-.838 0-1.435-.597-.597-.598-.597-1.435v-1.153q0-.349.24-.589.25-.249.598-.249t.597.25q.249.24.249.588v1.153q0 .14.1.249.107.1.248.1.15 0 .249-.1.1-.108.1-.25v-1.152q0-.349.248-.589.249-.249.597-.249.349 0 .59.25.248.24.248.588z" style="line-height:136.34428406px;-inkscape-font-specification:'OTADESIGN Rounded'"/></g><g font-weight="400" letter-spacing="0" word-spacing="0" font-family="OTADESIGN Rounded" fill="#fff" stroke-width="3.895"><g style="line-height:476.69509888px;-inkscape-font-specification:'OTADESIGN Rounded'"><path style="-inkscape-font-specification:'OTADESIGN Rounded'" d="M144.362 228.167c-.43.001-.8-.258-.974-.56-.093-.132-.277-.179-.28 0v.825c0 .332-.12.618-.362.86a1.17 1.17 0 01-.86.352c-.331 0-.618-.117-.86-.352a1.193 1.193 0 01-.352-.86v-4.537c0-.256.072-.487.217-.694a1.18 1.18 0 01.58-.446 1.19 1.19 0 01.415-.072c.373 0 .684.145.932.435.131.145.207.22.228.228 0 0 .985 1.19 1.013 1.212.027.02.108.178.303.178.194 0 .286-.158.313-.179.028-.02 1.013-1.211 1.013-1.211.007.007.08-.07.217-.228.256-.29.57-.435.943-.435.138 0 .276.024.414.072.235.083.425.231.57.446.152.207.228.438.228.694v4.537c0 .332-.12.618-.362.86a1.17 1.17 0 01-.86.352c-.332 0-.618-.117-.86-.352a1.192 1.192 0 01-.352-.86v-.825c-.02-.225-.22-.083-.29 0-.187.345-.544.558-.974.56zm5.188-3.392q-.435 0-.745-.3-.3-.31-.3-.746 0-.435.3-.735.31-.311.745-.311.436 0 .746.31.311.301.311.736t-.31.746q-.311.3-.747.3zm.01.208q.436 0 .736.31.311.31.311.746v2.56q0 .434-.31.745-.301.3-.736.3t-.746-.3q-.31-.31-.31-.746v-2.559q0-.435.31-.746.31-.31.746-.31z" aria-label="Mi" font-size="141.034"/></g><path style="line-height:136.34428406px;-inkscape-font-specification:'OTADESIGN Rounded'" d="M152.918 226.28q.249.062.622.134.62.104.973.332.663.435.663 1.304 0 .705-.466 1.15-.539.518-1.502.518-.704 0-1.574-.197-.28-.062-.456-.28-.165-.217-.165-.486 0-.332.228-.56.238-.238.559-.238.093 0 .176.021.3.062 1.15.155.113 0 .248-.01.052 0 .052-.062.01-.052-.062-.073-.353-.062-.653-.134-.341-.073-.487-.124-.29-.083-.486-.218-.663-.435-.673-1.305 0-.693.476-1.15.58-.559 1.647-.507.714.031 1.429.187.269.062.445.28.176.217.176.497 0 .32-.238.559-.228.227-.56.227-.082 0-.165-.02-.3-.062-1.16-.145-.104-.01-.197 0-.083.01-.083.062.01.062.083.083zm4.507 0q.249.062.621.134.622.104.974.332.662.435.662 1.304 0 .705-.466 1.15-.538.518-1.501.518-.704 0-1.574-.197-.28-.062-.456-.28-.166-.217-.166-.486 0-.332.228-.56.238-.238.56-.238.093 0 .176.021.3.062 1.149.155.114 0 .248-.01.052 0 .052-.062.01-.052-.062-.073-.352-.062-.652-.134-.342-.073-.487-.124-.29-.083-.487-.218-.662-.435-.673-1.305 0-.693.476-1.15.58-.559 1.647-.507.715.031 1.43.187.269.062.445.28.175.217.175.497 0 .32-.238.559-.227.227-.559.227-.083 0-.165-.02-.3-.062-1.16-.145-.104-.01-.197 0-.083.01-.083.062.01.062.083.083zm6.694.856q.03.02.735.714.321.31.321.756 0 .414-.3.736-.3.31-.746.31-.424 0-.735-.3l-1.036-1.005q-.04-.03-.083-.03-.082 0-.082.31 0 .435-.31.746-.311.3-.747.3-.434 0-.745-.3-.3-.311-.3-.746V223.8q0-.435.3-.735.31-.31.745-.31t.746.31q.31.3.31.735v1.616q0 .103.073.134.062.031.135-.02.041-.021 1.243-.819.269-.165.58-.165.57 0 .88.466.165.27.165.58 0 .57-.466.88l-.652.414v.01l-.02.01q-.146.094-.011.229zm4.005 2.582q-1.077 0-1.844-.756-.756-.766-.756-1.843 0-1.067.756-1.823.767-.766 1.844-.766 1.066 0 1.791.714.238.238.238.58 0 .342-.238.58l-1.201 1.191q-.259.259-.518.259-.373 0-.58-.207-.207-.208-.207-.55 0-.33.238-.569l.207-.217q.042-.031.021-.062-.03-.021-.083-.01-.207.051-.352.206-.29.28-.29.674 0 .403.28.693.29.28.694.28.393 0 .673-.29.238-.238.58-.238.341 0 .58.238.238.238.238.58 0 .342-.238.58-.767.756-1.833.756zm7.511-4.053v1.44q0 .145-.02.31v1.895q0 1.16-.705 1.854-.694.694-1.874.694-.684 0-1.233-.259-.548-.248-.548-.86 0-.207.093-.393.248-.56.86-.56.144 0 .403.084.26.083.425.083.435 0 .57-.187.05-.073.02-.114-.041-.062-.145-.041-.176.03-.383.03-1.046 0-1.792-.745-.745-.745-.745-1.791v-1.44q0-.435.3-.735.31-.31.745-.31t.746.31q.31.3.31.735v1.44q0 .176.125.31.135.125.31.125.187 0 .311-.125.125-.134.125-.31v-1.44q0-.435.31-.735.31-.31.746-.31.435 0 .735.31.311.3.311.735z"/></g><text style="line-height:1.25;-inkscape-font-specification:Aiko-UltraBold;text-align:center" x="157.776" y="221.585" font-weight="400" font-size="6.263" font-family="Aiko-UltraBold" letter-spacing="2.936" word-spacing="0" text-anchor="middle" fill="#fff" stroke-width=".265"><tspan x="159.244" y="221.585" style="-inkscape-font-specification:Aiko-UltraBold">ミスキ<tspan style="-inkscape-font-specification:Aiko-UltraBold">ー</tspan></tspan></text></g></svg>