<?xml version="1.0" encoding="UTF-8" standalone="no"?>
<!-- Created with Inkscape (http://www.inkscape.org/) -->

<svg
   xmlns:dc="http://purl.org/dc/elements/1.1/"
   xmlns:cc="http://creativecommons.org/ns#"
   xmlns:rdf="http://www.w3.org/1999/02/22-rdf-syntax-ns#"
   xmlns:svg="http://www.w3.org/2000/svg"
   xmlns="http://www.w3.org/2000/svg"
   xmlns:sodipodi="http://sodipodi.sourceforge.net/DTD/sodipodi-0.dtd"
   xmlns:inkscape="http://www.inkscape.org/namespaces/inkscape"
   width="224mm"
   height="122mm"
   viewBox="0 0 224 122"
   version="1.1"
   id="svg8"
   inkscape:export-filename="G:\vytf\files\images\thumbnail_noimage.png"
   inkscape:export-xdpi="136.16066"
   inkscape:export-ydpi="136.16066"
   inkscape:version="0.92.1 r15371"
   sodipodi:docname="thumbnail_noimage.svg">
  <defs
     id="defs2" />
  <sodipodi:namedview
     id="base"
     pagecolor="#ffffff"
     bordercolor="#666666"
     borderopacity="1.0"
     inkscape:pageopacity="0.0"
     inkscape:pageshadow="2"
     inkscape:zoom="0.49497475"
     inkscape:cx="384.87369"
     inkscape:cy="424.00943"
     inkscape:document-units="mm"
     inkscape:current-layer="layer1"
     showgrid="false"
     inkscape:snap-page="true"
     inkscape:snap-bbox="true"
     inkscape:snap-bbox-midpoints="true"
     units="px"
     inkscape:window-width="1920"
     inkscape:window-height="965"
     inkscape:window-x="-8"
     inkscape:window-y="-8"
     inkscape:window-maximized="1" />
  <metadata
     id="metadata5">
    <rdf:RDF>
      <cc:Work
         rdf:about="">
        <dc:format>image/svg+xml</dc:format>
        <dc:type
           rdf:resource="http://purl.org/dc/dcmitype/StillImage" />
        <dc:title></dc:title>
      </cc:Work>
    </rdf:RDF>
  </metadata>
  <g
     inkscape:label="レイヤー 1"
     inkscape:groupmode="layer"
     id="layer1"
     transform="translate(0,-175)">
    <rect
       style="opacity:1;fill:#282828;fill-opacity:1;fill-rule:nonzero;stroke:none;stroke-width:4.329;stroke-linecap:round;stroke-linejoin:miter;stroke-miterlimit:4;stroke-dasharray:none;stroke-dashoffset:0;stroke-opacity:1;paint-order:markers fill stroke"
       id="rect4485"
       width="224"
       height="122"
       x="0"
       y="175" />
    <g
       aria-label="No Image"
       style="font-style:normal;font-variant:normal;font-weight:bold;font-stretch:normal;font-size:22.08070946px;line-height:74.63279724px;font-family:'Mgen+ 1c';-inkscape-font-specification:'Mgen+ 1c Bold';letter-spacing:0px;word-spacing:0px;fill:#000000;fill-opacity:1;stroke:none;stroke-width:1.47204733px;stroke-linecap:butt;stroke-linejoin:miter;stroke-opacity:1"
       id="text4489">
      <path
         d="m 64.410036,242.84309 v -16.12926 h 2.975721 l 6.059257,10.97566 h 0.04313 v -10.97566 h 2.97572 v 16.12926 h -2.97572 l -6.059258,-10.97566 h -0.04313 v 10.97566 z"
         style="font-style:normal;font-variant:normal;font-weight:bold;font-stretch:normal;font-family:'Mgen+ 1c';-inkscape-font-specification:'Mgen+ 1c Bold';fill:#ffffff;fill-opacity:1;stroke-width:1.47204733px"
         id="path4491" />
      <path
         d="m 80.409925,232.70839 q 1.466297,-1.57411 4.11857,-1.57411 2.652273,0 4.11857,1.57411 1.466297,1.55255 1.466297,4.39889 0,2.84635 -1.466297,4.3989 -1.466297,1.55255 -4.11857,1.55255 -2.652273,0 -4.11857,-1.55255 -1.466297,-1.55255 -1.466297,-4.3989 0,-2.84634 1.466297,-4.39889 z m 2.156319,7.30993 q 0.646896,0.90565 1.940688,0.90565 1.315354,0 1.96225,-0.90565 0.668459,-0.92722 0.668459,-2.91104 0,-1.98381 -0.668459,-2.88946 -0.646896,-0.92722 -1.96225,-0.92722 -1.293792,0 -1.940688,0.92722 -0.646895,0.90565 -0.646895,2.88946 0,1.98382 0.646895,2.91104 z"
         style="font-style:normal;font-variant:normal;font-weight:bold;font-stretch:normal;font-family:'Mgen+ 1c';-inkscape-font-specification:'Mgen+ 1c Bold';fill:#ffffff;fill-opacity:1;stroke-width:1.47204733px"
         id="path4493" />
      <path
         d="m 99.299281,242.84309 v -16.12926 h 3.406989 v 16.12926 z"
         style="font-style:normal;font-variant:normal;font-weight:bold;font-stretch:normal;font-family:'Mgen+ 1c';-inkscape-font-specification:'Mgen+ 1c Bold';fill:#ffffff;fill-opacity:1;stroke-width:1.47204733px"
         id="path4495" />
      <path
         d="m 106.41513,231.37148 h 2.76009 l 0.0431,1.38004 h 0.0431 q 1.27222,-1.61724 2.95415,-1.61724 1.01347,0 1.59568,0.38814 0.58221,0.36657 1.07816,1.33692 h 0.0431 q 1.42317,-1.72506 3.16978,-1.72506 1.83288,0 2.63071,0.99191 0.81941,0.9919 0.81941,3.42854 v 7.28836 h -2.86791 v -6.83553 q 0,-1.61724 -0.32345,-2.11319 -0.30188,-0.51752 -1.18597,-0.51752 -0.58221,0 -1.16441,0.53908 -0.56065,0.51752 -0.56065,1.03504 v 7.89212 h -2.8679 v -6.83553 q 0,-1.59567 -0.32345,-2.11319 -0.30189,-0.51752 -1.18598,-0.51752 -0.5822,0 -1.16441,0.53908 -0.56064,0.51752 -0.56064,1.03504 v 7.89212 h -2.9326 z"
         style="font-style:normal;font-variant:normal;font-weight:bold;font-stretch:normal;font-family:'Mgen+ 1c';-inkscape-font-specification:'Mgen+ 1c Bold';fill:#ffffff;fill-opacity:1;stroke-width:1.47204733px"
         id="path4497" />
      <path
         d="m 128.84086,231.13428 q 2.82478,0 3.94606,1.01347 1.14285,1.01347 1.14285,3.55793 v 7.13741 h -2.73852 l -0.0431,-1.59567 h -0.0431 q -1.33692,1.81131 -3.70887,1.81131 -1.50942,0 -2.50133,-0.97035 -0.97034,-0.9919 -0.97034,-2.56602 0,-1.91912 1.4663,-2.97572 1.46629,-1.05659 4.5067,-1.05659 h 1.09973 v -0.36658 q 0,-1.01347 -0.49596,-1.42317 -0.47439,-0.4097 -1.72505,-0.4097 -1.83287,0 -4.18326,0.75471 v -2.24257 q 2.13475,-0.66846 4.24795,-0.66846 z m 2.15632,6.18864 h -1.09973 q -3.14822,0 -3.16979,1.94068 0,0.71159 0.4097,1.16442 0.40971,0.43126 1.0566,0.43126 1.25067,0 2.02694,-0.77627 0.77628,-0.79784 0.77628,-2.15632 z"
         style="font-style:normal;font-variant:normal;font-weight:bold;font-stretch:normal;font-family:'Mgen+ 1c';-inkscape-font-specification:'Mgen+ 1c Bold';fill:#ffffff;fill-opacity:1;stroke-width:1.47204733px"
         id="path4499" />
      <path
         d="M 146.86769,231.37148 V 241.959 q 0,5.95144 -5.97301,5.97301 -1.83287,0 -3.45011,-0.45283 v -2.47977 q 1.6388,0.66846 3.38542,0.66846 1.63881,0 2.37195,-0.86253 0.75472,-0.84096 0.75472,-2.78165 v -0.71158 h -0.0431 q -1.31536,1.42317 -3.29917,1.42317 -1.94069,0 -3.19135,-1.55255 -1.2291,-1.57412 -1.2291,-4.29108 0,-2.73852 1.18597,-4.24795 1.18598,-1.50942 3.23448,-1.50942 1.0566,0 1.83287,0.38814 0.79784,0.36657 1.57412,1.27223 h 0.0647 l 0.0431,-1.42317 z m -7.76275,5.52017 q 0,1.83287 0.64689,2.73853 0.66846,0.88409 1.78975,0.88409 0.99191,0 1.70349,-0.69002 0.71159,-0.71159 0.71159,-1.66037 v -2.39351 q 0,-1.01347 -0.71159,-1.7035 -0.71158,-0.71158 -1.70349,-0.71158 -2.43664,0 -2.43664,3.53636 z"
         style="font-style:normal;font-variant:normal;font-weight:bold;font-stretch:normal;font-family:'Mgen+ 1c';-inkscape-font-specification:'Mgen+ 1c Bold';fill:#ffffff;fill-opacity:1;stroke-width:1.47204733px"
         id="path4501" />
      <path
         d="m 152.08598,236.02912 h 4.72234 q -0.0216,-2.82477 -2.19945,-2.82477 -1.16441,0 -1.78975,0.66846 -0.60376,0.64689 -0.73314,2.15631 z m 0,1.91913 q 0.12938,1.59568 0.94878,2.30726 0.84096,0.71159 2.47976,0.71159 1.31536,0 3.27761,-0.66846 v 2.26413 q -1.85444,0.51752 -3.64418,0.49596 -2.88947,0 -4.44202,-1.50943 -1.55255,-1.50942 -1.55255,-4.44202 0,-2.91103 1.38005,-4.44201 1.4016,-1.53099 4.03231,-1.53099 5.02423,0 5.02423,5.90832 0,0.43126 -0.0647,0.90565 z"
         style="font-style:normal;font-variant:normal;font-weight:bold;font-stretch:normal;font-family:'Mgen+ 1c';-inkscape-font-specification:'Mgen+ 1c Bold';fill:#ffffff;fill-opacity:1;stroke-width:1.47204733px"
         id="path4503" />
    </g>
  </g>
</svg>
