<svg xmlns="http://www.w3.org/2000/svg" width="600" height="600" viewBox="0 0 158.75 158.75"><path fill="#fff" paint-order="fill markers stroke" d="M0 0h158.75v158.75H0z"/><g style="line-height:476.69509888px;-inkscape-font-specification:'OTADESIGN Rounded'" aria-label="Mi" font-weight="400" font-size="141.034" font-family="OTADESIGN Rounded" letter-spacing="0" word-spacing="0" stroke-width=".29" fill="#2fa1bb"><path style="-inkscape-font-specification:'OTADESIGN Rounded'" d="M61.947 106.676c-5.863.02-10.898-3.512-13.273-7.625-1.268-1.796-3.777-2.435-3.813 0v11.247c0 4.518-1.647 8.425-4.942 11.72-3.2 3.2-7.107 4.8-11.72 4.8-4.518 0-8.424-1.6-11.719-4.8-3.2-3.295-4.8-7.202-4.8-11.72V48.452c0-3.483.988-6.636 2.965-9.46 2.07-2.918 4.706-4.942 7.907-6.072a16.206 16.206 0 0 1 5.648-.988c5.083 0 9.32 1.977 12.708 5.93 1.788 1.977 2.824 3.012 3.106 3.107 0 0 13.424 16.232 13.8 16.514.377.283 1.483 2.442 4.133 2.442s3.896-2.16 4.273-2.442c.377-.282 13.8-16.514 13.8-16.514.094.094 1.083-.942 2.966-3.107 3.482-3.953 7.766-5.93 12.849-5.93 1.882 0 3.765.33 5.648.988 3.2 1.13 5.789 3.154 7.766 6.072 2.07 2.824 3.106 5.977 3.106 9.46v61.846c0 4.518-1.647 8.425-4.942 11.72-3.2 3.2-7.107 4.8-11.72 4.8-4.518 0-8.424-1.6-11.72-4.8-3.2-3.295-4.8-7.202-4.8-11.72V99.05c-.278-3.069-2.991-1.135-3.953 0-2.542 4.707-7.411 7.605-13.273 7.625zM132.668 60.454q-5.93 0-10.166-4.095-4.095-4.236-4.095-10.166 0-5.93 4.095-10.025 4.236-4.236 10.166-4.236 5.93 0 10.167 4.236 4.236 4.095 4.236 10.025 0 5.93-4.236 10.166-4.236 4.095-10.167 4.095zm.141 2.824q5.93 0 10.026 4.236 4.236 4.236 4.236 10.167v34.876q0 5.93-4.236 10.166-4.095 4.095-10.026 4.095-5.93 0-10.166-4.095-4.236-4.236-4.236-10.166V77.681q0-5.93 4.236-10.167 4.236-4.236 10.166-4.236z"/></g><path d="M103.093 95.241a.074.074 0 0 0-.034.009c-.318.183-.538 5.785-.662 13.493h-5.56v33.37h5.56c.126 7.708.346 13.31.664 13.493 1.045.604 52.27-28.973 52.27-30.18-.001-1.197-50.43-30.32-52.239-30.185z" fill="#f66e4f" paint-order="fill markers stroke"/></svg>